font.ufo
<glyph name="exclam" format="1">
  <advance width="600"/>
  <unicode hex="0021"/>
  <outline>
    <contour>
      <point x="259" y="232" type="line"/>
      <point x="312" y="232" type="line"/>
      <point x="394" y="576" type="line"/>
      <point x="413" y="671" type="line"/>
      <point x="332" y="671" type="line"/>
      <point x="316" y="576" type="line"/>
    </contour>
    <contour>
      <point x="242" y="-12" type="curve" smooth="yes"/>
      <point x="288" y="-12"/>
      <point x="324" y="29"/>
      <point x="324" y="75" type="curve" smooth="yes"/>
      <point x="324" y="112"/>
      <point x="301" y="137"/>
      <point x="266" y="137" type="curve" smooth="yes"/>
      <point x="220" y="137"/>
      <point x="183" y="96"/>
      <point x="183" y="50" type="curve" smooth="yes"/>
      <point x="183" y="13"/>
      <point x="207" y="-12"/>
    </contour>
  </outline>
</glyph>
<glyph name="numbersign" format="1">
  <advance width="600"/>
  <unicode hex="0023"/>
  <outline>
    <contour>
      <point x="79" y="0" type="line"/>
      <point x="130" y="0" type="line"/>
      <point x="329" y="650" type="line"/>
      <point x="280" y="650" type="line"/>
    </contour>
    <contour>
      <point x="278" y="0" type="line"/>
      <point x="328" y="0" type="line"/>
      <point x="517" y="650" type="line"/>
      <point x="467" y="650" type="line"/>
    </contour>
    <contour>
      <point x="125" y="416" type="line"/>
      <point x="533" y="416" type="line"/>
      <point x="545" y="465" type="line"/>
      <point x="137" y="465" type="line"/>
    </contour>
    <contour>
      <point x="65" y="208" type="line"/>
      <point x="474" y="208" type="line"/>
      <point x="486" y="256" type="line"/>
      <point x="77" y="256" type="line"/>
    </contour>
  </outline>
</glyph>
<glyph name="dollar" format="1">
  <advance width="600"/>
  <unicode hex="0024"/>
  <outline>
    <contour>
      <point x="266" y="34" type="curve" smooth="yes"/>
      <point x="383" y="34"/>
      <point x="484" y="82"/>
      <point x="484" y="197" type="curve" smooth="yes"/>
      <point x="484" y="284"/>
      <point x="413" y="322"/>
      <point x="329" y="363" type="curve" smooth="yes"/>
      <point x="252" y="400"/>
      <point x="216" y="429"/>
      <point x="216" y="475" type="curve" smooth="yes"/>
      <point x="216" y="529"/>
      <point x="265" y="555"/>
      <point x="326" y="555" type="curve" smooth="yes"/>
      <point x="392" y="555"/>
      <point x="441" y="522"/>
      <point x="476" y="479" type="curve"/>
      <point x="523" y="522" type="line"/>
      <point x="493" y="562"/>
      <point x="424" y="618"/>
      <point x="335" y="618" type="curve" smooth="yes"/>
      <point x="228" y="618"/>
      <point x="140" y="571"/>
      <point x="140" y="470" type="curve" smooth="yes"/>
      <point x="140" y="385"/>
      <point x="198" y="345"/>
      <point x="283" y="303" type="curve" smooth="yes"/>
      <point x="357" y="266"/>
      <point x="408" y="241"/>
      <point x="408" y="188" type="curve" smooth="yes"/>
      <point x="408" y="129"/>
      <point x="354" y="98"/>
      <point x="271" y="98" type="curve" smooth="yes"/>
      <point x="191" y="98"/>
      <point x="139" y="143"/>
      <point x="105" y="183" type="curve"/>
      <point x="56" y="136" type="line"/>
      <point x="96" y="88"/>
      <point x="167" y="34"/>
    </contour>
    <contour>
      <point x="321" y="589" type="line"/>
      <point x="376" y="589" type="line"/>
      <point x="408" y="748" type="line"/>
      <point x="352" y="748" type="line"/>
    </contour>
    <contour>
      <point x="189" y="-110" type="line"/>
      <point x="245" y="-110" type="line"/>
      <point x="278" y="60" type="line"/>
      <point x="223" y="60" type="line"/>
    </contour>
  </outline>
</glyph>
<glyph name="ampersand" format="1">
  <advance width="600"/>
  <unicode hex="0026"/>
  <outline>
    <contour>
      <point x="182" y="-12" type="curve" smooth="yes"/>
      <point x="266" y="-12"/>
      <point x="345" y="26"/>
      <point x="406" y="89" type="curve" smooth="yes"/>
      <point x="476" y="161"/>
      <point x="532" y="249"/>
      <point x="577" y="349" type="curve"/>
      <point x="506" y="349" type="line"/>
      <point x="469" y="263"/>
      <point x="423" y="187"/>
      <point x="360" y="126" type="curve" smooth="yes"/>
      <point x="311" y="80"/>
      <point x="250" y="49"/>
      <point x="196" y="49" type="curve" smooth="yes"/>
      <point x="136" y="49"/>
      <point x="94" y="86"/>
      <point x="94" y="149" type="curve" smooth="yes"/>
      <point x="94" y="322"/>
      <point x="443" y="356"/>
      <point x="443" y="561" type="curve" smooth="yes"/>
      <point x="443" y="622"/>
      <point x="407" y="668"/>
      <point x="335" y="668" type="curve" smooth="yes"/>
      <point x="239" y="668"/>
      <point x="162" y="588"/>
      <point x="162" y="476" type="curve" smooth="yes"/>
      <point x="162" y="345"/>
      <point x="251" y="181"/>
      <point x="353" y="81" type="curve" smooth="yes"/>
      <point x="401" y="34"/>
      <point x="456" y="3"/>
      <point x="501" y="-12" type="curve"/>
      <point x="532" y="50" type="line"/>
      <point x="498" y="63"/>
      <point x="448" y="88"/>
      <point x="407" y="128" type="curve" smooth="yes"/>
      <point x="310" y="220"/>
      <point x="229" y="361"/>
      <point x="229" y="480" type="curve" smooth="yes"/>
      <point x="229" y="558"/>
      <point x="274" y="614"/>
      <point x="331" y="614" type="curve" smooth="yes"/>
      <point x="365" y="614"/>
      <point x="380" y="588"/>
      <point x="380" y="558" type="curve" smooth="yes"/>
      <point x="380" y="389"/>
      <point x="19" y="363"/>
      <point x="19" y="139" type="curve" smooth="yes"/>
      <point x="19" y="46"/>
      <point x="85" y="-12"/>
    </contour>
  </outline>
</glyph>
<glyph name="parenleft" format="1">
  <advance width="600"/>
  <unicode hex="0028"/>
  <outline>
    <contour>
      <point x="344" y="-176" type="curve"/>
      <point x="396" y="-135" type="line"/>
      <point x="309" y="-51"/>
      <point x="266" y="58"/>
      <point x="266" y="185" type="curve" smooth="yes"/>
      <point x="266" y="382"/>
      <point x="355" y="553"/>
      <point x="560" y="687" type="curve"/>
      <point x="524" y="734" type="line"/>
      <point x="321" y="611"/>
      <point x="197" y="422"/>
      <point x="197" y="183" type="curve" smooth="yes"/>
      <point x="197" y="36"/>
      <point x="252" y="-92"/>
    </contour>
  </outline>
</glyph>
<glyph name="parenright" format="1">
  <advance width="600"/>
  <unicode hex="0029"/>
  <outline>
    <contour>
      <point x="73" y="-185" type="line"/>
      <point x="275" y="-63"/>
      <point x="397" y="126"/>
      <point x="397" y="365" type="curve" smooth="yes"/>
      <point x="397" y="512"/>
      <point x="341" y="641"/>
      <point x="248" y="724" type="curve"/>
      <point x="199" y="685" type="line"/>
      <point x="287" y="599"/>
      <point x="328" y="493"/>
      <point x="328" y="363" type="curve" smooth="yes"/>
      <point x="328" y="166"/>
      <point x="243" y="-3"/>
      <point x="36" y="-138" type="curve"/>
    </contour>
  </outline>
</glyph>
<glyph name="asterisk" format="1">
  <advance width="600"/>
  <unicode hex="002A"/>
  <outline>
    <contour>
      <point x="143" y="118" type="line"/>
      <point x="294" y="268" type="line"/>
      <point x="389" y="111" type="line"/>
      <point x="431" y="135" type="line"/>
      <point x="354" y="303" type="line"/>
      <point x="527" y="378" type="line"/>
      <point x="515" y="420" type="line"/>
      <point x="344" y="365" type="line"/>
      <point x="368" y="549" type="line"/>
      <point x="322" y="549" type="line"/>
      <point x="276" y="368" type="line"/>
      <point x="123" y="421" type="line"/>
      <point x="101" y="381" type="line"/>
      <point x="242" y="309" type="line"/>
      <point x="109" y="147" type="line"/>
    </contour>
  </outline>
</glyph>
<glyph name="plus" format="1">
  <advance width="600"/>
  <unicode hex="002B"/>
  <outline>
    <contour>
      <point x="274" y="103" type="line"/>
      <point x="334" y="103" type="line"/>
      <point x="334" y="302" type="line"/>
      <point x="511" y="302" type="line"/>
      <point x="511" y="359" type="line"/>
      <point x="334" y="359" type="line"/>
      <point x="334" y="554" type="line"/>
      <point x="274" y="554" type="line"/>
      <point x="274" y="359" type="line"/>
      <point x="96" y="359" type="line"/>
      <point x="96" y="302" type="line"/>
      <point x="274" y="302" type="line"/>
    </contour>
  </outline>
</glyph>
<glyph name="comma" format="1">
  <advance width="600"/>
  <unicode hex="002C"/>
  <outline>
    <contour>
      <point x="105" y="-203" type="line"/>
      <point x="242" y="-169"/>
      <point x="341" y="-69"/>
      <point x="341" y="60" type="curve" smooth="yes"/>
      <point x="341" y="118"/>
      <point x="315" y="150"/>
      <point x="273" y="150" type="curve" smooth="yes"/>
      <point x="225" y="150"/>
      <point x="185" y="111"/>
      <point x="185" y="63" type="curve" smooth="yes"/>
      <point x="185" y="24"/>
      <point x="211" y="-1"/>
      <point x="245" y="-1" type="curve" smooth="yes"/>
      <point x="266" y="-1"/>
      <point x="287" y="8"/>
      <point x="298" y="21" type="curve"/>
      <point x="272" y="65" type="line"/>
      <point x="261" y="7" type="line"/>
      <point x="250" y="-68"/>
      <point x="189" y="-130"/>
      <point x="94" y="-158" type="curve"/>
    </contour>
  </outline>
</glyph>
<glyph name="zero" format="1">
  <advance width="600"/>
  <unicode hex="0030"/>
  <outline>
    <contour>
      <point x="253" y="-12" type="curve" smooth="yes"/>
      <point x="441" y="-12"/>
      <point x="543" y="206"/>
      <point x="543" y="402" type="curve" smooth="yes"/>
      <point x="543" y="551"/>
      <point x="472" y="650"/>
      <point x="349" y="650" type="curve" smooth="yes"/>
      <point x="161" y="650"/>
      <point x="59" y="430"/>
      <point x="59" y="234" type="curve" smooth="yes"/>
      <point x="59" y="86"/>
      <point x="130" y="-12"/>
    </contour>
    <contour>
      <point x="260" y="49" type="curve" smooth="yes"/>
      <point x="173" y="49"/>
      <point x="131" y="123"/>
      <point x="131" y="242" type="curve" smooth="yes"/>
      <point x="131" y="394"/>
      <point x="208" y="588"/>
      <point x="343" y="588" type="curve" smooth="yes"/>
      <point x="430" y="588"/>
      <point x="471" y="513"/>
      <point x="471" y="395" type="curve" smooth="yes"/>
      <point x="471" y="242"/>
      <point x="395" y="49"/>
    </contour>
    <contour>
      <point x="296" y="260" type="curve" smooth="yes"/>
      <point x="330" y="260"/>
      <point x="360" y="296"/>
      <point x="360" y="339" type="curve" smooth="yes"/>
      <point x="360" y="374"/>
      <point x="341" y="395"/>
      <point x="310" y="395" type="curve" smooth="yes"/>
      <point x="276" y="395"/>
      <point x="246" y="359"/>
      <point x="246" y="316" type="curve" smooth="yes"/>
      <point x="246" y="281"/>
      <point x="265" y="260"/>
    </contour>
  </outline>
</glyph>
<glyph name="two" format="1">
  <advance width="600"/>
  <unicode hex="0032"/>
  <outline>
    <contour>
      <point x="37" y="0" type="line"/>
      <point x="484" y="0" type="line"/>
      <point x="496" y="66" type="line"/>
      <point x="282" y="66" type="line"/>
      <point x="242" y="66"/>
      <point x="205" y="66"/>
      <point x="164" y="64" type="curve"/>
      <point x="375" y="247"/>
      <point x="500" y="354"/>
      <point x="500" y="491" type="curve" smooth="yes"/>
      <point x="500" y="587"/>
      <point x="437" y="650"/>
      <point x="331" y="650" type="curve" smooth="yes"/>
      <point x="243" y="650"/>
      <point x="173" y="606"/>
      <point x="117" y="548" type="curve"/>
      <point x="158" y="502" type="line"/>
      <point x="205" y="552"/>
      <point x="260" y="587"/>
      <point x="319" y="587" type="curve" smooth="yes"/>
      <point x="392" y="587"/>
      <point x="425" y="547"/>
      <point x="425" y="484" type="curve" smooth="yes"/>
      <point x="425" y="363"/>
      <point x="297" y="257"/>
      <point x="44" y="46" type="curve"/>
    </contour>
  </outline>
</glyph>
<glyph name="three" format="1">
  <advance width="600"/>
  <unicode hex="0033"/>
  <outline>
    <contour>
      <point x="247" y="-12" type="curve" smooth="yes"/>
      <point x="382" y="-12"/>
      <point x="484" y="56"/>
      <point x="484" y="183" type="curve" smooth="yes"/>
      <point x="484" y="255"/>
      <point x="439" y="306"/>
      <point x="350" y="327" type="curve"/>
      <point x="350" y="330" type="line"/>
      <point x="466" y="357"/>
      <point x="516" y="419"/>
      <point x="516" y="508" type="curve" smooth="yes"/>
      <point x="516" y="598"/>
      <point x="442" y="650"/>
      <point x="339" y="650" type="curve" smooth="yes"/>
      <point x="260" y="650"/>
      <point x="192" y="619"/>
      <point x="138" y="574" type="curve"/>
      <point x="175" y="526" type="line"/>
      <point x="219" y="562"/>
      <point x="267" y="587"/>
      <point x="327" y="587" type="curve" smooth="yes"/>
      <point x="393" y="587"/>
      <point x="438" y="554"/>
      <point x="438" y="494" type="curve" smooth="yes"/>
      <point x="438" y="418"/>
      <point x="376" y="359"/>
      <point x="217" y="359" type="curve"/>
      <point x="207" y="301" type="line"/>
      <point x="355" y="299"/>
      <point x="408" y="253"/>
      <point x="408" y="180" type="curve" smooth="yes"/>
      <point x="408" y="98"/>
      <point x="337" y="52"/>
      <point x="248" y="52" type="curve" smooth="yes"/>
      <point x="168" y="52"/>
      <point x="113" y="93"/>
      <point x="80" y="137" type="curve"/>
      <point x="30" y="96" type="line"/>
      <point x="75" y="36"/>
      <point x="146" y="-12"/>
    </contour>
  </outline>
</glyph>
<glyph name="four" format="1">
  <advance width="600"/>
  <unicode hex="0034"/>
  <outline>
    <contour>
      <point x="318" y="0" type="line"/>
      <point x="389" y="0" type="line"/>
      <point x="516" y="638" type="line"/>
      <point x="434" y="638" type="line"/>
      <point x="30" y="229" type="line"/>
      <point x="20" y="178" type="line"/>
      <point x="524" y="178" type="line"/>
      <point x="537" y="240" type="line"/>
      <point x="122" y="240" type="line"/>
      <point x="348" y="466" type="line" smooth="yes"/>
      <point x="376" y="496"/>
      <point x="403" y="528"/>
      <point x="429" y="559" type="curve"/>
      <point x="432" y="559" type="line"/>
      <point x="423" y="525"/>
      <point x="414" y="485"/>
      <point x="406" y="448" type="curve" smooth="yes"/>
    </contour>
  </outline>
</glyph>
<glyph name="six" format="1">
  <advance width="600"/>
  <unicode hex="0036"/>
  <outline>
    <contour>
      <point x="273" y="-12" type="curve" smooth="yes"/>
      <point x="408" y="-12"/>
      <point x="508" y="96"/>
      <point x="508" y="228" type="curve" smooth="yes"/>
      <point x="508" y="347"/>
      <point x="428" y="396"/>
      <point x="338" y="396" type="curve" smooth="yes"/>
      <point x="258" y="396"/>
      <point x="181" y="351"/>
      <point x="136" y="292" type="curve"/>
      <point x="132" y="232" type="line"/>
      <point x="188" y="304"/>
      <point x="252" y="340"/>
      <point x="320" y="340" type="curve" smooth="yes"/>
      <point x="382" y="340"/>
      <point x="437" y="303"/>
      <point x="437" y="219" type="curve" smooth="yes"/>
      <point x="437" y="132"/>
      <point x="373" y="48"/>
      <point x="278" y="48" type="curve" smooth="yes"/>
      <point x="197" y="48"/>
      <point x="137" y="108"/>
      <point x="137" y="217" type="curve" smooth="yes"/>
      <point x="137" y="473"/>
      <point x="266" y="586"/>
      <point x="385" y="586" type="curve" smooth="yes"/>
      <point x="435" y="586"/>
      <point x="474" y="569"/>
      <point x="507" y="524" type="curve"/>
      <point x="557" y="565" type="line"/>
      <point x="525" y="614"/>
      <point x="466" y="650"/>
      <point x="390" y="650" type="curve" smooth="yes"/>
      <point x="221" y="650"/>
      <point x="65" y="503"/>
      <point x="65" y="219" type="curve" smooth="yes"/>
      <point x="65" y="78"/>
      <point x="151" y="-12"/>
    </contour>
  </outline>
</glyph>
<glyph name="seven" format="1">
  <advance width="600"/>
  <unicode hex="0037"/>
  <outline>
    <contour>
      <point x="154" y="0" type="curve"/>
      <point x="237" y="0" type="line"/>
      <point x="299" y="258"/>
      <point x="361" y="395"/>
      <point x="568" y="589" type="curve"/>
      <point x="578" y="638" type="line"/>
      <point x="127" y="638" type="line"/>
      <point x="114" y="572" type="line"/>
      <point x="491" y="572" type="line"/>
      <point x="479" y="579" type="line"/>
      <point x="301" y="411"/>
      <point x="217" y="261"/>
    </contour>
  </outline>
</glyph>
<glyph name="eight" format="1">
  <advance width="600"/>
  <unicode hex="0038"/>
  <outline>
    <contour>
      <point x="264" y="-12" type="curve" smooth="yes"/>
      <point x="398" y="-12"/>
      <point x="493" y="59"/>
      <point x="493" y="174" type="curve" smooth="yes"/>
      <point x="493" y="249"/>
      <point x="438" y="292"/>
      <point x="402" y="317" type="curve"/>
      <point x="402" y="321" type="line"/>
      <point x="481" y="361"/>
      <point x="530" y="419"/>
      <point x="530" y="505" type="curve" smooth="yes"/>
      <point x="530" y="600"/>
      <point x="451" y="650"/>
      <point x="356" y="650" type="curve" smooth="yes"/>
      <point x="243" y="650"/>
      <point x="154" y="588"/>
      <point x="154" y="480" type="curve" smooth="yes"/>
      <point x="154" y="426"/>
      <point x="179" y="388"/>
      <point x="221" y="347" type="curve"/>
      <point x="221" y="343" type="line"/>
      <point x="126" y="303"/>
      <point x="63" y="245"/>
      <point x="63" y="149" type="curve" smooth="yes"/>
      <point x="63" y="45"/>
      <point x="149" y="-12"/>
    </contour>
    <contour>
      <point x="358" y="343" type="curve"/>
      <point x="287" y="376"/>
      <point x="223" y="419"/>
      <point x="223" y="485" type="curve" smooth="yes"/>
      <point x="223" y="554"/>
      <point x="282" y="592"/>
      <point x="350" y="592" type="curve" smooth="yes"/>
      <point x="413" y="592"/>
      <point x="463" y="557"/>
      <point x="463" y="493" type="curve" smooth="yes"/>
      <point x="463" y="429"/>
      <point x="420" y="376"/>
    </contour>
    <contour>
      <point x="268" y="46" type="curve" smooth="yes"/>
      <point x="197" y="46"/>
      <point x="132" y="85"/>
      <point x="132" y="162" type="curve" smooth="yes"/>
      <point x="132" y="233"/>
      <point x="183" y="279"/>
      <point x="259" y="318" type="curve"/>
      <point x="341" y="274"/>
      <point x="422" y="237"/>
      <point x="422" y="164" type="curve" smooth="yes"/>
      <point x="422" y="85"/>
      <point x="349" y="46"/>
    </contour>
  </outline>
</glyph>
<glyph name="nine" format="1">
  <advance width="600"/>
  <unicode hex="0039"/>
  <outline>
    <contour>
      <point x="212" y="-12" type="curve" smooth="yes"/>
      <point x="381" y="-12"/>
      <point x="536" y="135"/>
      <point x="536" y="419" type="curve" smooth="yes"/>
      <point x="536" y="560"/>
      <point x="451" y="650"/>
      <point x="328" y="650" type="curve" smooth="yes"/>
      <point x="193" y="650"/>
      <point x="93" y="542"/>
      <point x="93" y="410" type="curve" smooth="yes"/>
      <point x="93" y="291"/>
      <point x="174" y="242"/>
      <point x="263" y="242" type="curve" smooth="yes"/>
      <point x="343" y="242"/>
      <point x="420" y="287"/>
      <point x="466" y="346" type="curve"/>
      <point x="469" y="406" type="line"/>
      <point x="414" y="334"/>
      <point x="349" y="298"/>
      <point x="281" y="298" type="curve" smooth="yes"/>
      <point x="219" y="298"/>
      <point x="164" y="335"/>
      <point x="164" y="419" type="curve" smooth="yes"/>
      <point x="164" y="506"/>
      <point x="228" y="590"/>
      <point x="324" y="590" type="curve" smooth="yes"/>
      <point x="404" y="590"/>
      <point x="464" y="530"/>
      <point x="464" y="421" type="curve" smooth="yes"/>
      <point x="464" y="165"/>
      <point x="335" y="52"/>
      <point x="217" y="52" type="curve" smooth="yes"/>
      <point x="166" y="52"/>
      <point x="127" y="69"/>
      <point x="95" y="114" type="curve"/>
      <point x="44" y="73" type="line"/>
      <point x="77" y="24"/>
      <point x="135" y="-12"/>
    </contour>
  </outline>
</glyph>
<glyph name="less" format="1">
  <advance width="600"/>
  <unicode hex="003C"/>
  <outline>
    <contour>
      <point x="439" y="50" type="line"/>
      <point x="439" y="123" type="line"/>
      <point x="134" y="330" type="line"/>
      <point x="134" y="334" type="line"/>
      <point x="439" y="541" type="line"/>
      <point x="439" y="614" type="line"/>
      <point x="68" y="361" type="line"/>
      <point x="68" y="303" type="line"/>
    </contour>
  </outline>
</glyph>
<glyph name="greater" format="1">
	<unicode hex="003E"/>
	<advance width="600"/>
	<outline>
		<contour>
			<point x="107" y="49" type="line"/>
			<point x="479" y="302" type="line"/>
			<point x="479" y="362" type="line"/>
			<point x="107" y="615" type="line"/>
			<point x="107" y="539" type="line"/>
			<point x="412" y="334" type="line"/>
			<point x="412" y="330" type="line"/>
			<point x="107" y="125" type="line"/>
		</contour>
	</outline>
</glyph>
<glyph name="at" format="1">
  <advance width="600"/>
  <unicode hex="0040"/>
  <outline>
    <contour>
      <point x="247" y="-144" type="curve" smooth="yes"/>
      <point x="320" y="-144"/>
      <point x="383" y="-125"/>
      <point x="440" y="-86" type="curve"/>
      <point x="416" y="-41" type="line"/>
      <point x="370" y="-72"/>
      <point x="322" y="-92"/>
      <point x="258" y="-92" type="curve" smooth="yes"/>
      <point x="149" y="-92"/>
      <point x="86" y="-1"/>
      <point x="86" y="154" type="curve" smooth="yes"/>
      <point x="86" y="425"/>
      <point x="252" y="584"/>
      <point x="406" y="584" type="curve" smooth="yes"/>
      <point x="510" y="584"/>
      <point x="529" y="509"/>
      <point x="509" y="405" type="curve" smooth="yes"/>
      <point x="506" y="385" type="line"/>
      <point x="302" y="362"/>
      <point x="206" y="304"/>
      <point x="206" y="190" type="curve" smooth="yes"/>
      <point x="206" y="124"/>
      <point x="246" y="88"/>
      <point x="307" y="88" type="curve" smooth="yes"/>
      <point x="364" y="88"/>
      <point x="423" y="118"/>
      <point x="461" y="159" type="curve"/>
      <point x="464" y="159" type="line"/>
      <point x="459" y="100" type="line"/>
      <point x="504" y="100" type="line"/>
      <point x="564" y="403" type="line" smooth="yes"/>
      <point x="592" y="547"/>
      <point x="548" y="635"/>
      <point x="415" y="635" type="curve" smooth="yes"/>
      <point x="211" y="635"/>
      <point x="26" y="449"/>
      <point x="26" y="149" type="curve" smooth="yes"/>
      <point x="26" y="-40"/>
      <point x="113" y="-144"/>
    </contour>
    <contour>
      <point x="333" y="141" type="curve" smooth="yes"/>
      <point x="292" y="141"/>
      <point x="269" y="162"/>
      <point x="269" y="204" type="curve" smooth="yes"/>
      <point x="269" y="273"/>
      <point x="335" y="317"/>
      <point x="492" y="339" type="curve"/>
      <point x="466" y="206" type="line"/>
      <point x="420" y="164"/>
      <point x="376" y="141"/>
    </contour>
  </outline>
</glyph>
<glyph name="A" format="1">
  <advance width="600"/>
  <unicode hex="0041"/>
  <outline>
    <contour>
      <point x="-23" y="0" type="line"/>
      <point x="62" y="0" type="line"/>
      <point x="256" y="379" type="line" smooth="yes"/>
      <point x="292" y="452"/>
      <point x="325" y="519"/>
      <point x="362" y="591" type="curve"/>
      <point x="366" y="591" type="line"/>
      <point x="373" y="521"/>
      <point x="379" y="447"/>
      <point x="386" y="377" type="curve" smooth="yes"/>
      <point x="423" y="0" type="line"/>
      <point x="503" y="0" type="line"/>
      <point x="422" y="656" type="line"/>
      <point x="333" y="656" type="line"/>
    </contour>
    <contour>
      <point x="137" y="205" type="line"/>
      <point x="429" y="205" type="line"/>
      <point x="440" y="265" type="line"/>
      <point x="152" y="265" type="line"/>
    </contour>
    <contour>
      <point x="373" y="676" type="move" name="aboveUC"/>
    </contour>
    <contour>
      <point x="448" y="-6" type="move" name="ogonekUC"/>
    </contour>
    <contour>
      <point x="465" y="0" type="move" name="baseLC"/>
    </contour>
    <contour>
      <point x="250" y="-20" type="move" name="belowLC"/>
    </contour>
  </outline>
</glyph>
<glyph name="B" format="1">
  <advance width="600"/>
  <unicode hex="0042"/>
  <outline>
    <contour>
      <point x="41" y="0" type="line"/>
      <point x="248" y="0" type="line" smooth="yes"/>
      <point x="403" y="0"/>
      <point x="520" y="64"/>
      <point x="520" y="210" type="curve" smooth="yes"/>
      <point x="520" y="285"/>
      <point x="467" y="327"/>
      <point x="400" y="343" type="curve"/>
      <point x="400" y="347" type="line"/>
      <point x="473" y="363"/>
      <point x="547" y="422"/>
      <point x="547" y="511" type="curve" smooth="yes"/>
      <point x="547" y="606"/>
      <point x="474" y="656"/>
      <point x="343" y="656" type="curve" smooth="yes"/>
      <point x="173" y="656" type="line"/>
    </contour>
    <contour>
      <point x="194" y="374" type="line"/>
      <point x="238" y="595" type="line"/>
      <point x="324" y="595" type="line" smooth="yes"/>
      <point x="428" y="595"/>
      <point x="467" y="560"/>
      <point x="467" y="500" type="curve" smooth="yes"/>
      <point x="467" y="426"/>
      <point x="408" y="374"/>
      <point x="284" y="374" type="curve" smooth="yes"/>
    </contour>
    <contour>
      <point x="131" y="61" type="line"/>
      <point x="183" y="317" type="line"/>
      <point x="294" y="317" type="line" smooth="yes"/>
      <point x="391" y="317"/>
      <point x="444" y="272"/>
      <point x="444" y="206" type="curve" smooth="yes"/>
      <point x="444" y="104"/>
      <point x="365" y="61"/>
      <point x="241" y="61" type="curve" smooth="yes"/>
    </contour>
    <contour>
      <point x="374" y="676" type="move" name="aboveUC"/>
    </contour>
    <contour>
      <point x="250" y="-20" type="move" name="belowLC"/>
    </contour>
  </outline>
</glyph>
<glyph name="C" format="1">
  <advance width="600"/>
  <unicode hex="0043"/>
  <outline>
    <contour>
      <point x="310" y="-12" type="curve" smooth="yes"/>
      <point x="389" y="-12"/>
      <point x="450" y="22"/>
      <point x="499" y="64" type="curve"/>
      <point x="463" y="114" type="line"/>
      <point x="420" y="78"/>
      <point x="375" y="55"/>
      <point x="324" y="55" type="curve" smooth="yes"/>
      <point x="207" y="55"/>
      <point x="157" y="141"/>
      <point x="157" y="260" type="curve" smooth="yes"/>
      <point x="157" y="419"/>
      <point x="256" y="601"/>
      <point x="412" y="601" type="curve" smooth="yes"/>
      <point x="462" y="601"/>
      <point x="497" y="574"/>
      <point x="523" y="530" type="curve"/>
      <point x="578" y="571" type="line"/>
      <point x="545" y="628"/>
      <point x="491" y="668"/>
      <point x="416" y="668" type="curve" smooth="yes"/>
      <point x="213" y="668"/>
      <point x="77" y="459"/>
      <point x="77" y="253" type="curve" smooth="yes"/>
      <point x="77" y="96"/>
      <point x="160" y="-12"/>
    </contour>
    <contour>
      <point x="407" y="676" type="move" name="aboveUC"/>
    </contour>
    <contour>
      <point x="293" y="0" type="move" name="baseLC"/>
    </contour>
    <contour>
      <point x="291" y="-20" type="move" name="belowLC"/>
    </contour>
  </outline>
</glyph>
<glyph name="D" format="1">
  <advance width="600"/>
  <unicode hex="0044"/>
  <outline>
    <contour>
      <point x="22" y="0" type="line"/>
      <point x="199" y="0" type="line" smooth="yes"/>
      <point x="424" y="0"/>
      <point x="557" y="162"/>
      <point x="557" y="400" type="curve" smooth="yes"/>
      <point x="557" y="563"/>
      <point x="462" y="656"/>
      <point x="284" y="656" type="curve" smooth="yes"/>
      <point x="153" y="656" type="line"/>
    </contour>
    <contour>
      <point x="112" y="64" type="line"/>
      <point x="218" y="593" type="line"/>
      <point x="281" y="593" type="line" smooth="yes"/>
      <point x="409" y="593"/>
      <point x="477" y="521"/>
      <point x="477" y="395" type="curve" smooth="yes"/>
      <point x="477" y="193"/>
      <point x="372" y="64"/>
      <point x="199" y="64" type="curve" smooth="yes"/>
    </contour>
    <contour>
      <point x="364" y="676" type="move" name="aboveUC"/>
    </contour>
    <contour>
      <point x="224" y="-20" type="move" name="belowLC"/>
    </contour>
  </outline>
</glyph>
<glyph name="E" format="1">
  <advance width="600"/>
  <unicode hex="0045"/>
  <outline>
    <contour>
      <point x="60" y="0" type="line"/>
      <point x="473" y="0" type="line"/>
      <point x="486" y="66" type="line"/>
      <point x="150" y="66" type="line"/>
      <point x="201" y="312" type="line"/>
      <point x="473" y="312" type="line"/>
      <point x="486" y="378" type="line"/>
      <point x="213" y="378" type="line"/>
      <point x="255" y="591" type="line"/>
      <point x="582" y="591" type="line"/>
      <point x="595" y="656" type="line"/>
      <point x="192" y="656" type="line"/>
    </contour>
    <contour>
      <point x="406" y="676" type="move" name="aboveUC"/>
    </contour>
    <contour>
      <point x="369" y="0" type="move" name="ogonekUC"/>
    </contour>
    <contour>
      <point x="289" y="0" type="move" name="baseLC"/>
    </contour>
    <contour>
      <point x="279" y="-20" type="move" name="belowLC"/>
    </contour>
  </outline>
</glyph>
<glyph name="F" format="1">
  <advance width="600"/>
  <unicode hex="0046"/>
  <outline>
    <contour>
      <point x="417" y="678" type="move" name="aboveUC"/>
    </contour>
    <contour>
      <point x="125" y="-22" type="move" name="belowLC"/>
    </contour>
    <contour>
      <point x="79" y="0" type="line"/>
      <point x="157" y="0" type="line"/>
      <point x="217" y="297" type="line"/>
      <point x="483" y="297" type="line"/>
      <point x="497" y="363" type="line"/>
      <point x="229" y="363" type="line"/>
      <point x="274" y="591" type="line"/>
      <point x="595" y="591" type="line"/>
      <point x="609" y="656" type="line"/>
      <point x="210" y="656" type="line"/>
    </contour>
  </outline>
</glyph>
<glyph name="G" format="1">
  <advance width="600"/>
  <unicode hex="0047"/>
  <outline>
    <contour>
      <point x="300" y="-12" type="curve" smooth="yes"/>
      <point x="375" y="-12"/>
      <point x="438" y="15"/>
      <point x="486" y="55" type="curve"/>
      <point x="543" y="339" type="line"/>
      <point x="337" y="339" type="line"/>
      <point x="324" y="275" type="line"/>
      <point x="459" y="275" type="line"/>
      <point x="423" y="94" type="line"/>
      <point x="397" y="72"/>
      <point x="359" y="54"/>
      <point x="311" y="54" type="curve" smooth="yes"/>
      <point x="188" y="54"/>
      <point x="141" y="143"/>
      <point x="141" y="260" type="curve" smooth="yes"/>
      <point x="141" y="419"/>
      <point x="239" y="601"/>
      <point x="401" y="601" type="curve" smooth="yes"/>
      <point x="455" y="601"/>
      <point x="491" y="572"/>
      <point x="516" y="530" type="curve"/>
      <point x="571" y="571" type="line"/>
      <point x="538" y="627"/>
      <point x="484" y="668"/>
      <point x="406" y="668" type="curve" smooth="yes"/>
      <point x="194" y="668"/>
      <point x="61" y="461"/>
      <point x="61" y="253" type="curve" smooth="yes"/>
      <point x="61" y="93"/>
      <point x="144" y="-12"/>
    </contour>
    <contour>
      <point x="396" y="676" type="move" name="aboveUC"/>
    </contour>
    <contour>
      <point x="298" y="-20" type="move" name="belowLC"/>
    </contour>
  </outline>
</glyph>
<glyph name="H" format="1">
	<unicode hex="0048"/>
	<advance width="600"/>
	<outline>
		<contour>
			<point x="18" y="0" type="line"/>
			<point x="96" y="0" type="line"/>
			<point x="158" y="312" type="line"/>
			<point x="442" y="312" type="line"/>
			<point x="379" y="0" type="line"/>
			<point x="457" y="0" type="line"/>
			<point x="588" y="656" type="line"/>
			<point x="510" y="656" type="line"/>
			<point x="455" y="379" type="line"/>
			<point x="171" y="379" type="line"/>
			<point x="227" y="656" type="line"/>
			<point x="149" y="656" type="line"/>
		</contour>
		<contour>
			<point name="aboveUC" x="373" y="676" type="move"/>
		</contour>
		<contour>
			<point name="baseLC" x="60" y="0" type="move"/>
		</contour>
		<contour>
			<point name="belowLC" x="234" y="-20" type="move"/>
		</contour>
	</outline>
</glyph>
<glyph name="I" format="1">
  <advance width="600"/>
  <unicode hex="0049"/>
  <outline>
    <contour>
      <point x="373" y="678" type="move" name="aboveUC"/>
    </contour>
    <contour>
      <point x="217" y="0" type="move" name="ogonekUC"/>
    </contour>
    <contour>
      <point x="234" y="-22" type="move" name="belowLC"/>
    </contour>
    <contour>
      <point x="35" y="0" type="line"/>
      <point x="439" y="0" type="line"/>
      <point x="454" y="66" type="line"/>
      <point x="288" y="66" type="line"/>
      <point x="394" y="591" type="line"/>
      <point x="559" y="591" type="line"/>
      <point x="573" y="656" type="line"/>
      <point x="167" y="656" type="line"/>
      <point x="152" y="591" type="line"/>
      <point x="316" y="591" type="line"/>
      <point x="211" y="66" type="line"/>
      <point x="49" y="66" type="line"/>
    </contour>
  </outline>
</glyph>
<glyph name="J" format="1">
  <advance width="600"/>
  <unicode hex="004A"/>
  <outline>
    <contour>
      <point x="209" y="-12" type="curve" smooth="yes"/>
      <point x="349" y="-12"/>
      <point x="423" y="69"/>
      <point x="451" y="211" type="curve" smooth="yes"/>
      <point x="540" y="656" type="line"/>
      <point x="188" y="656" type="line"/>
      <point x="175" y="591" type="line"/>
      <point x="450" y="591" type="line"/>
      <point x="377" y="227" type="line" smooth="yes"/>
      <point x="354" y="111"/>
      <point x="305" y="55"/>
      <point x="212" y="55" type="curve" smooth="yes"/>
      <point x="149" y="55"/>
      <point x="106" y="87"/>
      <point x="75" y="136" type="curve"/>
      <point x="23" y="90" type="line"/>
      <point x="58" y="35"/>
      <point x="119" y="-12"/>
    </contour>
    <contour>
      <point x="371" y="676" type="move" name="aboveUC"/>
    </contour>
    <contour>
      <point x="229" y="-20" type="move" name="belowLC"/>
    </contour>
  </outline>
</glyph>
<glyph name="K" format="1">
  <advance width="600"/>
  <unicode hex="004B"/>
  <outline>
    <contour>
      <point x="618" y="656" type="line"/>
      <point x="530" y="656" type="line"/>
      <point x="186" y="319" type="line"/>
      <point x="182" y="319" type="line"/>
      <point x="251" y="656" type="line"/>
      <point x="173" y="656" type="line"/>
      <point x="42" y="0" type="line"/>
      <point x="119" y="0" type="line"/>
      <point x="162" y="212" type="line"/>
    </contour>
    <contour>
      <point x="281" y="350" type="line"/>
      <point x="432" y="0" type="line"/>
      <point x="519" y="0" type="line"/>
      <point x="338" y="409" type="line"/>
    </contour>
    <contour>
      <point x="386" y="676" type="move" name="aboveUC"/>
    </contour>
    <contour>
      <point x="287" y="-20" type="move" name="belowLC"/>
    </contour>
  </outline>
</glyph>
<glyph name="L" format="1">
  <advance width="600"/>
  <unicode hex="004C"/>
  <outline>
    <contour>
      <point x="275" y="678" type="move" name="aboveUC"/>
    </contour>
    <contour>
      <point x="312" y="-22" type="move" name="belowLC"/>
    </contour>
    <contour>
      <point x="99" y="0" type="line"/>
      <point x="502" y="0" type="line"/>
      <point x="515" y="66" type="line"/>
      <point x="190" y="66" type="line"/>
      <point x="308" y="656" type="line"/>
      <point x="230" y="656" type="line"/>
    </contour>
  </outline>
</glyph>
<glyph name="M" format="1">
  <advance width="600"/>
  <unicode hex="004D"/>
  <outline>
    <contour>
      <point x="373" y="678" type="move" name="aboveUC"/>
    </contour>
    <contour>
      <point x="234" y="-22" type="move" name="belowLC"/>
    </contour>
    <contour>
      <point x="17" y="0" type="line"/>
      <point x="84" y="0" type="line"/>
      <point x="164" y="395" type="line" smooth="yes"/>
      <point x="173" y="443"/>
      <point x="183" y="519"/>
      <point x="190" y="578" type="curve"/>
      <point x="194" y="578" type="line"/>
      <point x="198" y="555"/>
      <point x="206" y="457"/>
      <point x="209" y="436" type="curve" smooth="yes"/>
      <point x="248" y="178" type="line"/>
      <point x="299" y="178" type="line"/>
      <point x="446" y="441" type="line" smooth="yes"/>
      <point x="461" y="467"/>
      <point x="503" y="556"/>
      <point x="513" y="578" type="curve"/>
      <point x="517" y="578" type="line"/>
      <point x="503" y="525"/>
      <point x="478" y="437"/>
      <point x="468" y="386" type="curve" smooth="yes"/>
      <point x="390" y="0" type="line"/>
      <point x="459" y="0" type="line"/>
      <point x="591" y="656" type="line"/>
      <point x="503" y="656" type="line"/>
      <point x="336" y="358" type="line"/>
      <point x="291" y="263" type="line"/>
      <point x="287" y="263" type="line"/>
      <point x="279" y="359" type="line"/>
      <point x="236" y="656" type="line"/>
      <point x="148" y="656" type="line"/>
    </contour>
  </outline>
</glyph>
<glyph name="N" format="1">
  <advance width="600"/>
  <unicode hex="004E"/>
  <outline>
    <contour>
      <point x="25" y="0" type="line"/>
      <point x="99" y="0" type="line"/>
      <point x="168" y="351" type="line" smooth="yes"/>
      <point x="180" y="414"/>
      <point x="190" y="492"/>
      <point x="199" y="558" type="curve"/>
      <point x="203" y="558" type="line"/>
      <point x="240" y="422" type="line"/>
      <point x="375" y="0" type="line"/>
      <point x="453" y="0" type="line"/>
      <point x="584" y="656" type="line"/>
      <point x="510" y="656" type="line"/>
      <point x="440" y="301" type="line" smooth="yes"/>
      <point x="429" y="246"/>
      <point x="418" y="164"/>
      <point x="410" y="99" type="curve"/>
      <point x="406" y="99" type="line"/>
      <point x="369" y="234" type="line"/>
      <point x="235" y="656" type="line"/>
      <point x="156" y="656" type="line"/>
    </contour>
    <contour>
      <point x="373" y="676" type="move" name="aboveUC"/>
    </contour>
    <contour>
      <point x="417" y="0" type="move" name="baseLC"/>
    </contour>
    <contour>
      <point x="249" y="-20" type="move" name="belowLC"/>
    </contour>
  </outline>
</glyph>
<glyph name="O" format="1">
  <advance width="600"/>
  <unicode hex="004F"/>
  <outline>
    <contour>
      <point x="254" y="-12" type="curve" smooth="yes"/>
      <point x="448" y="-12"/>
      <point x="567" y="201"/>
      <point x="567" y="409" type="curve" smooth="yes"/>
      <point x="567" y="565"/>
      <point x="489" y="668"/>
      <point x="355" y="668" type="curve" smooth="yes"/>
      <point x="161" y="668"/>
      <point x="41" y="456"/>
      <point x="41" y="247" type="curve" smooth="yes"/>
      <point x="41" y="92"/>
      <point x="120" y="-12"/>
    </contour>
    <contour>
      <point x="261" y="55" type="curve" smooth="yes"/>
      <point x="166" y="55"/>
      <point x="120" y="128"/>
      <point x="120" y="244" type="curve" smooth="yes"/>
      <point x="120" y="414"/>
      <point x="205" y="601"/>
      <point x="348" y="601" type="curve" smooth="yes"/>
      <point x="443" y="601"/>
      <point x="488" y="528"/>
      <point x="488" y="413" type="curve" smooth="yes"/>
      <point x="488" y="242"/>
      <point x="404" y="55"/>
    </contour>
    <contour>
      <point x="373" y="676" type="move" name="aboveUC"/>
    </contour>
    <contour>
      <point x="366" y="646" type="move" name="hornLC"/>
    </contour>
    <contour>
      <point x="238" y="0" type="move" name="ogonekUC"/>
    </contour>
    <contour>
      <point x="238" y="0" type="move" name="baseLC"/>
    </contour>
  </outline>
</glyph>
<glyph name="Q" format="1">
  <advance width="600"/>
  <unicode hex="0051"/>
  <outline>
    <contour>
      <point x="254" y="-12" type="curve" smooth="yes"/>
      <point x="448" y="-12"/>
      <point x="567" y="201"/>
      <point x="567" y="409" type="curve" smooth="yes"/>
      <point x="567" y="565"/>
      <point x="489" y="668"/>
      <point x="355" y="668" type="curve" smooth="yes"/>
      <point x="161" y="668"/>
      <point x="41" y="456"/>
      <point x="41" y="247" type="curve" smooth="yes"/>
      <point x="41" y="92"/>
      <point x="120" y="-12"/>
    </contour>
    <contour>
      <point x="262" y="52" type="curve" smooth="yes"/>
      <point x="166" y="52"/>
      <point x="120" y="125"/>
      <point x="120" y="244" type="curve" smooth="yes"/>
      <point x="120" y="414"/>
      <point x="205" y="601"/>
      <point x="348" y="601" type="curve" smooth="yes"/>
      <point x="443" y="601"/>
      <point x="488" y="528"/>
      <point x="488" y="413" type="curve" smooth="yes"/>
      <point x="488" y="239"/>
      <point x="404" y="52"/>
    </contour>
    <contour>
      <point x="398" y="-164" type="curve" smooth="yes"/>
      <point x="439" y="-164"/>
      <point x="476" y="-157"/>
      <point x="500" y="-147" type="curve"/>
      <point x="486" y="-84" type="line"/>
      <point x="465" y="-93"/>
      <point x="440" y="-99"/>
      <point x="406" y="-99" type="curve" smooth="yes"/>
      <point x="336" y="-99"/>
      <point x="284" y="-61"/>
      <point x="272" y="12" type="curve"/>
      <point x="194" y="16" type="line"/>
      <point x="218" y="-108"/>
      <point x="298" y="-164"/>
    </contour>
    <contour>
      <point x="373" y="676" type="move" name="aboveUC"/>
    </contour>
  </outline>
</glyph>
<glyph name="R" format="1">
  <advance width="600"/>
  <unicode hex="0052"/>
  <outline>
    <contour>
      <point x="370" y="678" type="move" name="aboveUC"/>
    </contour>
    <contour>
      <point x="260" y="-22" type="move" name="belowLC"/>
    </contour>
    <contour>
      <point x="35" y="0" type="line"/>
      <point x="112" y="0" type="line"/>
      <point x="168" y="278" type="line"/>
      <point x="284" y="278" type="line" smooth="yes"/>
      <point x="427" y="278"/>
      <point x="550" y="356"/>
      <point x="550" y="501" type="curve" smooth="yes"/>
      <point x="550" y="613"/>
      <point x="466" y="656"/>
      <point x="343" y="656" type="curve" smooth="yes"/>
      <point x="166" y="656" type="line"/>
    </contour>
    <contour>
      <point x="181" y="341" type="line"/>
      <point x="230" y="594" type="line"/>
      <point x="325" y="594" type="line" smooth="yes"/>
      <point x="422" y="594"/>
      <point x="471" y="565"/>
      <point x="471" y="493" type="curve" smooth="yes"/>
      <point x="471" y="400"/>
      <point x="401" y="341"/>
      <point x="276" y="341" type="curve" smooth="yes"/>
    </contour>
    <contour>
      <point x="274" y="290" type="line"/>
      <point x="387" y="0" type="line"/>
      <point x="473" y="0" type="line"/>
      <point x="341" y="322" type="line"/>
    </contour>
  </outline>
</glyph>
<glyph name="S" format="1">
  <advance width="600"/>
  <unicode hex="0053"/>
  <outline>
    <contour>
      <point x="261" y="-12" type="curve" smooth="yes"/>
      <point x="386" y="-12"/>
      <point x="484" y="61"/>
      <point x="484" y="184" type="curve"/>
      <point x="484" y="263"/>
      <point x="439" y="308"/>
      <point x="377" y="347" type="curve" smooth="yes"/>
      <point x="298" y="394" type="line" smooth="yes"/>
      <point x="256" y="418"/>
      <point x="221" y="448"/>
      <point x="221" y="498" type="curve" smooth="yes"/>
      <point x="221" y="553"/>
      <point x="269" y="602"/>
      <point x="339" y="602" type="curve" smooth="yes"/>
      <point x="404" y="602"/>
      <point x="453" y="568"/>
      <point x="485" y="528" type="curve"/>
      <point x="537" y="571" type="line"/>
      <point x="498" y="625"/>
      <point x="428" y="668"/>
      <point x="343" y="668" type="curve" smooth="yes"/>
      <point x="226" y="668"/>
      <point x="142" y="592"/>
      <point x="142" y="492" type="curve" smooth="yes"/>
      <point x="142" y="415"/>
      <point x="192" y="366"/>
      <point x="248" y="332" type="curve" smooth="yes"/>
      <point x="324" y="287" type="line" smooth="yes"/>
      <point x="373" y="258"/>
      <point x="405" y="227"/>
      <point x="405" y="177" type="curve" smooth="yes"/>
      <point x="405" y="102"/>
      <point x="343" y="55"/>
      <point x="261" y="55" type="curve" smooth="yes"/>
      <point x="186" y="55"/>
      <point x="130" y="89"/>
      <point x="90" y="149" type="curve"/>
      <point x="37" y="106" type="line"/>
      <point x="82" y="34"/>
      <point x="156" y="-12"/>
    </contour>
    <contour>
      <point x="358" y="676" type="move" name="aboveUC"/>
    </contour>
    <contour>
      <point x="260" y="0" type="move" name="baseLC"/>
    </contour>
    <contour>
      <point x="260" y="-20" type="move" name="belowLC"/>
    </contour>
  </outline>
</glyph>
<glyph name="T" format="1">
  <advance width="600"/>
  <unicode hex="0054"/>
  <outline>
    <contour>
      <point x="198" y="0" type="line"/>
      <point x="276" y="0" type="line"/>
      <point x="393" y="589" type="line"/>
      <point x="611" y="589" type="line"/>
      <point x="625" y="656" type="line"/>
      <point x="111" y="656" type="line"/>
      <point x="98" y="589" type="line"/>
      <point x="316" y="589" type="line"/>
    </contour>
    <contour>
      <point x="373" y="676" type="move" name="aboveUC"/>
    </contour>
    <contour>
      <point x="239" y="0" type="move" name="baseLC"/>
    </contour>
    <contour>
      <point x="235" y="-20" type="move" name="belowLC"/>
    </contour>
  </outline>
</glyph>
<glyph name="U" format="1">
  <advance width="600"/>
  <unicode hex="0055"/>
  <outline>
    <contour>
      <point x="255" y="-12" type="curve" smooth="yes"/>
      <point x="375" y="-12"/>
      <point x="468" y="53"/>
      <point x="506" y="244" type="curve" smooth="yes"/>
      <point x="588" y="656" type="line"/>
      <point x="512" y="656" type="line"/>
      <point x="432" y="252" type="line" smooth="yes"/>
      <point x="403" y="105"/>
      <point x="340" y="55"/>
      <point x="265" y="55" type="curve" smooth="yes"/>
      <point x="183" y="55"/>
      <point x="141" y="106"/>
      <point x="141" y="195" type="curve" smooth="yes"/>
      <point x="141" y="220"/>
      <point x="145" y="246"/>
      <point x="152" y="277" type="curve" smooth="yes"/>
      <point x="227" y="656" type="line"/>
      <point x="149" y="656" type="line"/>
      <point x="74" y="279" type="line" smooth="yes"/>
      <point x="67" y="245"/>
      <point x="64" y="217"/>
      <point x="64" y="186" type="curve" smooth="yes"/>
      <point x="64" y="64"/>
      <point x="132" y="-12"/>
    </contour>
    <contour>
      <point x="373" y="676" type="move" name="aboveUC"/>
    </contour>
    <contour>
      <point x="455" y="666" type="move" name="hornLC"/>
    </contour>
    <contour>
      <point x="238" y="0" type="move" name="ogonekUC"/>
    </contour>
    <contour>
      <point x="238" y="0" type="move" name="baseLC"/>
    </contour>
    <contour>
      <point x="233" y="-20" type="move" name="belowLC"/>
    </contour>
  </outline>
</glyph>
<glyph name="V" format="1">
	<unicode hex="0056"/>
	<advance width="600"/>
	<outline>
		<contour>
			<point x="188" y="0" type="line"/>
			<point x="281" y="0" type="line"/>
			<point x="632" y="656" type="line"/>
			<point x="547" y="656" type="line"/>
			<point x="361" y="292" type="line" smooth="yes"/>
			<point x="329" y="230"/>
			<point x="287" y="145"/>
			<point x="254" y="76" type="curve"/>
			<point x="250" y="76" type="line"/>
			<point x="244" y="148"/>
			<point x="239" y="221"/>
			<point x="233" y="292" type="curve" smooth="yes"/>
			<point x="202" y="656" type="line"/>
			<point x="122" y="656" type="line"/>
		</contour>
		<contour>
			<point name="aboveUC" x="369" y="676" type="move"/>
		</contour>
		<contour>
			<point name="belowLC" x="233" y="-20" type="move"/>
		</contour>
	</outline>
</glyph>
<glyph name="W" format="1">
  <advance width="600"/>
  <unicode hex="0057"/>
  <outline>
    <contour>
      <point x="369" y="678" type="move" name="aboveUC"/>
    </contour>
    <contour>
      <point x="236" y="-22" type="move" name="belowLC"/>
    </contour>
    <contour>
      <point x="54" y="0" type="line"/>
      <point x="148" y="0" type="line"/>
      <point x="267" y="270" type="line" smooth="yes"/>
      <point x="283" y="310"/>
      <point x="303" y="359"/>
      <point x="313" y="391" type="curve"/>
      <point x="318" y="391" type="line"/>
      <point x="318" y="360"/>
      <point x="321" y="310"/>
      <point x="324" y="271" type="curve" smooth="yes"/>
      <point x="346" y="0" type="line"/>
      <point x="438" y="0" type="line"/>
      <point x="642" y="657" type="line"/>
      <point x="568" y="657" type="line"/>
      <point x="436" y="209" type="line" smooth="yes"/>
      <point x="432" y="189"/>
      <point x="405" y="90"/>
      <point x="401" y="71" type="curve"/>
      <point x="395" y="71" type="line"/>
      <point x="394" y="116"/>
      <point x="387" y="203"/>
      <point x="383" y="249" type="curve" smooth="yes"/>
      <point x="360" y="474" type="line"/>
      <point x="302" y="474" type="line"/>
      <point x="179" y="206" type="line" smooth="yes"/>
      <point x="171" y="187"/>
      <point x="130" y="87"/>
      <point x="123" y="67" type="curve"/>
      <point x="119" y="67" type="line"/>
      <point x="122" y="86"/>
      <point x="129" y="144"/>
      <point x="133" y="204" type="curve" smooth="yes"/>
      <point x="168" y="657" type="line"/>
      <point x="94" y="657" type="line"/>
    </contour>
  </outline>
</glyph>
<glyph name="X" format="1">
  <advance width="600"/>
  <unicode hex="0058"/>
  <outline>
    <contour>
      <point x="-4" y="0" type="line"/>
      <point x="82" y="0" type="line"/>
      <point x="219" y="181" type="line" smooth="yes"/>
      <point x="240" y="209"/>
      <point x="265" y="247"/>
      <point x="290" y="283" type="curve"/>
      <point x="294" y="283" type="line"/>
      <point x="304" y="254"/>
      <point x="321" y="205"/>
      <point x="331" y="182" type="curve" smooth="yes"/>
      <point x="403" y="0" type="line"/>
      <point x="487" y="0" type="line"/>
      <point x="351" y="332" type="line"/>
      <point x="602" y="657" type="line"/>
      <point x="516" y="657" type="line"/>
      <point x="384" y="484" type="line" smooth="yes"/>
      <point x="370" y="464"/>
      <point x="340" y="418"/>
      <point x="319" y="386" type="curve"/>
      <point x="315" y="386" type="line"/>
      <point x="306" y="415"/>
      <point x="293" y="456"/>
      <point x="282" y="485" type="curve" smooth="yes"/>
      <point x="214" y="657" type="line"/>
      <point x="130" y="657" type="line"/>
      <point x="257" y="344" type="line"/>
    </contour>
    <contour>
      <point x="369" y="676" type="move" name="aboveUC"/>
    </contour>
    <contour>
      <point x="448" y="0" type="move" name="baseLC"/>
    </contour>
    <contour>
      <point x="240" y="-20" type="move" name="belowLC"/>
    </contour>
  </outline>
</glyph>
<glyph name="Y" format="1">
  <advance width="600"/>
  <unicode hex="0059"/>
  <outline>
    <contour>
      <point x="199" y="0" type="line"/>
      <point x="276" y="0" type="line"/>
      <point x="321" y="221" type="line"/>
      <point x="626" y="657" type="line"/>
      <point x="544" y="657" type="line"/>
      <point x="404" y="455" type="line" smooth="yes"/>
      <point x="367" y="401"/>
      <point x="325" y="335"/>
      <point x="299" y="292" type="curve"/>
      <point x="295" y="292" type="line"/>
      <point x="284" y="338"/>
      <point x="266" y="401"/>
      <point x="250" y="455" type="curve" smooth="yes"/>
      <point x="189" y="657" type="line"/>
      <point x="109" y="657" type="line"/>
      <point x="246" y="229" type="line"/>
    </contour>
    <contour>
      <point x="360" y="676" type="move" name="aboveUC"/>
    </contour>
    <contour>
      <point x="239" y="0" type="move" name="ogonekUC"/>
    </contour>
    <contour>
      <point x="234" y="-20" type="move" name="belowLC"/>
    </contour>
  </outline>
</glyph>
<glyph name="Z" format="1">
  <advance width="600"/>
  <unicode hex="005A"/>
  <outline>
    <contour>
      <point x="115" y="43" type="line"/>
      <point x="576" y="610" type="line"/>
      <point x="586" y="657" type="line"/>
      <point x="140" y="657" type="line"/>
      <point x="127" y="592" type="line"/>
      <point x="521" y="592" type="line"/>
      <point x="493" y="621" type="line"/>
      <point x="26" y="46" type="line"/>
      <point x="17" y="0" type="line"/>
      <point x="484" y="0" type="line"/>
      <point x="498" y="65" type="line"/>
      <point x="93" y="65" type="line"/>
    </contour>
    <contour>
      <point x="360" y="676" type="move" name="aboveUC"/>
    </contour>
    <contour>
      <point x="266" y="-20" type="move" name="belowLC"/>
    </contour>
  </outline>
</glyph>
<glyph name="backslash" format="1">
  <advance width="600"/>
  <unicode hex="005C"/>
  <outline>
    <contour>
      <point x="344" y="-160" type="line"/>
      <point x="407" y="-160" type="line"/>
      <point x="254" y="710" type="line"/>
      <point x="191" y="710" type="line"/>
    </contour>
  </outline>
</glyph>
<glyph name="bracketright" format="1">
  <advance width="600"/>
  <unicode hex="005D"/>
  <outline>
    <contour>
      <point x="15" y="-152" type="line"/>
      <point x="287" y="-152" type="line"/>
      <point x="459" y="708" type="line"/>
      <point x="187" y="708" type="line"/>
      <point x="178" y="663" type="line"/>
      <point x="390" y="663" type="line"/>
      <point x="237" y="-107" type="line"/>
      <point x="24" y="-107" type="line"/>
    </contour>
  </outline>
</glyph>
<glyph name="asciicircum" format="1">
  <advance width="600"/>
  <unicode hex="005E"/>
  <outline>
    <contour>
      <point x="55" y="285" type="line"/>
      <point x="121" y="285" type="line"/>
      <point x="190" y="466" type="line"/>
      <point x="239" y="599" type="line"/>
      <point x="243" y="599" type="line"/>
      <point x="292" y="466" type="line"/>
      <point x="360" y="285" type="line"/>
      <point x="427" y="285" type="line"/>
      <point x="275" y="670" type="line"/>
      <point x="207" y="670" type="line"/>
    </contour>
  </outline>
</glyph>
<glyph name="underscore" format="1">
	<unicode hex="005F"/>
	<advance width="600"/>
	<outline>
		<contour>
			<point x="-28" y="-137" type="line"/>
			<point x="452" y="-137" type="line"/>
			<point x="465" y="-71" type="line"/>
			<point x="-15" y="-71" type="line"/>
		</contour>
	</outline>
</glyph>
<glyph name="a" format="1">
  <advance width="600"/>
  <unicode hex="0061"/>
  <outline>
    <contour>
      <point x="219" y="-12" type="curve" smooth="yes"/>
      <point x="281" y="-12"/>
      <point x="346" y="22"/>
      <point x="397" y="74" type="curve"/>
      <point x="401" y="74" type="line"/>
      <point x="393" y="0" type="line"/>
      <point x="456" y="0" type="line"/>
      <point x="553" y="486" type="line"/>
      <point x="491" y="486" type="line"/>
      <point x="472" y="425" type="line"/>
      <point x="468" y="425" type="line"/>
      <point x="441" y="469"/>
      <point x="388" y="498"/>
      <point x="319" y="498" type="curve" smooth="yes"/>
      <point x="171" y="498"/>
      <point x="52" y="348"/>
      <point x="52" y="174" type="curve" smooth="yes"/>
      <point x="52" y="53"/>
      <point x="118" y="-12"/>
    </contour>
    <contour>
      <point x="242" y="52" type="curve" smooth="yes"/>
      <point x="174" y="52"/>
      <point x="131" y="94"/>
      <point x="131" y="186" type="curve" smooth="yes"/>
      <point x="131" y="316"/>
      <point x="218" y="434"/>
      <point x="329" y="434" type="curve" smooth="yes"/>
      <point x="375" y="434"/>
      <point x="421" y="413"/>
      <point x="454" y="362" type="curve"/>
      <point x="409" y="146" type="line"/>
      <point x="356" y="85"/>
      <point x="295" y="52"/>
    </contour>
    <contour>
      <point x="399" y="0" type="move" name="ogonekLC"/>
    </contour>
    <contour>
      <point x="354" y="507" type="move" name="aboveLC"/>
    </contour>
    <contour>
      <point x="423" y="0" type="move" name="baseLC"/>
    </contour>
    <contour>
      <point x="249" y="-20" type="move" name="belowLC"/>
    </contour>
  </outline>
</glyph>
<glyph name="b" format="1">
  <advance width="600"/>
  <unicode hex="0062"/>
  <outline>
    <contour>
      <point x="218" y="729" type="move" name="aboveUC"/>
    </contour>
    <contour>
      <point x="240" y="-22" type="move" name="belowLC"/>
    </contour>
    <contour>
      <point x="270" y="-12" type="curve" smooth="yes"/>
      <point x="422" y="-12"/>
      <point x="537" y="129"/>
      <point x="537" y="305" type="curve" smooth="yes"/>
      <point x="537" y="429"/>
      <point x="473" y="498"/>
      <point x="370" y="498" type="curve" smooth="yes"/>
      <point x="307" y="498"/>
      <point x="243" y="460"/>
      <point x="194" y="415" type="curve"/>
      <point x="191" y="415" type="line"/>
      <point x="216" y="522" type="line"/>
      <point x="255" y="712" type="line"/>
      <point x="178" y="712" type="line"/>
      <point x="36" y="0" type="line"/>
      <point x="100" y="0" type="line"/>
      <point x="118" y="61" type="line"/>
      <point x="121" y="61" type="line"/>
      <point x="151" y="18"/>
      <point x="206" y="-12"/>
    </contour>
    <contour>
      <point x="262" y="52" type="curve" smooth="yes"/>
      <point x="215" y="52"/>
      <point x="171" y="71"/>
      <point x="137" y="122" type="curve"/>
      <point x="181" y="340" type="line"/>
      <point x="232" y="399"/>
      <point x="296" y="434"/>
      <point x="345" y="434" type="curve" smooth="yes"/>
      <point x="414" y="434"/>
      <point x="458" y="388"/>
      <point x="458" y="294" type="curve" smooth="yes"/>
      <point x="458" y="163"/>
      <point x="374" y="52"/>
    </contour>
  </outline>
</glyph>
<glyph name="c" format="1">
  <advance width="600"/>
  <unicode hex="0063"/>
  <outline>
    <contour>
      <point x="291" y="-12" type="curve" smooth="yes"/>
      <point x="364" y="-12"/>
      <point x="436" y="20"/>
      <point x="487" y="67" type="curve"/>
      <point x="456" y="119" type="line"/>
      <point x="411" y="80"/>
      <point x="358" y="52"/>
      <point x="301" y="52" type="curve" smooth="yes"/>
      <point x="211" y="52"/>
      <point x="144" y="104"/>
      <point x="144" y="211" type="curve" smooth="yes"/>
      <point x="144" y="336"/>
      <point x="249" y="434"/>
      <point x="350" y="434" type="curve" smooth="yes"/>
      <point x="413" y="434"/>
      <point x="458" y="412"/>
      <point x="494" y="367" type="curve"/>
      <point x="543" y="411" type="line"/>
      <point x="508" y="457"/>
      <point x="445" y="498"/>
      <point x="360" y="498" type="curve" smooth="yes"/>
      <point x="208" y="498"/>
      <point x="67" y="379"/>
      <point x="67" y="202" type="curve" smooth="yes"/>
      <point x="67" y="60"/>
      <point x="164" y="-12"/>
    </contour>
    <contour>
      <point x="364" y="507" type="move" name="aboveLC"/>
    </contour>
    <contour>
      <point x="274" y="0" type="move" name="baseLC"/>
    </contour>
    <contour>
      <point x="271" y="-20" type="move" name="belowLC"/>
    </contour>
  </outline>
</glyph>
<glyph name="d" format="1">
  <advance width="600"/>
  <unicode hex="0064"/>
  <outline>
    <contour>
      <point x="555" y="729" type="move" name="aboveUC"/>
    </contour>
    <contour>
      <point x="249" y="-22" type="move" name="belowLC"/>
    </contour>
    <contour>
      <point x="218" y="-12" type="curve" smooth="yes"/>
      <point x="281" y="-12"/>
      <point x="346" y="23"/>
      <point x="397" y="74" type="curve"/>
      <point x="401" y="74" type="line"/>
      <point x="393" y="1" type="line"/>
      <point x="456" y="1" type="line"/>
      <point x="600" y="713" type="line"/>
      <point x="523" y="713" type="line"/>
      <point x="485" y="523" type="line"/>
      <point x="469" y="428" type="line"/>
      <point x="466" y="428" type="line"/>
      <point x="438" y="470"/>
      <point x="388" y="498"/>
      <point x="319" y="498" type="curve" smooth="yes"/>
      <point x="171" y="498"/>
      <point x="52" y="348"/>
      <point x="52" y="174" type="curve" smooth="yes"/>
      <point x="52" y="53"/>
      <point x="118" y="-12"/>
    </contour>
    <contour>
      <point x="242" y="52" type="curve" smooth="yes"/>
      <point x="174" y="52"/>
      <point x="131" y="95"/>
      <point x="131" y="186" type="curve" smooth="yes"/>
      <point x="131" y="316"/>
      <point x="218" y="434"/>
      <point x="329" y="434" type="curve" smooth="yes"/>
      <point x="375" y="434"/>
      <point x="420" y="414"/>
      <point x="453" y="362" type="curve"/>
      <point x="409" y="147" type="line"/>
      <point x="356" y="86"/>
      <point x="295" y="52"/>
    </contour>
  </outline>
</glyph>
<glyph name="e" format="1">
  <advance width="600"/>
  <unicode hex="0065"/>
  <outline>
    <contour>
      <point x="270" y="-12" type="curve" smooth="yes"/>
      <point x="355" y="-12"/>
      <point x="431" y="21"/>
      <point x="480" y="60" type="curve"/>
      <point x="451" y="112" type="line"/>
      <point x="406" y="76"/>
      <point x="349" y="49"/>
      <point x="285" y="49" type="curve" smooth="yes"/>
      <point x="197" y="49"/>
      <point x="139" y="104"/>
      <point x="139" y="202" type="curve" smooth="yes"/>
      <point x="139" y="343"/>
      <point x="242" y="437"/>
      <point x="336" y="437" type="curve" smooth="yes"/>
      <point x="408" y="437"/>
      <point x="453" y="390"/>
      <point x="453" y="314" type="curve" smooth="yes"/>
      <point x="453" y="299"/>
      <point x="451" y="283"/>
      <point x="447" y="269" type="curve"/>
      <point x="479" y="284" type="line"/>
      <point x="132" y="284" type="line"/>
      <point x="122" y="224" type="line"/>
      <point x="512" y="224" type="line"/>
      <point x="517" y="237"/>
      <point x="525" y="277"/>
      <point x="525" y="311" type="curve" smooth="yes"/>
      <point x="525" y="419"/>
      <point x="459" y="498"/>
      <point x="340" y="498" type="curve" smooth="yes"/>
      <point x="193" y="498"/>
      <point x="63" y="373"/>
      <point x="63" y="198" type="curve" smooth="yes"/>
      <point x="63" y="62"/>
      <point x="144" y="-12"/>
    </contour>
    <contour>
      <point x="361" y="0" type="move" name="ogonekLC"/>
    </contour>
    <contour>
      <point x="346" y="507" type="move" name="aboveLC"/>
    </contour>
    <contour>
      <point x="266" y="0" type="move" name="baseLC"/>
    </contour>
    <contour>
      <point x="262" y="-20" type="move" name="belowLC"/>
    </contour>
  </outline>
</glyph>
<glyph name="g" format="1">
  <advance width="600"/>
  <unicode hex="0067"/>
  <outline>
    <contour>
      <point x="201" y="-217" type="curve" smooth="yes"/>
      <point x="323" y="-217"/>
      <point x="424" y="-161"/>
      <point x="451" y="-25" type="curve" smooth="yes"/>
      <point x="553" y="486" type="line"/>
      <point x="492" y="486" type="line"/>
      <point x="472" y="425" type="line"/>
      <point x="468" y="425" type="line"/>
      <point x="441" y="469"/>
      <point x="388" y="498"/>
      <point x="319" y="498" type="curve" smooth="yes"/>
      <point x="174" y="498"/>
      <point x="55" y="357"/>
      <point x="55" y="186" type="curve" smooth="yes"/>
      <point x="55" y="70"/>
      <point x="121" y="4"/>
      <point x="224" y="4" type="curve" smooth="yes"/>
      <point x="286" y="4"/>
      <point x="350" y="36"/>
      <point x="397" y="82" type="curve"/>
      <point x="401" y="82" type="line"/>
      <point x="379" y="-21" type="line" smooth="yes"/>
      <point x="358" y="-115"/>
      <point x="288" y="-154"/>
      <point x="202" y="-154" type="curve" smooth="yes"/>
      <point x="148" y="-154"/>
      <point x="91" y="-136"/>
      <point x="52" y="-102" type="curve"/>
      <point x="16" y="-157" type="line"/>
      <point x="60" y="-192"/>
      <point x="121" y="-217"/>
    </contour>
    <contour>
      <point x="247" y="68" type="curve" smooth="yes"/>
      <point x="176" y="68"/>
      <point x="134" y="110"/>
      <point x="134" y="198" type="curve" smooth="yes"/>
      <point x="134" y="324"/>
      <point x="223" y="434"/>
      <point x="328" y="434" type="curve" smooth="yes"/>
      <point x="376" y="434"/>
      <point x="419" y="412"/>
      <point x="453" y="361" type="curve"/>
      <point x="409" y="154" type="line"/>
      <point x="358" y="99"/>
      <point x="300" y="68"/>
    </contour>
    <contour>
      <point x="354" y="507" type="move" name="aboveLC"/>
    </contour>
    <contour>
      <point x="219" y="-219" type="move" name="belowLC"/>
    </contour>
  </outline>
</glyph>
<glyph name="h" format="1">
  <advance width="600"/>
  <unicode hex="0068"/>
  <outline>
    <contour>
      <point x="36" y="0" type="line"/>
      <point x="112" y="0" type="line"/>
      <point x="175" y="314" type="line"/>
      <point x="242" y="388"/>
      <point x="309" y="432"/>
      <point x="374" y="432" type="curve" smooth="yes"/>
      <point x="424" y="432"/>
      <point x="451" y="405"/>
      <point x="451" y="357" type="curve" smooth="yes"/>
      <point x="451" y="335"/>
      <point x="448" y="314"/>
      <point x="442" y="289" type="curve" smooth="yes"/>
      <point x="384" y="0" type="line"/>
      <point x="461" y="0" type="line"/>
      <point x="521" y="297" type="line" smooth="yes"/>
      <point x="526" y="324"/>
      <point x="530" y="349"/>
      <point x="530" y="377" type="curve" smooth="yes"/>
      <point x="530" y="450"/>
      <point x="491" y="498"/>
      <point x="405" y="498" type="curve" smooth="yes"/>
      <point x="319" y="498"/>
      <point x="250" y="447"/>
      <point x="190" y="389" type="curve"/>
      <point x="186" y="389" type="line"/>
      <point x="202" y="450" type="line"/>
      <point x="255" y="712" type="line"/>
      <point x="178" y="712" type="line"/>
    </contour>
    <contour>
      <point x="217" y="736" type="move" name="aboveUC"/>
    </contour>
    <contour>
      <point x="75" y="0" type="move" name="baseLC"/>
    </contour>
    <contour>
      <point x="255" y="-20" type="move" name="belowLC"/>
    </contour>
  </outline>
</glyph>
<glyph name="i" format="1">
  <advance width="600"/>
  <unicode hex="0069"/>
  <outline>
    <contour>
      <point x="364" y="0" type="move" name="ogonekLC"/>
    </contour>
    <contour>
      <point x="325" y="708" type="move" name="aboveLC"/>
    </contour>
    <contour>
      <point x="333" y="-22" type="move" name="belowLC"/>
    </contour>
    <component base="dotaccentcmb" xOffset="-19"/>
    <component base="dotlessi"/>
  </outline>
</glyph>
<glyph name="j" format="1">
  <advance width="600"/>
  <unicode hex="006A"/>
  <outline>
    <contour>
      <point x="356" y="708" type="move" name="aboveLC"/>
    </contour>
    <contour>
      <point x="172" y="-218" type="move" name="belowLC"/>
    </contour>
    <component base="dotlessj"/>
    <component base="dotaccentcmb" xOffset="55"/>
  </outline>
</glyph>
<glyph name="k" format="1">
  <advance width="600"/>
  <unicode hex="006B"/>
  <outline>
    <contour>
      <point x="49" y="0" type="line"/>
      <point x="126" y="0" type="line"/>
      <point x="152" y="128" type="line"/>
      <point x="331" y="270" type="line"/>
      <point x="585" y="486" type="line"/>
      <point x="492" y="486" type="line"/>
      <point x="175" y="228" type="line"/>
      <point x="171" y="228" type="line"/>
      <point x="268" y="712" type="line"/>
      <point x="192" y="712" type="line"/>
    </contour>
    <contour>
      <point x="296" y="257" type="line"/>
      <point x="429" y="0" type="line"/>
      <point x="509" y="0" type="line"/>
      <point x="348" y="308" type="line"/>
    </contour>
    <contour>
      <point x="229" y="733" type="move" name="aboveUC"/>
    </contour>
    <contour>
      <point x="279" y="-20" type="move" name="belowLC"/>
    </contour>
  </outline>
</glyph>
<glyph name="m" format="1">
  <advance width="600"/>
  <unicode hex="006D"/>
  <outline>
    <contour>
      <point x="0" y="0" type="line"/>
      <point x="72" y="0" type="line"/>
      <point x="141" y="352" type="line"/>
      <point x="179" y="406"/>
      <point x="211" y="432"/>
      <point x="249" y="432" type="curve" smooth="yes"/>
      <point x="274" y="432"/>
      <point x="288" y="419"/>
      <point x="288" y="386" type="curve" smooth="yes"/>
      <point x="288" y="375"/>
      <point x="287" y="364"/>
      <point x="284" y="348" type="curve" smooth="yes"/>
      <point x="213" y="0" type="line"/>
      <point x="277" y="0" type="line"/>
      <point x="347" y="352" type="line"/>
      <point x="384" y="406"/>
      <point x="417" y="432"/>
      <point x="454" y="432" type="curve" smooth="yes"/>
      <point x="479" y="432"/>
      <point x="492" y="419"/>
      <point x="492" y="386" type="curve" smooth="yes"/>
      <point x="492" y="375"/>
      <point x="491" y="364"/>
      <point x="488" y="348" type="curve" smooth="yes"/>
      <point x="418" y="0" type="line"/>
      <point x="489" y="0" type="line"/>
      <point x="561" y="358" type="line" smooth="yes"/>
      <point x="565" y="382"/>
      <point x="567" y="396"/>
      <point x="567" y="413" type="curve" smooth="yes"/>
      <point x="567" y="471"/>
      <point x="539" y="498"/>
      <point x="492" y="498" type="curve" smooth="yes"/>
      <point x="444" y="498"/>
      <point x="394" y="472"/>
      <point x="344" y="404" type="curve"/>
      <point x="356" y="415" type="line"/>
      <point x="354" y="474"/>
      <point x="328" y="498"/>
      <point x="283" y="498" type="curve" smooth="yes"/>
      <point x="233" y="498"/>
      <point x="189" y="469"/>
      <point x="150" y="420" type="curve"/>
      <point x="147" y="420" type="line"/>
      <point x="154" y="486" type="line"/>
      <point x="97" y="486" type="line"/>
    </contour>
    <contour>
      <point x="350" y="506" type="move" name="aboveLC"/>
    </contour>
    <contour>
      <point x="453" y="0" type="move" name="baseLC"/>
    </contour>
    <contour>
      <point x="244" y="-20" type="move" name="belowLC"/>
    </contour>
  </outline>
</glyph>
<glyph name="n" format="1">
  <advance width="600"/>
  <unicode hex="006E"/>
  <outline>
    <contour>
      <point x="36" y="0" type="line"/>
      <point x="112" y="0" type="line"/>
      <point x="175" y="314" type="line"/>
      <point x="242" y="388"/>
      <point x="309" y="432"/>
      <point x="374" y="432" type="curve" smooth="yes"/>
      <point x="424" y="432"/>
      <point x="451" y="405"/>
      <point x="451" y="357" type="curve" smooth="yes"/>
      <point x="451" y="335"/>
      <point x="448" y="314"/>
      <point x="442" y="289" type="curve" smooth="yes"/>
      <point x="384" y="0" type="line"/>
      <point x="461" y="0" type="line"/>
      <point x="521" y="297" type="line" smooth="yes"/>
      <point x="526" y="324"/>
      <point x="530" y="349"/>
      <point x="530" y="377" type="curve" smooth="yes"/>
      <point x="530" y="450"/>
      <point x="491" y="498"/>
      <point x="405" y="498" type="curve" smooth="yes"/>
      <point x="318" y="498"/>
      <point x="245" y="445"/>
      <point x="187" y="387" type="curve"/>
      <point x="183" y="387" type="line"/>
      <point x="195" y="486" type="line"/>
      <point x="133" y="486" type="line"/>
    </contour>
    <contour>
      <point x="351" y="507" type="move" name="aboveLC"/>
    </contour>
    <contour>
      <point x="421" y="0" type="move" name="baseLC"/>
    </contour>
    <contour>
      <point x="255" y="-20" type="move" name="belowLC"/>
    </contour>
  </outline>
</glyph>
<glyph name="o" format="1">
  <advance width="600"/>
  <unicode hex="006F"/>
  <outline>
    <contour>
      <point x="250" y="-12" type="curve" smooth="yes"/>
      <point x="398" y="-12"/>
      <point x="529" y="115"/>
      <point x="529" y="285" type="curve" smooth="yes"/>
      <point x="529" y="411"/>
      <point x="453" y="498"/>
      <point x="326" y="498" type="curve" smooth="yes"/>
      <point x="177" y="498"/>
      <point x="46" y="371"/>
      <point x="46" y="201" type="curve" smooth="yes"/>
      <point x="46" y="75"/>
      <point x="122" y="-12"/>
    </contour>
    <contour>
      <point x="255" y="52" type="curve" smooth="yes"/>
      <point x="173" y="52"/>
      <point x="124" y="112"/>
      <point x="124" y="206" type="curve" smooth="yes"/>
      <point x="124" y="332"/>
      <point x="217" y="434"/>
      <point x="320" y="434" type="curve" smooth="yes"/>
      <point x="403" y="434"/>
      <point x="452" y="375"/>
      <point x="452" y="280" type="curve" smooth="yes"/>
      <point x="452" y="154"/>
      <point x="358" y="52"/>
    </contour>
    <contour>
      <point x="351" y="486" type="move" name="hornLC"/>
    </contour>
    <contour>
      <point x="339" y="507" type="move" name="aboveLC"/>
    </contour>
    <contour>
      <point x="239" y="0" type="move" name="ogonekLC"/>
    </contour>
    <contour>
      <point x="239" y="0" type="move" name="baseLC"/>
    </contour>
    <contour>
      <point x="234" y="-20" type="move" name="belowLC"/>
    </contour>
  </outline>
</glyph>
<glyph name="q" format="1">
  <advance width="600"/>
  <unicode hex="0071"/>
  <outline>
    <contour>
      <point x="339" y="-205" type="line"/>
      <point x="415" y="-205" type="line"/>
      <point x="553" y="486" type="line"/>
      <point x="492" y="486" type="line"/>
      <point x="472" y="425" type="line"/>
      <point x="468" y="425" type="line"/>
      <point x="441" y="469"/>
      <point x="388" y="498"/>
      <point x="319" y="498" type="curve" smooth="yes"/>
      <point x="171" y="498"/>
      <point x="52" y="348"/>
      <point x="52" y="174" type="curve" smooth="yes"/>
      <point x="52" y="53"/>
      <point x="118" y="-12"/>
      <point x="218" y="-12" type="curve" smooth="yes"/>
      <point x="280" y="-12"/>
      <point x="346" y="22"/>
      <point x="397" y="74" type="curve"/>
      <point x="401" y="74" type="line"/>
      <point x="392" y="54"/>
      <point x="374" y="-36"/>
      <point x="372" y="-44" type="curve" smooth="yes"/>
    </contour>
    <contour>
      <point x="242" y="52" type="curve" smooth="yes"/>
      <point x="174" y="52"/>
      <point x="131" y="95"/>
      <point x="131" y="186" type="curve" smooth="yes"/>
      <point x="131" y="316"/>
      <point x="218" y="434"/>
      <point x="329" y="434" type="curve" smooth="yes"/>
      <point x="375" y="434"/>
      <point x="420" y="413"/>
      <point x="453" y="362" type="curve"/>
      <point x="409" y="146" type="line"/>
      <point x="356" y="85"/>
      <point x="295" y="52"/>
    </contour>
    <contour>
      <point x="355" y="507" type="move" name="aboveLC"/>
    </contour>
    <contour>
      <point x="373" y="-219" type="move" name="belowLC"/>
    </contour>
  </outline>
</glyph>
<glyph name="r" format="1">
  <advance width="600"/>
  <unicode hex="0072"/>
  <outline>
    <contour>
      <point x="97" y="0" type="line"/>
      <point x="173" y="0" type="line"/>
      <point x="224" y="253" type="line"/>
      <point x="291" y="357"/>
      <point x="369" y="428"/>
      <point x="444" y="428" type="curve" smooth="yes"/>
      <point x="476" y="428"/>
      <point x="500" y="423"/>
      <point x="525" y="407" type="curve"/>
      <point x="555" y="473" type="line"/>
      <point x="532" y="489"/>
      <point x="500" y="498"/>
      <point x="457" y="498" type="curve" smooth="yes"/>
      <point x="373" y="498"/>
      <point x="294" y="430"/>
      <point x="240" y="347" type="curve"/>
      <point x="236" y="347" type="line"/>
      <point x="257" y="486" type="line"/>
      <point x="194" y="486" type="line"/>
    </contour>
    <contour>
      <point x="376" y="507" type="move" name="aboveLC"/>
    </contour>
    <contour>
      <point x="137" y="0" type="move" name="baseLC"/>
    </contour>
    <contour>
      <point x="137" y="-20" type="move" name="belowLC"/>
    </contour>
  </outline>
</glyph>
<glyph name="s" format="1">
  <advance width="600"/>
  <unicode hex="0073"/>
  <outline>
    <contour>
      <point x="270" y="-12" type="curve" smooth="yes"/>
      <point x="384" y="-12"/>
      <point x="475" y="30"/>
      <point x="475" y="135" type="curve" smooth="yes"/>
      <point x="475" y="214"/>
      <point x="412" y="246"/>
      <point x="321" y="277" type="curve" smooth="yes"/>
      <point x="243" y="304"/>
      <point x="201" y="324"/>
      <point x="201" y="369" type="curve" smooth="yes"/>
      <point x="201" y="412"/>
      <point x="239" y="438"/>
      <point x="302" y="438" type="curve" smooth="yes"/>
      <point x="374" y="438"/>
      <point x="430" y="406"/>
      <point x="470" y="372" type="curve"/>
      <point x="513" y="419" type="line"/>
      <point x="472" y="460"/>
      <point x="403" y="498"/>
      <point x="310" y="498" type="curve" smooth="yes"/>
      <point x="211" y="498"/>
      <point x="128" y="453"/>
      <point x="128" y="360" type="curve" smooth="yes"/>
      <point x="128" y="293"/>
      <point x="173" y="252"/>
      <point x="274" y="218" type="curve" smooth="yes"/>
      <point x="355" y="191"/>
      <point x="402" y="172"/>
      <point x="402" y="125" type="curve" smooth="yes"/>
      <point x="402" y="71"/>
      <point x="352" y="48"/>
      <point x="284" y="48" type="curve" smooth="yes"/>
      <point x="214" y="48"/>
      <point x="147" y="72"/>
      <point x="99" y="126" type="curve"/>
      <point x="55" y="77" type="line"/>
      <point x="102" y="23"/>
      <point x="186" y="-12"/>
    </contour>
    <contour>
      <point x="337" y="507" type="move" name="aboveLC"/>
    </contour>
    <contour>
      <point x="262" y="0" type="move" name="baseLC"/>
    </contour>
    <contour>
      <point x="261" y="-20" type="move" name="belowLC"/>
    </contour>
  </outline>
</glyph>
<glyph name="t" format="1">
  <advance width="600"/>
  <unicode hex="0074"/>
  <outline>
    <contour>
      <point x="307" y="-12" type="curve" smooth="yes"/>
      <point x="375" y="-12"/>
      <point x="436" y="6"/>
      <point x="478" y="32" type="curve"/>
      <point x="453" y="87" type="line"/>
      <point x="418" y="68"/>
      <point x="375" y="52"/>
      <point x="327" y="52" type="curve" smooth="yes"/>
      <point x="272" y="52"/>
      <point x="237" y="82"/>
      <point x="237" y="143" type="curve" smooth="yes"/>
      <point x="237" y="157"/>
      <point x="238" y="170"/>
      <point x="242" y="188" type="curve" smooth="yes"/>
      <point x="291" y="424" type="line"/>
      <point x="531" y="424" type="line"/>
      <point x="544" y="486" type="line"/>
      <point x="304" y="486" type="line"/>
      <point x="332" y="620" type="line"/>
      <point x="267" y="620" type="line"/>
      <point x="231" y="486" type="line"/>
      <point x="85" y="481" type="line"/>
      <point x="74" y="424" type="line"/>
      <point x="215" y="424" type="line"/>
      <point x="167" y="190" type="line" smooth="yes"/>
      <point x="163" y="167"/>
      <point x="159" y="148"/>
      <point x="159" y="127" type="curve" smooth="yes"/>
      <point x="159" y="44"/>
      <point x="205" y="-12"/>
    </contour>
    <contour>
      <point x="297" y="635" type="move" name="aboveLC"/>
    </contour>
    <contour>
      <point x="308" y="0" type="move" name="baseLC"/>
    </contour>
    <contour>
      <point x="308" y="-20" type="move" name="belowLC"/>
    </contour>
  </outline>
</glyph>
<glyph name="u" format="1">
	<unicode hex="0075"/>
	<advance width="600"/>
	<outline>
		<contour>
			<point x="182" y="-12" type="curve" smooth="yes"/>
			<point x="268" y="-12"/>
			<point x="339" y="42"/>
			<point x="398" y="99" type="curve"/>
			<point x="402" y="99" type="line"/>
			<point x="389" y="0" type="line"/>
			<point x="452" y="0" type="line"/>
			<point x="549" y="486" type="line"/>
			<point x="472" y="486" type="line"/>
			<point x="409" y="172" type="line"/>
			<point x="343" y="98"/>
			<point x="277" y="54"/>
			<point x="211" y="54" type="curve" smooth="yes"/>
			<point x="161" y="54"/>
			<point x="134" y="81"/>
			<point x="134" y="129" type="curve" smooth="yes"/>
			<point x="134" y="151"/>
			<point x="138" y="172"/>
			<point x="143" y="197" type="curve" smooth="yes"/>
			<point x="201" y="486" type="line"/>
			<point x="125" y="486" type="line"/>
			<point x="65" y="189" type="line" smooth="yes"/>
			<point x="60" y="162"/>
			<point x="56" y="137"/>
			<point x="56" y="109" type="curve" smooth="yes"/>
			<point x="56" y="36"/>
			<point x="95" y="-12"/>
		</contour>
		<contour>
			<point name="ogonekLC" x="394" y="0" type="move"/>
		</contour>
		<contour>
			<point name="aboveLC" x="337" y="507" type="move"/>
		</contour>
		<contour>
			<point name="baseLC" x="420" y="0" type="move"/>
		</contour>
		<contour>
			<point name="belowLC" x="249" y="-20" type="move"/>
		</contour>
	</outline>
</glyph>
<glyph name="w" format="1">
  <advance width="600"/>
  <unicode hex="0077"/>
  <outline>
    <contour>
      <point x="330" y="508" type="move" name="aboveLC"/>
    </contour>
    <contour>
      <point x="240" y="-22" type="move" name="belowLC"/>
    </contour>
    <contour>
      <point x="58" y="0" type="line"/>
      <point x="151" y="0" type="line"/>
      <point x="261" y="254" type="line" smooth="yes"/>
      <point x="280" y="303"/>
      <point x="296" y="345"/>
      <point x="315" y="394" type="curve"/>
      <point x="317" y="394" type="line"/>
      <point x="318" y="345"/>
      <point x="317" y="302"/>
      <point x="318" y="256" type="curve" smooth="yes"/>
      <point x="328" y="0" type="line"/>
      <point x="419" y="0" type="line"/>
      <point x="622" y="486" type="line"/>
      <point x="548" y="486" type="line"/>
      <point x="432" y="199" type="line" smooth="yes"/>
      <point x="414" y="152"/>
      <point x="398" y="109"/>
      <point x="380" y="63" type="curve"/>
      <point x="376" y="63" type="line"/>
      <point x="376" y="109"/>
      <point x="375" y="152"/>
      <point x="374" y="199" type="curve" smooth="yes"/>
      <point x="361" y="459" type="line"/>
      <point x="296" y="459" type="line"/>
      <point x="182" y="199" type="line" smooth="yes"/>
      <point x="162" y="153"/>
      <point x="145" y="108"/>
      <point x="127" y="63" type="curve"/>
      <point x="123" y="63" type="line"/>
      <point x="124" y="109"/>
      <point x="125" y="153"/>
      <point x="125" y="199" type="curve" smooth="yes"/>
      <point x="122" y="486" type="line"/>
      <point x="47" y="486" type="line"/>
    </contour>
  </outline>
</glyph>
<glyph name="x" format="1">
  <advance width="600"/>
  <unicode hex="0078"/>
  <outline>
    <contour>
      <point x="10" y="0" type="line"/>
      <point x="100" y="0" type="line"/>
      <point x="208" y="121" type="line" smooth="yes"/>
      <point x="215" y="130"/>
      <point x="268" y="190"/>
      <point x="275" y="201" type="curve"/>
      <point x="280" y="201" type="line"/>
      <point x="285" y="191"/>
      <point x="321" y="125"/>
      <point x="324" y="117" type="curve" smooth="yes"/>
      <point x="388" y="0" type="line"/>
      <point x="470" y="0" type="line"/>
      <point x="331" y="246" type="line"/>
      <point x="554" y="486" type="line"/>
      <point x="464" y="486" type="line"/>
      <point x="365" y="375" type="line" smooth="yes"/>
      <point x="360" y="368"/>
      <point x="305" y="300"/>
      <point x="300" y="292" type="curve"/>
      <point x="296" y="292" type="line"/>
      <point x="293" y="301"/>
      <point x="261" y="367"/>
      <point x="257" y="375" type="curve" smooth="yes"/>
      <point x="199" y="486" type="line"/>
      <point x="119" y="486" type="line"/>
      <point x="244" y="253" type="line"/>
    </contour>
    <contour>
      <point x="330" y="507" type="move" name="aboveLC"/>
    </contour>
    <contour>
      <point x="426" y="0" type="move" name="baseLC"/>
    </contour>
    <contour>
      <point x="242" y="-20" type="move" name="belowLC"/>
    </contour>
  </outline>
</glyph>
<glyph name="y" format="1">
  <advance width="600"/>
  <unicode hex="0079"/>
  <outline>
    <contour>
      <point x="33" y="-209" type="curve" smooth="yes"/>
      <point x="132" y="-209"/>
      <point x="187" y="-159"/>
      <point x="252" y="-52" type="curve" smooth="yes"/>
      <point x="583" y="486" type="line"/>
      <point x="503" y="486" type="line"/>
      <point x="340" y="214" type="line" smooth="yes"/>
      <point x="315" y="171"/>
      <point x="281" y="110"/>
      <point x="258" y="66" type="curve"/>
      <point x="254" y="66" type="line"/>
      <point x="246" y="110"/>
      <point x="234" y="171"/>
      <point x="225" y="214" type="curve" smooth="yes"/>
      <point x="161" y="486" type="line"/>
      <point x="87" y="486" type="line"/>
      <point x="208" y="-2" type="line"/>
      <point x="178" y="-50" type="line" smooth="yes"/>
      <point x="131" y="-123"/>
      <point x="98" y="-150"/>
      <point x="38" y="-150" type="curve" smooth="yes"/>
      <point x="17" y="-150"/>
      <point x="-4" y="-144"/>
      <point x="-20" y="-136" type="curve"/>
      <point x="-44" y="-191" type="line"/>
      <point x="-24" y="-203"/>
      <point x="2" y="-209"/>
    </contour>
    <contour>
      <point x="137" y="-141" type="move" name="ogonekLC"/>
    </contour>
    <contour>
      <point x="330" y="507" type="move" name="aboveLC"/>
    </contour>
    <contour>
      <point x="190" y="-219" type="move" name="belowLC"/>
    </contour>
  </outline>
</glyph>
<glyph name="z" format="1">
  <advance width="600"/>
  <unicode hex="007A"/>
  <outline>
    <contour>
      <point x="34" y="0" type="line"/>
      <point x="463" y="0" type="line"/>
      <point x="476" y="62" type="line"/>
      <point x="149" y="62" type="line"/>
      <point x="528" y="440" type="line"/>
      <point x="536" y="486" type="line"/>
      <point x="126" y="486" type="line"/>
      <point x="113" y="425" type="line"/>
      <point x="422" y="425" type="line"/>
      <point x="42" y="46" type="line"/>
    </contour>
    <contour>
      <point x="334" y="507" type="move" name="aboveLC"/>
    </contour>
    <contour>
      <point x="260" y="-20" type="move" name="belowLC"/>
    </contour>
  </outline>
</glyph>
<glyph name="asciitilde" format="1">
  <advance width="600"/>
  <unicode hex="007E"/>
  <outline>
    <contour>
      <point x="387" y="260" type="curve" smooth="yes"/>
      <point x="428" y="260"/>
      <point x="472" y="287"/>
      <point x="506" y="349" type="curve"/>
      <point x="462" y="377" type="line"/>
      <point x="441" y="334"/>
      <point x="417" y="316"/>
      <point x="389" y="316" type="curve" smooth="yes"/>
      <point x="335" y="316"/>
      <point x="292" y="402"/>
      <point x="218" y="402" type="curve" smooth="yes"/>
      <point x="177" y="402"/>
      <point x="133" y="375"/>
      <point x="99" y="313" type="curve"/>
      <point x="143" y="285" type="line"/>
      <point x="164" y="328"/>
      <point x="188" y="346"/>
      <point x="216" y="346" type="curve" smooth="yes"/>
      <point x="269" y="346"/>
      <point x="313" y="260"/>
    </contour>
  </outline>
</glyph>
<glyph name="cent" format="1">
  <advance width="600"/>
  <unicode hex="00A2"/>
  <outline>
    <contour>
      <point x="287" y="71" type="curve" smooth="yes"/>
      <point x="355" y="71"/>
      <point x="419" y="100"/>
      <point x="467" y="141" type="curve"/>
      <point x="436" y="190" type="line"/>
      <point x="400" y="161"/>
      <point x="355" y="135"/>
      <point x="302" y="135" type="curve" smooth="yes"/>
      <point x="223" y="135"/>
      <point x="176" y="186"/>
      <point x="176" y="272" type="curve" smooth="yes"/>
      <point x="176" y="395"/>
      <point x="263" y="486"/>
      <point x="378" y="486" type="curve" smooth="yes"/>
      <point x="427" y="486"/>
      <point x="452" y="466"/>
      <point x="477" y="438" type="curve"/>
      <point x="523" y="483" type="line"/>
      <point x="496" y="514"/>
      <point x="451" y="549"/>
      <point x="388" y="549" type="curve" smooth="yes"/>
      <point x="232" y="549"/>
      <point x="100" y="443"/>
      <point x="100" y="263" type="curve" smooth="yes"/>
      <point x="100" y="144"/>
      <point x="176" y="71"/>
    </contour>
    <contour>
      <point x="231" y="-36" type="line"/>
      <point x="280" y="-36" type="line"/>
      <point x="420" y="653" type="line"/>
      <point x="373" y="653" type="line"/>
    </contour>
  </outline>
</glyph>
<glyph name="sterling" format="1">
  <advance width="600"/>
  <unicode hex="00A3"/>
  <outline>
    <contour>
      <point x="22" y="0" type="line"/>
      <point x="456" y="0" type="line"/>
      <point x="469" y="65" type="line"/>
      <point x="154" y="65" type="line"/>
      <point x="154" y="70" type="line"/>
      <point x="228" y="119"/>
      <point x="264" y="181"/>
      <point x="264" y="273" type="curve" smooth="yes"/>
      <point x="263" y="324"/>
      <point x="252" y="386"/>
      <point x="252" y="433" type="curve" smooth="yes"/>
      <point x="252" y="539"/>
      <point x="308" y="588"/>
      <point x="389" y="588" type="curve" smooth="yes"/>
      <point x="442" y="588"/>
      <point x="477" y="561"/>
      <point x="503" y="521" type="curve"/>
      <point x="555" y="561" type="line"/>
      <point x="521" y="611"/>
      <point x="467" y="650"/>
      <point x="390" y="650" type="curve" smooth="yes"/>
      <point x="266" y="650"/>
      <point x="180" y="575"/>
      <point x="180" y="439" type="curve" smooth="yes"/>
      <point x="180" y="387"/>
      <point x="194" y="316"/>
      <point x="194" y="262" type="curve" smooth="yes"/>
      <point x="194" y="173"/>
      <point x="144" y="95"/>
      <point x="31" y="46" type="curve"/>
    </contour>
    <contour>
      <point x="75" y="289" type="line"/>
      <point x="438" y="289" type="line"/>
      <point x="448" y="338" type="line"/>
      <point x="190" y="338" type="line"/>
      <point x="85" y="334" type="line"/>
    </contour>
  </outline>
</glyph>
<glyph name="currency" format="1">
  <advance width="600"/>
  <unicode hex="00A4"/>
  <outline>
    <contour>
      <point x="65" y="84" type="line"/>
      <point x="162" y="169" type="line"/>
      <point x="188" y="146"/>
      <point x="225" y="135"/>
      <point x="263" y="135" type="curve" smooth="yes"/>
      <point x="308" y="135"/>
      <point x="350" y="148"/>
      <point x="385" y="170" type="curve"/>
      <point x="455" y="78" type="line"/>
      <point x="505" y="120" type="line"/>
      <point x="437" y="208" type="line"/>
      <point x="475" y="248"/>
      <point x="498" y="304"/>
      <point x="498" y="364" type="curve" smooth="yes"/>
      <point x="498" y="394"/>
      <point x="492" y="420"/>
      <point x="482" y="442" type="curve"/>
      <point x="584" y="527" type="line"/>
      <point x="546" y="574" type="line"/>
      <point x="444" y="488" type="line"/>
      <point x="417" y="512"/>
      <point x="380" y="524"/>
      <point x="341" y="524" type="curve" smooth="yes"/>
      <point x="297" y="524"/>
      <point x="255" y="511"/>
      <point x="220" y="488" type="curve"/>
      <point x="152" y="575" type="line"/>
      <point x="101" y="531" type="line"/>
      <point x="167" y="448" type="line"/>
      <point x="129" y="408"/>
      <point x="106" y="354"/>
      <point x="106" y="293" type="curve" smooth="yes"/>
      <point x="106" y="261"/>
      <point x="112" y="234"/>
      <point x="123" y="211" type="curve"/>
      <point x="24" y="128" type="line"/>
    </contour>
    <contour>
      <point x="274" y="193" type="curve" smooth="yes"/>
      <point x="211" y="193"/>
      <point x="177" y="236"/>
      <point x="177" y="302" type="curve" smooth="yes"/>
      <point x="177" y="397"/>
      <point x="253" y="468"/>
      <point x="331" y="468" type="curve" smooth="yes"/>
      <point x="390" y="468"/>
      <point x="427" y="425"/>
      <point x="427" y="357" type="curve" smooth="yes"/>
      <point x="427" y="261"/>
      <point x="352" y="193"/>
    </contour>
  </outline>
</glyph>
<glyph name="yen" format="1">
  <advance width="600"/>
  <unicode hex="00A5"/>
  <outline>
    <contour>
      <point x="202" y="0" type="line"/>
      <point x="279" y="0" type="line"/>
      <point x="332" y="276" type="line"/>
      <point x="610" y="638" type="line"/>
      <point x="528" y="638" type="line"/>
      <point x="399" y="462" type="line" smooth="yes"/>
      <point x="368" y="418"/>
      <point x="335" y="368"/>
      <point x="306" y="323" type="curve"/>
      <point x="303" y="323" type="line"/>
      <point x="290" y="371"/>
      <point x="275" y="418"/>
      <point x="260" y="462" type="curve" smooth="yes"/>
      <point x="201" y="638" type="line"/>
      <point x="124" y="638" type="line"/>
      <point x="257" y="280" type="line"/>
    </contour>
    <contour>
      <point x="50" y="159" type="line"/>
      <point x="493" y="159" type="line"/>
      <point x="503" y="200" type="line"/>
      <point x="60" y="200" type="line"/>
    </contour>
    <contour>
      <point x="72" y="270" type="line"/>
      <point x="515" y="270" type="line"/>
      <point x="524" y="311" type="line"/>
      <point x="82" y="311" type="line"/>
    </contour>
  </outline>
</glyph>
<glyph name="brokenbar" format="1">
  <advance width="600"/>
  <unicode hex="00A6"/>
  <outline>
    <contour>
      <point x="265" y="-250" type="line"/>
      <point x="335" y="-250" type="line"/>
      <point x="335" y="190" type="line"/>
      <point x="265" y="190" type="line"/>
    </contour>
    <contour>
      <point x="265" y="310" type="line"/>
      <point x="335" y="310" type="line"/>
      <point x="335" y="750" type="line"/>
      <point x="265" y="750" type="line"/>
    </contour>
  </outline>
</glyph>
<glyph name="section" format="1">
  <advance width="600"/>
  <unicode hex="00A7"/>
  <outline>
    <contour>
      <point x="234" y="-58" type="curve" smooth="yes"/>
      <point x="329" y="-58"/>
      <point x="399" y="-2"/>
      <point x="399" y="87" type="curve" smooth="yes"/>
      <point x="399" y="165"/>
      <point x="335" y="202"/>
      <point x="268" y="241" type="curve" smooth="yes"/>
      <point x="207" y="275"/>
      <point x="177" y="301"/>
      <point x="177" y="349" type="curve" smooth="yes"/>
      <point x="177" y="405"/>
      <point x="223" y="433"/>
      <point x="276" y="452" type="curve"/>
      <point x="246" y="491" type="line"/>
      <point x="172" y="466"/>
      <point x="109" y="418"/>
      <point x="109" y="337" type="curve" smooth="yes"/>
      <point x="109" y="264"/>
      <point x="157" y="223"/>
      <point x="224" y="186" type="curve" smooth="yes"/>
      <point x="280" y="155"/>
      <point x="329" y="130"/>
      <point x="329" y="79" type="curve" smooth="yes"/>
      <point x="329" y="32"/>
      <point x="287" y="2"/>
      <point x="235" y="2" type="curve" smooth="yes"/>
      <point x="187" y="2"/>
      <point x="142" y="30"/>
      <point x="107" y="70" type="curve"/>
      <point x="65" y="22" type="line"/>
      <point x="112" y="-29"/>
      <point x="171" y="-58"/>
    </contour>
    <contour>
      <point x="361" y="135" type="line"/>
      <point x="440" y="165"/>
      <point x="492" y="204"/>
      <point x="492" y="290" type="curve" smooth="yes"/>
      <point x="492" y="371"/>
      <point x="429" y="413"/>
      <point x="368" y="450" type="curve" smooth="yes"/>
      <point x="312" y="484"/>
      <point x="273" y="507"/>
      <point x="273" y="554" type="curve" smooth="yes"/>
      <point x="273" y="600"/>
      <point x="308" y="624"/>
      <point x="352" y="624" type="curve" smooth="yes"/>
      <point x="397" y="624"/>
      <point x="429" y="599"/>
      <point x="457" y="565" type="curve"/>
      <point x="503" y="607" type="line"/>
      <point x="464" y="651"/>
      <point x="414" y="684"/>
      <point x="354" y="684" type="curve" smooth="yes"/>
      <point x="267" y="684"/>
      <point x="202" y="629"/>
      <point x="202" y="548" type="curve" smooth="yes"/>
      <point x="202" y="467"/>
      <point x="262" y="434"/>
      <point x="329" y="394" type="curve" smooth="yes"/>
      <point x="380" y="363"/>
      <point x="423" y="333"/>
      <point x="423" y="278" type="curve" smooth="yes"/>
      <point x="423" y="219"/>
      <point x="384" y="194"/>
      <point x="325" y="177" type="curve"/>
    </contour>
  </outline>
</glyph>
<glyph name="copyright" format="1">
  <advance width="600"/>
  <unicode hex="00A9"/>
  <outline>
    <contour>
      <point x="235" y="-11" type="curve" smooth="yes"/>
      <point x="434" y="-11"/>
      <point x="581" y="161"/>
      <point x="581" y="400" type="curve" smooth="yes"/>
      <point x="581" y="555"/>
      <point x="498" y="653"/>
      <point x="370" y="653" type="curve" smooth="yes"/>
      <point x="176" y="655"/>
      <point x="25" y="486"/>
      <point x="25" y="246" type="curve" smooth="yes"/>
      <point x="25" y="89"/>
      <point x="107" y="-11"/>
    </contour>
    <contour>
      <point x="243" y="30" type="curve" smooth="yes"/>
      <point x="133" y="30"/>
      <point x="70" y="116"/>
      <point x="70" y="250" type="curve" smooth="yes"/>
      <point x="70" y="459"/>
      <point x="198" y="613"/>
      <point x="361" y="613" type="curve" smooth="yes"/>
      <point x="472" y="613"/>
      <point x="536" y="527"/>
      <point x="536" y="395" type="curve" smooth="yes"/>
      <point x="536" y="188"/>
      <point x="407" y="30"/>
    </contour>
    <contour>
      <point x="280" y="129" type="curve" smooth="yes"/>
      <point x="329" y="129"/>
      <point x="373" y="151"/>
      <point x="405" y="180" type="curve"/>
      <point x="380" y="220" type="line"/>
      <point x="354" y="197"/>
      <point x="328" y="181"/>
      <point x="291" y="182" type="curve" smooth="yes"/>
      <point x="242" y="182"/>
      <point x="216" y="220"/>
      <point x="216" y="283" type="curve" smooth="yes"/>
      <point x="216" y="387"/>
      <point x="282" y="464"/>
      <point x="351" y="464" type="curve" smooth="yes"/>
      <point x="381" y="464"/>
      <point x="399" y="453"/>
      <point x="418" y="427" type="curve"/>
      <point x="455" y="459" type="line"/>
      <point x="434" y="491"/>
      <point x="404" y="514"/>
      <point x="356" y="514" type="curve" smooth="yes"/>
      <point x="253" y="514"/>
      <point x="154" y="425"/>
      <point x="154" y="280" type="curve" smooth="yes"/>
      <point x="154" y="186"/>
      <point x="204" y="129"/>
    </contour>
  </outline>
</glyph>
<glyph name="logicalnot" format="1">
  <advance width="600"/>
  <unicode hex="00AC"/>
  <outline>
    <contour>
      <point x="449" y="103" type="line"/>
      <point x="509" y="103" type="line"/>
      <point x="509" y="359" type="line"/>
      <point x="99" y="359" type="line"/>
      <point x="99" y="302" type="line"/>
      <point x="449" y="302" type="line"/>
    </contour>
  </outline>
</glyph>
<glyph name="registered" format="1">
  <advance width="600"/>
  <unicode hex="00AE"/>
  <outline>
    <contour>
      <point x="311" y="320" type="curve" smooth="yes"/>
      <point x="446" y="320"/>
      <point x="541" y="417"/>
      <point x="541" y="552" type="curve" smooth="yes"/>
      <point x="541" y="648"/>
      <point x="477" y="713"/>
      <point x="389" y="713" type="curve" smooth="yes"/>
      <point x="257" y="713"/>
      <point x="158" y="615"/>
      <point x="158" y="480" type="curve" smooth="yes"/>
      <point x="158" y="385"/>
      <point x="221" y="320"/>
    </contour>
    <contour>
      <point x="318" y="354" type="curve" smooth="yes"/>
      <point x="244" y="354"/>
      <point x="195" y="404"/>
      <point x="195" y="485" type="curve" smooth="yes"/>
      <point x="195" y="595"/>
      <point x="279" y="680"/>
      <point x="382" y="680" type="curve" smooth="yes"/>
      <point x="454" y="680"/>
      <point x="503" y="630"/>
      <point x="503" y="547" type="curve" smooth="yes"/>
      <point x="503" y="437"/>
      <point x="423" y="354"/>
    </contour>
    <contour>
      <point x="258" y="417" type="line"/>
      <point x="297" y="417" type="line"/>
      <point x="332" y="596" type="line"/>
      <point x="324" y="590" type="line"/>
      <point x="361" y="590" type="line" smooth="yes"/>
      <point x="387" y="590"/>
      <point x="397" y="578"/>
      <point x="397" y="561" type="curve" smooth="yes"/>
      <point x="397" y="533"/>
      <point x="377" y="517"/>
      <point x="344" y="517" type="curve" smooth="yes"/>
      <point x="305" y="517" type="line"/>
      <point x="298" y="488" type="line"/>
      <point x="343" y="488" type="line" smooth="yes"/>
      <point x="402" y="488"/>
      <point x="439" y="519"/>
      <point x="439" y="564" type="curve" smooth="yes"/>
      <point x="439" y="607"/>
      <point x="409" y="621"/>
      <point x="373" y="621" type="curve" smooth="yes"/>
      <point x="298" y="621" type="line"/>
    </contour>
    <contour>
      <point x="346" y="492" type="line"/>
      <point x="377" y="417" type="line"/>
      <point x="419" y="417" type="line"/>
      <point x="382" y="500" type="line"/>
    </contour>
  </outline>
</glyph>
<glyph name="degree" format="1">
  <advance width="600"/>
  <unicode hex="00B0"/>
  <outline>
    <contour>
      <point x="323" y="432" type="curve" smooth="yes"/>
      <point x="406" y="432"/>
      <point x="474" y="490"/>
      <point x="474" y="581" type="curve" smooth="yes"/>
      <point x="474" y="646"/>
      <point x="432" y="685"/>
      <point x="372" y="685" type="curve" smooth="yes"/>
      <point x="292" y="685"/>
      <point x="221" y="627"/>
      <point x="221" y="535" type="curve" smooth="yes"/>
      <point x="221" y="471"/>
      <point x="266" y="432"/>
    </contour>
    <contour>
      <point x="331" y="475" type="curve" smooth="yes"/>
      <point x="292" y="475"/>
      <point x="270" y="503"/>
      <point x="270" y="542" type="curve" smooth="yes"/>
      <point x="270" y="597"/>
      <point x="311" y="643"/>
      <point x="365" y="643" type="curve" smooth="yes"/>
      <point x="405" y="643"/>
      <point x="426" y="616"/>
      <point x="426" y="576" type="curve" smooth="yes"/>
      <point x="426" y="520"/>
      <point x="384" y="475"/>
    </contour>
  </outline>
</glyph>
<glyph name="plusminus" format="1">
	<unicode hex="00B1"/>
	<advance width="600"/>
	<outline>
		<contour>
			<point x="269" y="125" type="line"/>
			<point x="331" y="125" type="line"/>
			<point x="331" y="305" type="line"/>
			<point x="513" y="305" type="line"/>
			<point x="513" y="363" type="line"/>
			<point x="331" y="363" type="line"/>
			<point x="331" y="555" type="line"/>
			<point x="269" y="555" type="line"/>
			<point x="269" y="363" type="line"/>
			<point x="87" y="363" type="line"/>
			<point x="87" y="305" type="line"/>
			<point x="269" y="305" type="line"/>
		</contour>
		<contour>
			<point x="87" y="0" type="line"/>
			<point x="513" y="0" type="line"/>
			<point x="513" y="59" type="line"/>
			<point x="87" y="59" type="line"/>
		</contour>
	</outline>
</glyph>
<glyph name="Eth" format="1">
  <advance width="600"/>
  <unicode hex="00D0"/>
  <outline>
    <contour>
      <point x="324" y="324" type="line"/>
      <point x="333" y="368" type="line"/>
      <point x="106" y="368" type="line"/>
      <point x="35" y="365" type="line"/>
      <point x="26" y="324" type="line"/>
    </contour>
    <component base="D" xOffset="14"/>
  </outline>
</glyph>
<glyph name="multiply" format="1">
  <advance width="600"/>
  <unicode hex="00D7"/>
  <outline>
    <contour>
      <point x="155" y="134" type="line"/>
      <point x="305" y="291" type="line"/>
      <point x="456" y="134" type="line"/>
      <point x="496" y="174" type="line"/>
      <point x="346" y="331" type="line"/>
      <point x="496" y="487" type="line"/>
      <point x="456" y="527" type="line"/>
      <point x="305" y="371" type="line"/>
      <point x="155" y="527" type="line"/>
      <point x="115" y="487" type="line"/>
      <point x="265" y="331" type="line"/>
      <point x="115" y="174" type="line"/>
    </contour>
  </outline>
</glyph>
<glyph name="Oslash" format="1">
  <advance width="600"/>
  <unicode hex="00D8"/>
  <outline>
    <contour>
      <point x="251" y="-12" type="curve" smooth="yes"/>
      <point x="446" y="-12"/>
      <point x="568" y="202"/>
      <point x="565" y="415" type="curve" smooth="yes"/>
      <point x="564" y="570"/>
      <point x="485" y="668"/>
      <point x="357" y="668" type="curve" smooth="yes"/>
      <point x="173" y="668"/>
      <point x="40" y="477"/>
      <point x="42" y="241" type="curve" smooth="yes"/>
      <point x="43" y="85"/>
      <point x="123" y="-12"/>
    </contour>
    <contour>
      <point x="258" y="55" type="curve" smooth="yes"/>
      <point x="170" y="55"/>
      <point x="120" y="125"/>
      <point x="119" y="236" type="curve" smooth="yes"/>
      <point x="117" y="444"/>
      <point x="223" y="601"/>
      <point x="349" y="601" type="curve" smooth="yes"/>
      <point x="436" y="601"/>
      <point x="486" y="535"/>
      <point x="488" y="420" type="curve" smooth="yes"/>
      <point x="491" y="237"/>
      <point x="398" y="55"/>
    </contour>
    <contour>
      <point x="23" y="-28" type="line"/>
      <point x="622" y="656" type="line"/>
      <point x="585" y="685" type="line"/>
      <point x="-15" y="1" type="line"/>
    </contour>
    <contour>
      <point x="370" y="676" type="move" name="aboveUC"/>
    </contour>
  </outline>
</glyph>
<glyph name="Thorn" format="1">
  <advance width="600"/>
  <unicode hex="00DE"/>
  <outline>
    <contour>
      <point x="44" y="0" type="line"/>
      <point x="121" y="0" type="line"/>
      <point x="152" y="150" type="line"/>
      <point x="265" y="150" type="line" smooth="yes"/>
      <point x="432" y="150"/>
      <point x="553" y="221"/>
      <point x="553" y="382" type="curve" smooth="yes"/>
      <point x="553" y="496"/>
      <point x="472" y="543"/>
      <point x="353" y="543" type="curve" smooth="yes"/>
      <point x="231" y="543" type="line"/>
      <point x="253" y="656" type="line"/>
      <point x="176" y="656" type="line"/>
    </contour>
    <contour>
      <point x="165" y="213" type="line"/>
      <point x="218" y="480" type="line"/>
      <point x="330" y="480" type="line" smooth="yes"/>
      <point x="425" y="480"/>
      <point x="475" y="448"/>
      <point x="475" y="372" type="curve" smooth="yes"/>
      <point x="475" y="267"/>
      <point x="403" y="213"/>
      <point x="268" y="213" type="curve" smooth="yes"/>
    </contour>
  </outline>
</glyph>
<glyph name="aring" format="1">
	<unicode hex="00E5"/>
	<advance width="600"/>
	<outline>
		<component base="a"/>
		<component base="ringcmb" xOffset="15"/>
		<contour>
			<point name="ogonekLC" x="399" y="0" type="move"/>
		</contour>
	</outline>
</glyph>
<glyph name="ae" format="1">
  <advance width="600"/>
  <unicode hex="00E6"/>
  <outline>
    <contour>
      <point x="88" y="-12" type="curve" smooth="yes"/>
      <point x="147" y="-12"/>
      <point x="213" y="19"/>
      <point x="274" y="89" type="curve"/>
      <point x="253" y="132" type="line"/>
      <point x="211" y="81"/>
      <point x="151" y="49"/>
      <point x="109" y="49" type="curve" smooth="yes"/>
      <point x="74" y="49"/>
      <point x="50" y="70"/>
      <point x="50" y="112" type="curve" smooth="yes"/>
      <point x="50" y="193"/>
      <point x="128" y="234"/>
      <point x="275" y="259" type="curve"/>
      <point x="280" y="310" type="line"/>
      <point x="82" y="280"/>
      <point x="-22" y="219"/>
      <point x="-22" y="97" type="curve" smooth="yes"/>
      <point x="-22" y="29"/>
      <point x="19" y="-12"/>
    </contour>
    <contour>
      <point x="300" y="225" type="line"/>
      <point x="578" y="225" type="line"/>
      <point x="586" y="246"/>
      <point x="599" y="288"/>
      <point x="599" y="346" type="curve" smooth="yes"/>
      <point x="599" y="428"/>
      <point x="565" y="497"/>
      <point x="485" y="497" type="curve" smooth="yes"/>
      <point x="423" y="497"/>
      <point x="361" y="463"/>
      <point x="318" y="391" type="curve"/>
      <point x="329" y="389" type="line"/>
      <point x="325" y="454"/>
      <point x="283" y="497"/>
      <point x="216" y="497" type="curve" smooth="yes"/>
      <point x="149" y="497"/>
      <point x="91" y="468"/>
      <point x="52" y="439" type="curve"/>
      <point x="80" y="391" type="line"/>
      <point x="111" y="414"/>
      <point x="154" y="437"/>
      <point x="198" y="437" type="curve" smooth="yes"/>
      <point x="265" y="437"/>
      <point x="286" y="382"/>
      <point x="267" y="305" type="curve" smooth="yes"/>
      <point x="249" y="238"/>
      <point x="246" y="201"/>
      <point x="246" y="151" type="curve" smooth="yes"/>
      <point x="246" y="74"/>
      <point x="289" y="-12"/>
      <point x="396" y="-12" type="curve" smooth="yes"/>
      <point x="448" y="-12"/>
      <point x="503" y="9"/>
      <point x="538" y="36" type="curve"/>
      <point x="514" y="86" type="line"/>
      <point x="479" y="62"/>
      <point x="445" y="48"/>
      <point x="405" y="48" type="curve" smooth="yes"/>
      <point x="341" y="48"/>
      <point x="310" y="98"/>
      <point x="310" y="169" type="curve" smooth="yes"/>
      <point x="310" y="310"/>
      <point x="381" y="437"/>
      <point x="470" y="437" type="curve" smooth="yes"/>
      <point x="516" y="437"/>
      <point x="536" y="401"/>
      <point x="536" y="343" type="curve" smooth="yes"/>
      <point x="536" y="320"/>
      <point x="533" y="295"/>
      <point x="527" y="269" type="curve"/>
      <point x="542" y="275" type="line"/>
      <point x="305" y="275" type="line"/>
    </contour>
    <contour>
      <point x="425" y="0" type="move" name="ogonekLC"/>
    </contour>
    <contour>
      <point x="340" y="507" type="move" name="aboveLC"/>
    </contour>
    <contour>
      <point x="393" y="0" type="move" name="baseLC"/>
    </contour>
    <contour>
      <point x="256" y="-20" type="move" name="belowLC"/>
    </contour>
  </outline>
</glyph>
<glyph name="eth" format="1">
  <advance width="600"/>
  <unicode hex="00F0"/>
  <outline>
    <contour>
      <point x="239" y="-12" type="curve" smooth="yes"/>
      <point x="422" y="-12"/>
      <point x="539" y="123"/>
      <point x="539" y="339" type="curve" smooth="yes"/>
      <point x="539" y="533"/>
      <point x="433" y="664"/>
      <point x="285" y="734" type="curve"/>
      <point x="251" y="678" type="line"/>
      <point x="377" y="614"/>
      <point x="464" y="513"/>
      <point x="464" y="342" type="curve" smooth="yes"/>
      <point x="464" y="174"/>
      <point x="385" y="52"/>
      <point x="248" y="52" type="curve" smooth="yes"/>
      <point x="168" y="52"/>
      <point x="114" y="105"/>
      <point x="114" y="191" type="curve" smooth="yes"/>
      <point x="114" y="290"/>
      <point x="187" y="387"/>
      <point x="316" y="387" type="curve" smooth="yes"/>
      <point x="377" y="387"/>
      <point x="437" y="359"/>
      <point x="473" y="293" type="curve"/>
      <point x="481" y="347" type="line"/>
      <point x="455" y="399"/>
      <point x="392" y="446"/>
      <point x="306" y="446" type="curve" smooth="yes"/>
      <point x="158" y="446"/>
      <point x="39" y="340"/>
      <point x="39" y="184" type="curve" smooth="yes"/>
      <point x="39" y="59"/>
      <point x="128" y="-12"/>
    </contour>
    <contour>
      <point x="232" y="506" type="line"/>
      <point x="583" y="671" type="line"/>
      <point x="568" y="710" type="line"/>
      <point x="216" y="545" type="line"/>
    </contour>
    <contour>
      <point x="430" y="736" type="move" name="aboveUC"/>
    </contour>
    <contour>
      <point x="244" y="-20" type="move" name="belowLC"/>
    </contour>
  </outline>
</glyph>
<glyph name="divide" format="1">
  <advance width="600"/>
  <unicode hex="00F7"/>
  <outline>
    <contour>
      <point x="304" y="460" type="curve" smooth="yes"/>
      <point x="333" y="460"/>
      <point x="355" y="483"/>
      <point x="355" y="512" type="curve" smooth="yes"/>
      <point x="355" y="540"/>
      <point x="333" y="562"/>
      <point x="304" y="562" type="curve" smooth="yes"/>
      <point x="275" y="562"/>
      <point x="253" y="540"/>
      <point x="253" y="512" type="curve" smooth="yes"/>
      <point x="253" y="483"/>
      <point x="275" y="460"/>
    </contour>
    <contour>
      <point x="304" y="97" type="curve" smooth="yes"/>
      <point x="333" y="97"/>
      <point x="355" y="119"/>
      <point x="355" y="148" type="curve" smooth="yes"/>
      <point x="355" y="176"/>
      <point x="333" y="198"/>
      <point x="304" y="198" type="curve" smooth="yes"/>
      <point x="275" y="198"/>
      <point x="253" y="176"/>
      <point x="253" y="148" type="curve" smooth="yes"/>
      <point x="253" y="119"/>
      <point x="275" y="97"/>
    </contour>
    <contour>
      <point x="96" y="302" type="line"/>
      <point x="511" y="302" type="line"/>
      <point x="511" y="359" type="line"/>
      <point x="96" y="359" type="line"/>
    </contour>
  </outline>
</glyph>
<glyph name="oslash" format="1">
  <advance width="600"/>
  <unicode hex="00F8"/>
  <outline>
    <contour>
      <point x="339" y="508" type="move" name="aboveLC"/>
    </contour>
    <contour>
      <point x="243" y="-12" type="curve" smooth="yes"/>
      <point x="397" y="-12"/>
      <point x="529" y="110"/>
      <point x="529" y="289" type="curve" smooth="yes"/>
      <point x="529" y="414"/>
      <point x="451" y="498"/>
      <point x="333" y="498" type="curve" smooth="yes"/>
      <point x="179" y="498"/>
      <point x="46" y="373"/>
      <point x="46" y="196" type="curve" smooth="yes"/>
      <point x="46" y="71"/>
      <point x="125" y="-12"/>
    </contour>
    <contour>
      <point x="253" y="50" type="curve" smooth="yes"/>
      <point x="169" y="50"/>
      <point x="121" y="111"/>
      <point x="121" y="203" type="curve" smooth="yes"/>
      <point x="121" y="325"/>
      <point x="212" y="436"/>
      <point x="323" y="436" type="curve" smooth="yes"/>
      <point x="407" y="436"/>
      <point x="454" y="375"/>
      <point x="454" y="283" type="curve" smooth="yes"/>
      <point x="454" y="159"/>
      <point x="364" y="50"/>
    </contour>
    <contour>
      <point x="34" y="-23" type="line"/>
      <point x="566" y="480" type="line"/>
      <point x="538" y="508" type="line"/>
      <point x="6" y="4" type="line"/>
    </contour>
  </outline>
</glyph>
<glyph name="thorn" format="1">
  <advance width="600"/>
  <unicode hex="00FE"/>
  <outline>
    <contour>
      <point x="-5" y="-205" type="line"/>
      <point x="71" y="-205" type="line"/>
      <point x="102" y="-46" type="line"/>
      <point x="120" y="58" type="line"/>
      <point x="123" y="58" type="line"/>
      <point x="154" y="17"/>
      <point x="209" y="-12"/>
      <point x="270" y="-12" type="curve" smooth="yes"/>
      <point x="429" y="-12"/>
      <point x="537" y="129"/>
      <point x="537" y="305" type="curve" smooth="yes"/>
      <point x="537" y="429"/>
      <point x="473" y="498"/>
      <point x="370" y="498" type="curve" smooth="yes"/>
      <point x="307" y="498"/>
      <point x="243" y="460"/>
      <point x="194" y="415" type="curve"/>
      <point x="191" y="415" type="line"/>
      <point x="216" y="522" type="line"/>
      <point x="255" y="712" type="line"/>
      <point x="178" y="712" type="line"/>
    </contour>
    <contour>
      <point x="265" y="52" type="curve" smooth="yes"/>
      <point x="218" y="52"/>
      <point x="171" y="71"/>
      <point x="137" y="122" type="curve"/>
      <point x="181" y="340" type="line"/>
      <point x="233" y="399"/>
      <point x="296" y="434"/>
      <point x="345" y="434" type="curve" smooth="yes"/>
      <point x="414" y="434"/>
      <point x="458" y="388"/>
      <point x="458" y="294" type="curve" smooth="yes"/>
      <point x="458" y="163"/>
      <point x="376" y="52"/>
    </contour>
    <contour>
      <point x="218" y="736" type="move" name="aboveUC"/>
    </contour>
    <contour>
      <point x="36" y="-219" type="move" name="belowLC"/>
    </contour>
  </outline>
</glyph>
<glyph name="Aogonek" format="1">
  <advance width="600"/>
  <unicode hex="0104"/>
  <outline>
    <contour>
      <point x="419" y="-225" type="curve" smooth="yes"/>
      <point x="453" y="-225"/>
      <point x="487" y="-213"/>
      <point x="510" y="-195" type="curve"/>
      <point x="491" y="-156" type="line"/>
      <point x="477" y="-166"/>
      <point x="462" y="-172"/>
      <point x="445" y="-172" type="curve" smooth="yes"/>
      <point x="414" y="-172"/>
      <point x="390" y="-157"/>
      <point x="390" y="-126" type="curve" smooth="yes"/>
      <point x="390" y="-79"/>
      <point x="444" y="-27"/>
      <point x="503" y="0" type="curve"/>
      <point x="422" y="656" type="line"/>
      <point x="333" y="656" type="line"/>
      <point x="-23" y="0" type="line"/>
      <point x="62" y="0" type="line"/>
      <point x="256" y="379" type="line" smooth="yes"/>
      <point x="293" y="452"/>
      <point x="325" y="518"/>
      <point x="362" y="591" type="curve"/>
      <point x="366" y="591" type="line"/>
      <point x="373" y="520"/>
      <point x="379" y="447"/>
      <point x="386" y="377" type="curve" smooth="yes"/>
      <point x="423" y="0" type="line"/>
      <point x="439" y="0" type="line"/>
      <point x="388" y="-29"/>
      <point x="326" y="-83"/>
      <point x="326" y="-150" type="curve" smooth="yes"/>
      <point x="326" y="-202"/>
      <point x="369" y="-225"/>
    </contour>
    <contour>
      <point x="137" y="205" type="line"/>
      <point x="429" y="205" type="line"/>
      <point x="440" y="265" type="line"/>
      <point x="152" y="265" type="line"/>
    </contour>
    <contour>
      <point x="373" y="676" type="move" name="aboveUC"/>
    </contour>
  </outline>
</glyph>
<glyph name="aogonek" format="1">
  <advance width="600"/>
  <unicode hex="0105"/>
  <outline>
    <contour>
      <point x="366" y="-225" type="curve" smooth="yes"/>
      <point x="404" y="-225"/>
      <point x="435" y="-212"/>
      <point x="458" y="-193" type="curve"/>
      <point x="441" y="-158" type="line"/>
      <point x="425" y="-169"/>
      <point x="410" y="-174"/>
      <point x="391" y="-174" type="curve" smooth="yes"/>
      <point x="359" y="-174"/>
      <point x="334" y="-159"/>
      <point x="334" y="-126" type="curve" smooth="yes"/>
      <point x="334" y="-82"/>
      <point x="374" y="-40"/>
      <point x="455" y="-5" type="curve"/>
      <point x="553" y="486" type="line"/>
      <point x="491" y="486" type="line"/>
      <point x="472" y="425" type="line"/>
      <point x="468" y="425" type="line"/>
      <point x="441" y="469"/>
      <point x="388" y="498"/>
      <point x="319" y="498" type="curve" smooth="yes"/>
      <point x="171" y="498"/>
      <point x="52" y="348"/>
      <point x="52" y="174" type="curve" smooth="yes"/>
      <point x="52" y="53"/>
      <point x="118" y="-12"/>
      <point x="219" y="-12" type="curve" smooth="yes"/>
      <point x="281" y="-12"/>
      <point x="346" y="22"/>
      <point x="397" y="74" type="curve"/>
      <point x="401" y="74" type="line"/>
      <point x="393" y="1" type="line"/>
      <point x="334" y="-31"/>
      <point x="274" y="-80"/>
      <point x="274" y="-148" type="curve" smooth="yes"/>
      <point x="274" y="-202"/>
      <point x="317" y="-225"/>
    </contour>
    <contour>
      <point x="242" y="52" type="curve" smooth="yes"/>
      <point x="174" y="52"/>
      <point x="131" y="94"/>
      <point x="131" y="186" type="curve" smooth="yes"/>
      <point x="131" y="316"/>
      <point x="218" y="434"/>
      <point x="329" y="434" type="curve" smooth="yes"/>
      <point x="375" y="434"/>
      <point x="421" y="413"/>
      <point x="454" y="362" type="curve"/>
      <point x="409" y="146" type="line"/>
      <point x="356" y="85"/>
      <point x="295" y="52"/>
    </contour>
    <contour>
      <point x="353" y="507" type="move" name="aboveLC"/>
    </contour>
  </outline>
</glyph>
<glyph name="dcaron" format="1">
  <advance width="600"/>
  <unicode hex="010F"/>
  <outline>
    <contour>
      <point x="193" y="-12" type="curve" smooth="yes"/>
      <point x="253" y="-12"/>
      <point x="314" y="17"/>
      <point x="363" y="66" type="curve"/>
      <point x="367" y="66" type="line"/>
      <point x="361" y="0" type="line"/>
      <point x="424" y="0" type="line"/>
      <point x="567" y="712" type="line"/>
      <point x="491" y="712" type="line"/>
      <point x="453" y="526" type="line"/>
      <point x="437" y="431" type="line"/>
      <point x="434" y="431" type="line"/>
      <point x="407" y="472"/>
      <point x="361" y="498"/>
      <point x="302" y="498" type="curve" smooth="yes"/>
      <point x="156" y="498"/>
      <point x="42" y="348"/>
      <point x="42" y="174" type="curve" smooth="yes"/>
      <point x="42" y="53"/>
      <point x="102" y="-12"/>
    </contour>
    <contour>
      <point x="224" y="52" type="curve" smooth="yes"/>
      <point x="162" y="52"/>
      <point x="120" y="94"/>
      <point x="120" y="186" type="curve" smooth="yes"/>
      <point x="120" y="316"/>
      <point x="203" y="434"/>
      <point x="308" y="434" type="curve" smooth="yes"/>
      <point x="352" y="434"/>
      <point x="391" y="414"/>
      <point x="422" y="365" type="curve"/>
      <point x="375" y="139" type="line"/>
      <point x="325" y="80"/>
      <point x="272" y="52"/>
    </contour>
    <component base="caron.alt" xOffset="297"/>
  </outline>
</glyph>
<glyph name="dcroat" format="1">
  <advance width="600"/>
  <unicode hex="0111"/>
  <outline>
    <contour>
      <point x="207" y="-12" type="curve" smooth="yes"/>
      <point x="274" y="-12"/>
      <point x="337" y="23"/>
      <point x="386" y="65" type="curve"/>
      <point x="388" y="65" type="line"/>
      <point x="382" y="0" type="line"/>
      <point x="444" y="0" type="line"/>
      <point x="587" y="714" type="line"/>
      <point x="512" y="714" type="line"/>
      <point x="469" y="505" type="line"/>
      <point x="455" y="413" type="line"/>
      <point x="416" y="453"/>
      <point x="377" y="477"/>
      <point x="318" y="477" type="curve" smooth="yes"/>
      <point x="178" y="477"/>
      <point x="39" y="361"/>
      <point x="39" y="174" type="curve" smooth="yes"/>
      <point x="39" y="56"/>
      <point x="104" y="-12"/>
    </contour>
    <contour>
      <point x="237" y="52" type="curve" smooth="yes"/>
      <point x="161" y="52"/>
      <point x="118" y="103"/>
      <point x="118" y="186" type="curve" smooth="yes"/>
      <point x="118" y="319"/>
      <point x="219" y="413"/>
      <point x="319" y="413" type="curve" smooth="yes"/>
      <point x="364" y="413"/>
      <point x="402" y="397"/>
      <point x="440" y="354" type="curve"/>
      <point x="394" y="127" type="line"/>
      <point x="340" y="77"/>
      <point x="286" y="52"/>
    </contour>
    <contour>
      <point x="308" y="573" type="line"/>
      <point x="555" y="573" type="line"/>
      <point x="631" y="578" type="line"/>
      <point x="640" y="618" type="line"/>
      <point x="317" y="618" type="line"/>
    </contour>
  </outline>
</glyph>
<glyph name="eogonek" format="1">
  <advance width="600"/>
  <unicode hex="0119"/>
  <outline>
    <contour>
      <point x="336" y="-225" type="curve" smooth="yes"/>
      <point x="374" y="-225"/>
      <point x="405" y="-212"/>
      <point x="429" y="-193" type="curve"/>
      <point x="411" y="-158" type="line"/>
      <point x="395" y="-169"/>
      <point x="380" y="-174"/>
      <point x="361" y="-174" type="curve" smooth="yes"/>
      <point x="330" y="-174"/>
      <point x="304" y="-159"/>
      <point x="304" y="-126" type="curve" smooth="yes"/>
      <point x="304" y="-72"/>
      <point x="373" y="-10"/>
      <point x="480" y="60" type="curve"/>
      <point x="451" y="112" type="line"/>
      <point x="406" y="76"/>
      <point x="349" y="49"/>
      <point x="285" y="49" type="curve" smooth="yes"/>
      <point x="197" y="49"/>
      <point x="139" y="104"/>
      <point x="139" y="202" type="curve" smooth="yes"/>
      <point x="139" y="343"/>
      <point x="242" y="437"/>
      <point x="336" y="437" type="curve" smooth="yes"/>
      <point x="408" y="437"/>
      <point x="453" y="390"/>
      <point x="453" y="314" type="curve" smooth="yes"/>
      <point x="453" y="299"/>
      <point x="451" y="283"/>
      <point x="447" y="269" type="curve"/>
      <point x="479" y="284" type="line"/>
      <point x="132" y="284" type="line"/>
      <point x="122" y="224" type="line"/>
      <point x="512" y="224" type="line"/>
      <point x="517" y="237"/>
      <point x="525" y="277"/>
      <point x="525" y="311" type="curve" smooth="yes"/>
      <point x="525" y="419"/>
      <point x="459" y="498"/>
      <point x="340" y="498" type="curve" smooth="yes"/>
      <point x="193" y="498"/>
      <point x="63" y="373"/>
      <point x="63" y="198" type="curve" smooth="yes"/>
      <point x="63" y="62"/>
      <point x="144" y="-12"/>
      <point x="270" y="-12" type="curve" smooth="yes"/>
      <point x="294" y="-12"/>
      <point x="318" y="-8"/>
      <point x="338" y="-2" type="curve"/>
      <point x="288" y="-42"/>
      <point x="244" y="-88"/>
      <point x="244" y="-148" type="curve" smooth="yes"/>
      <point x="244" y="-202"/>
      <point x="287" y="-225"/>
    </contour>
    <contour>
      <point x="346" y="507" type="move" name="aboveLC"/>
    </contour>
  </outline>
</glyph>
<glyph name="Hbar" format="1">
  <advance width="600"/>
  <unicode hex="0126"/>
  <outline>
    <contour>
      <point x="19" y="0" type="line"/>
      <point x="95" y="0" type="line"/>
      <point x="158" y="313" type="line"/>
      <point x="442" y="313" type="line"/>
      <point x="379" y="0" type="line"/>
      <point x="456" y="0" type="line"/>
      <point x="588" y="657" type="line"/>
      <point x="511" y="657" type="line"/>
      <point x="455" y="379" type="line"/>
      <point x="171" y="379" type="line"/>
      <point x="226" y="657" type="line"/>
      <point x="150" y="657" type="line"/>
    </contour>
    <contour>
      <point x="47" y="494" type="line"/>
      <point x="624" y="494" type="line"/>
      <point x="634" y="537" type="line"/>
      <point x="128" y="537" type="line"/>
      <point x="54" y="532" type="line"/>
    </contour>
  </outline>
</glyph>
<glyph name="dotlessi" format="1">
  <advance width="600"/>
  <unicode hex="0131"/>
  <outline>
    <contour>
      <point x="347" y="-12" type="curve" smooth="yes"/>
      <point x="400" y="-12"/>
      <point x="439" y="1"/>
      <point x="480" y="20" type="curve"/>
      <point x="462" y="78" type="line"/>
      <point x="427" y="62"/>
      <point x="399" y="52"/>
      <point x="369" y="52" type="curve" smooth="yes"/>
      <point x="325" y="52"/>
      <point x="294" y="73"/>
      <point x="294" y="124" type="curve" smooth="yes"/>
      <point x="294" y="134"/>
      <point x="296" y="144"/>
      <point x="298" y="156" type="curve" smooth="yes"/>
      <point x="371" y="486" type="line"/>
      <point x="117" y="486" type="line"/>
      <point x="104" y="424" type="line"/>
      <point x="282" y="424" type="line"/>
      <point x="224" y="163" type="line" smooth="yes"/>
      <point x="219" y="144"/>
      <point x="216" y="126"/>
      <point x="216" y="110" type="curve" smooth="yes"/>
      <point x="216" y="30"/>
      <point x="270" y="-12"/>
    </contour>
    <contour>
      <point x="364" y="0" type="move" name="ogonekLC"/>
    </contour>
    <contour>
      <point x="320" y="507" type="move" name="aboveLC"/>
    </contour>
    <contour>
      <point x="351" y="0" type="move" name="baseLC"/>
    </contour>
    <contour>
      <point x="333" y="-20" type="move" name="belowLC"/>
    </contour>
  </outline>
</glyph>
<glyph name="kgreenlandic" format="1">
  <advance width="600"/>
  <unicode hex="0138"/>
  <outline>
    <contour>
      <point x="49" y="0" type="line"/>
      <point x="126" y="0" type="line"/>
      <point x="152" y="128" type="line"/>
      <point x="331" y="270" type="line"/>
      <point x="585" y="486" type="line"/>
      <point x="492" y="486" type="line"/>
      <point x="175" y="228" type="line"/>
      <point x="171" y="228" type="line"/>
      <point x="222" y="486" type="line"/>
      <point x="146" y="486" type="line"/>
    </contour>
    <contour>
      <point x="296" y="257" type="line"/>
      <point x="429" y="0" type="line"/>
      <point x="509" y="0" type="line"/>
      <point x="348" y="308" type="line"/>
    </contour>
  </outline>
</glyph>
<glyph name="Lslash" format="1">
  <advance width="600"/>
  <unicode hex="0141"/>
  <outline>
    <contour>
      <point x="63" y="198" type="line"/>
      <point x="166" y="247" type="line"/>
      <point x="218" y="270" type="line"/>
      <point x="487" y="399" type="line"/>
      <point x="466" y="451" type="line"/>
      <point x="231" y="337" type="line"/>
      <point x="179" y="315" type="line"/>
      <point x="42" y="251" type="line"/>
    </contour>
    <component base="L"/>
    <contour>
      <point x="275" y="676" type="move" name="aboveUC"/>
    </contour>
    <contour>
      <point x="305" y="-20" type="move" name="belowLC"/>
    </contour>
  </outline>
</glyph>
<glyph name="lslash" format="1">
  <advance width="600"/>
  <unicode hex="0142"/>
  <outline>
    <contour>
      <point x="118" y="275" type="line"/>
      <point x="248" y="342" type="line"/>
      <point x="308" y="367" type="line"/>
      <point x="520" y="476" type="line"/>
      <point x="499" y="524" type="line"/>
      <point x="323" y="433" type="line"/>
      <point x="261" y="407" type="line"/>
      <point x="99" y="324" type="line"/>
    </contour>
    <component base="l"/>
    <contour>
      <point x="350" y="736" type="move" name="aboveUC"/>
    </contour>
    <contour>
      <point x="323" y="-20" type="move" name="belowLC"/>
    </contour>
  </outline>
</glyph>
<glyph name="napostrophe" format="1">
  <advance width="600"/>
  <unicode hex="0149"/>
  <outline>
    <contour>
      <point x="136" y="0" type="line"/>
      <point x="211" y="0" type="line"/>
      <point x="280" y="346" type="line"/>
      <point x="346" y="398"/>
      <point x="388" y="432"/>
      <point x="446" y="432" type="curve" smooth="yes"/>
      <point x="509" y="432"/>
      <point x="537" y="388"/>
      <point x="519" y="298" type="curve" smooth="yes"/>
      <point x="459" y="0" type="line"/>
      <point x="534" y="0" type="line"/>
      <point x="596" y="308" type="line" smooth="yes"/>
      <point x="621" y="432"/>
      <point x="580" y="497"/>
      <point x="478" y="497" type="curve" smooth="yes"/>
      <point x="407" y="497"/>
      <point x="349" y="458"/>
      <point x="291" y="405" type="curve"/>
      <point x="287" y="405" type="line"/>
      <point x="295" y="485" type="line"/>
      <point x="232" y="485" type="line"/>
    </contour>
    <contour>
      <point x="25" y="383" type="line"/>
      <point x="145" y="430"/>
      <point x="215" y="510"/>
      <point x="215" y="611" type="curve" smooth="yes"/>
      <point x="215" y="672"/>
      <point x="188" y="699"/>
      <point x="148" y="699" type="curve" smooth="yes"/>
      <point x="100" y="699"/>
      <point x="60" y="660"/>
      <point x="60" y="611" type="curve" smooth="yes"/>
      <point x="60" y="578"/>
      <point x="81" y="556"/>
      <point x="112" y="556" type="curve" smooth="yes"/>
      <point x="137" y="556"/>
      <point x="161" y="569"/>
      <point x="182" y="589" type="curve"/>
      <point x="138" y="652" type="line"/>
      <point x="142" y="576" type="line"/>
      <point x="130" y="494"/>
      <point x="84" y="458"/>
      <point x="9" y="425" type="curve"/>
    </contour>
  </outline>
</glyph>
<glyph name="eng" format="1">
  <advance width="600"/>
  <unicode hex="014B"/>
  <outline>
    <contour>
      <point x="310" y="-183" type="curve" smooth="yes"/>
      <point x="396" y="-183"/>
      <point x="435" y="-124"/>
      <point x="455" y="-30" type="curve"/>
      <point x="521" y="297" type="line" smooth="yes"/>
      <point x="526" y="324"/>
      <point x="530" y="349"/>
      <point x="530" y="377" type="curve" smooth="yes"/>
      <point x="530" y="450"/>
      <point x="491" y="498"/>
      <point x="405" y="498" type="curve" smooth="yes"/>
      <point x="318" y="498"/>
      <point x="245" y="445"/>
      <point x="187" y="387" type="curve"/>
      <point x="183" y="387" type="line"/>
      <point x="195" y="486" type="line"/>
      <point x="133" y="486" type="line"/>
      <point x="36" y="0" type="line"/>
      <point x="112" y="0" type="line"/>
      <point x="175" y="314" type="line"/>
      <point x="242" y="388"/>
      <point x="309" y="432"/>
      <point x="374" y="432" type="curve" smooth="yes"/>
      <point x="424" y="432"/>
      <point x="451" y="405"/>
      <point x="451" y="357" type="curve" smooth="yes"/>
      <point x="451" y="335"/>
      <point x="448" y="314"/>
      <point x="442" y="289" type="curve" smooth="yes"/>
      <point x="379" y="-29" type="line"/>
      <point x="366" y="-91"/>
      <point x="346" y="-120"/>
      <point x="306" y="-120" type="curve" smooth="yes"/>
      <point x="285" y="-120"/>
      <point x="273" y="-115"/>
      <point x="261" y="-107" type="curve"/>
      <point x="235" y="-164" type="line"/>
      <point x="258" y="-176"/>
      <point x="279" y="-183"/>
    </contour>
    <contour>
      <point x="351" y="507" type="move" name="aboveLC"/>
    </contour>
  </outline>
</glyph>
<glyph name="OE" format="1">
  <advance width="600"/>
  <unicode hex="0152"/>
  <outline>
    <contour>
      <point x="259" y="0" type="curve" smooth="yes"/>
      <point x="529" y="0" type="line"/>
      <point x="543" y="66" type="line"/>
      <point x="335" y="66" type="line"/>
      <point x="386" y="312" type="line"/>
      <point x="535" y="312" type="line"/>
      <point x="549" y="378" type="line"/>
      <point x="398" y="378" type="line"/>
      <point x="440" y="591" type="line"/>
      <point x="639" y="591" type="line"/>
      <point x="652" y="656" type="line"/>
      <point x="375" y="656" type="line" smooth="yes"/>
      <point x="171" y="656"/>
      <point x="27" y="488"/>
      <point x="27" y="246" type="curve" smooth="yes"/>
      <point x="27" y="92"/>
      <point x="95" y="0"/>
    </contour>
    <contour>
      <point x="262" y="64" type="line" smooth="yes"/>
      <point x="148" y="64"/>
      <point x="107" y="134"/>
      <point x="107" y="251" type="curve" smooth="yes"/>
      <point x="107" y="442"/>
      <point x="207" y="593"/>
      <point x="364" y="593" type="curve" smooth="yes"/>
      <point x="372" y="593" type="line"/>
      <point x="266" y="64" type="line"/>
    </contour>
    <contour>
      <point x="399" y="676" type="move" name="aboveUC"/>
    </contour>
    <contour>
      <point x="360" y="0" type="move" name="baseLC"/>
    </contour>
  </outline>
</glyph>
<glyph name="oe" format="1">
  <advance width="600"/>
  <unicode hex="0153"/>
  <outline>
    <contour>
      <point x="124" y="-12" type="curve" smooth="yes"/>
      <point x="189" y="-12"/>
      <point x="248" y="24"/>
      <point x="289" y="102" type="curve"/>
      <point x="278" y="111" type="line"/>
      <point x="284" y="30"/>
      <point x="338" y="-12"/>
      <point x="404" y="-12" type="curve" smooth="yes"/>
      <point x="458" y="-12"/>
      <point x="512" y="9"/>
      <point x="546" y="35" type="curve"/>
      <point x="522" y="86" type="line"/>
      <point x="494" y="66"/>
      <point x="458" y="49"/>
      <point x="417" y="49" type="curve" smooth="yes"/>
      <point x="359" y="49"/>
      <point x="326" y="86"/>
      <point x="326" y="164" type="curve" smooth="yes"/>
      <point x="326" y="298"/>
      <point x="393" y="437"/>
      <point x="473" y="437" type="curve" smooth="yes"/>
      <point x="522" y="437"/>
      <point x="536" y="396"/>
      <point x="536" y="342" type="curve" smooth="yes"/>
      <point x="536" y="319"/>
      <point x="532" y="293"/>
      <point x="526" y="271" type="curve"/>
      <point x="538" y="284" type="line"/>
      <point x="321" y="284" type="line"/>
      <point x="318" y="224" type="line"/>
      <point x="579" y="224" type="line"/>
      <point x="585" y="245"/>
      <point x="599" y="296"/>
      <point x="599" y="344" type="curve" smooth="yes"/>
      <point x="599" y="441"/>
      <point x="562" y="498"/>
      <point x="486" y="498" type="curve" smooth="yes"/>
      <point x="423" y="498"/>
      <point x="362" y="453"/>
      <point x="325" y="369" type="curve"/>
      <point x="333" y="366" type="line"/>
      <point x="325" y="450"/>
      <point x="287" y="498"/>
      <point x="219" y="498" type="curve" smooth="yes"/>
      <point x="99" y="498"/>
      <point x="-9" y="366"/>
      <point x="-9" y="173" type="curve" smooth="yes"/>
      <point x="-9" y="57"/>
      <point x="39" y="-12"/>
    </contour>
    <contour>
      <point x="62" y="176" type="curve" smooth="yes"/>
      <point x="62" y="298"/>
      <point x="125" y="435"/>
      <point x="213" y="435" type="curve" smooth="yes"/>
      <point x="260" y="435"/>
      <point x="284" y="386"/>
      <point x="284" y="307" type="curve" smooth="yes"/>
      <point x="284" y="174"/>
      <point x="219" y="51"/>
      <point x="138" y="51" type="curve" smooth="yes"/>
      <point x="87" y="51"/>
      <point x="62" y="101"/>
    </contour>
    <contour>
      <point x="340" y="507" type="move" name="aboveLC"/>
    </contour>
    <contour>
      <point x="409" y="0" type="move" name="baseLC"/>
    </contour>
    <contour>
      <point x="270" y="-20" type="move" name="belowLC"/>
    </contour>
  </outline>
</glyph>
<glyph name="Tbar" format="1">
  <advance width="600"/>
  <unicode hex="0166"/>
  <outline>
    <contour>
      <point x="130" y="332" type="line"/>
      <point x="475" y="332" type="line"/>
      <point x="484" y="375" type="line"/>
      <point x="214" y="375" type="line"/>
      <point x="138" y="370" type="line"/>
    </contour>
    <component base="T"/>
    <contour>
      <point x="373" y="676" type="move" name="aboveUC"/>
    </contour>
    <contour>
      <point x="235" y="-20" type="move" name="belowLC"/>
    </contour>
  </outline>
</glyph>
<glyph name="tbar" format="1">
  <advance width="600"/>
  <unicode hex="0167"/>
  <outline>
    <contour>
      <point x="43" y="249" type="line"/>
      <point x="483" y="249" type="line"/>
      <point x="491" y="292" type="line"/>
      <point x="191" y="292" type="line"/>
      <point x="51" y="288" type="line"/>
    </contour>
    <component base="t"/>
    <contour>
      <point x="297" y="635" type="move" name="aboveLC"/>
    </contour>
    <contour>
      <point x="308" y="-20" type="move" name="belowLC"/>
    </contour>
  </outline>
</glyph>
<glyph name="Uogonek" format="1">
  <advance width="600"/>
  <unicode hex="0172"/>
  <outline>
    <contour>
      <point x="373" y="679" type="move" name="aboveUC"/>
    </contour>
    <contour>
      <point x="229" y="-225" type="curve" smooth="yes"/>
      <point x="263" y="-225"/>
      <point x="296" y="-213"/>
      <point x="320" y="-195" type="curve"/>
      <point x="301" y="-156" type="line"/>
      <point x="286" y="-166"/>
      <point x="272" y="-172"/>
      <point x="255" y="-172" type="curve" smooth="yes"/>
      <point x="224" y="-172"/>
      <point x="199" y="-157"/>
      <point x="199" y="-126" type="curve" smooth="yes"/>
      <point x="199" y="-88"/>
      <point x="243" y="-29"/>
      <point x="317" y="-7" type="curve" smooth="yes"/>
      <point x="417" y="24"/>
      <point x="477" y="90"/>
      <point x="508" y="244" type="curve" smooth="yes"/>
      <point x="591" y="656" type="line"/>
      <point x="514" y="656" type="line"/>
      <point x="434" y="252" type="line" smooth="yes"/>
      <point x="405" y="105"/>
      <point x="340" y="54"/>
      <point x="264" y="54" type="curve" smooth="yes"/>
      <point x="182" y="54"/>
      <point x="140" y="106"/>
      <point x="140" y="198" type="curve" smooth="yes"/>
      <point x="140" y="222"/>
      <point x="142" y="246"/>
      <point x="149" y="277" type="curve" smooth="yes"/>
      <point x="225" y="656" type="line"/>
      <point x="147" y="656" type="line"/>
      <point x="72" y="279" type="line" smooth="yes"/>
      <point x="65" y="245"/>
      <point x="63" y="219"/>
      <point x="63" y="191" type="curve" smooth="yes"/>
      <point x="63" y="67"/>
      <point x="128" y="-2"/>
      <point x="231" y="-11" type="curve"/>
      <point x="185" y="-38"/>
      <point x="136" y="-92"/>
      <point x="136" y="-150" type="curve" smooth="yes"/>
      <point x="136" y="-202"/>
      <point x="179" y="-225"/>
    </contour>
  </outline>
</glyph>
<glyph name="uogonek" format="1">
  <advance width="600"/>
  <unicode hex="0173"/>
  <outline>
    <contour>
      <point x="362" y="-225" type="curve" smooth="yes"/>
      <point x="400" y="-225"/>
      <point x="431" y="-212"/>
      <point x="454" y="-193" type="curve"/>
      <point x="437" y="-158" type="line"/>
      <point x="421" y="-169"/>
      <point x="406" y="-174"/>
      <point x="387" y="-174" type="curve" smooth="yes"/>
      <point x="355" y="-174"/>
      <point x="329" y="-159"/>
      <point x="329" y="-126" type="curve" smooth="yes"/>
      <point x="329" y="-82"/>
      <point x="369" y="-40"/>
      <point x="451" y="-5" type="curve"/>
      <point x="549" y="486" type="line"/>
      <point x="472" y="486" type="line"/>
      <point x="409" y="172" type="line"/>
      <point x="343" y="98"/>
      <point x="277" y="54"/>
      <point x="211" y="54" type="curve" smooth="yes"/>
      <point x="161" y="54"/>
      <point x="134" y="81"/>
      <point x="134" y="129" type="curve" smooth="yes"/>
      <point x="134" y="151"/>
      <point x="138" y="172"/>
      <point x="143" y="197" type="curve" smooth="yes"/>
      <point x="201" y="486" type="line"/>
      <point x="125" y="486" type="line"/>
      <point x="65" y="189" type="line" smooth="yes"/>
      <point x="60" y="162"/>
      <point x="56" y="137"/>
      <point x="56" y="109" type="curve" smooth="yes"/>
      <point x="56" y="36"/>
      <point x="95" y="-12"/>
      <point x="182" y="-12" type="curve" smooth="yes"/>
      <point x="268" y="-12"/>
      <point x="339" y="42"/>
      <point x="398" y="99" type="curve"/>
      <point x="402" y="99" type="line"/>
      <point x="389" y="1" type="line"/>
      <point x="330" y="-31"/>
      <point x="270" y="-80"/>
      <point x="270" y="-148" type="curve" smooth="yes"/>
      <point x="270" y="-202"/>
      <point x="312" y="-225"/>
    </contour>
    <contour>
      <point x="337" y="507" type="move" name="aboveLC"/>
    </contour>
  </outline>
</glyph>
<glyph name="longs" format="1">
	<unicode hex="017F"/>
	<advance width="600"/>
	<outline>
		<contour>
			<point x="169" y="0" type="line"/>
			<point x="246" y="0" type="line"/>
			<point x="354" y="537" type="line" smooth="yes"/>
			<point x="372" y="626"/>
			<point x="422" y="662"/>
			<point x="491" y="662" type="curve" smooth="yes"/>
			<point x="532" y="662"/>
			<point x="563" y="649"/>
			<point x="593" y="626" type="curve"/>
			<point x="630" y="675" type="line"/>
			<point x="597" y="703"/>
			<point x="548" y="724"/>
			<point x="489" y="724" type="curve" smooth="yes"/>
			<point x="379" y="724"/>
			<point x="304" y="669"/>
			<point x="278" y="540" type="curve" smooth="yes"/>
		</contour>
		<contour>
			<point x="115" y="424" type="line"/>
			<point x="295" y="424" type="line"/>
			<point x="308" y="486" type="line"/>
			<point x="268" y="486" type="line"/>
			<point x="126" y="481" type="line"/>
		</contour>
	</outline>
</glyph>
<glyph name="Dhook" format="1">
  <advance width="600"/>
  <unicode hex="018A"/>
  <outline>
    <contour>
      <point x="143" y="0" type="line"/>
      <point x="212" y="0" type="line" smooth="yes"/>
      <point x="445" y="0"/>
      <point x="585" y="173"/>
      <point x="585" y="415" type="curve" smooth="yes"/>
      <point x="585" y="576"/>
      <point x="494" y="669"/>
      <point x="328" y="669" type="curve" smooth="yes"/>
      <point x="142" y="669"/>
      <point x="38" y="532"/>
      <point x="38" y="399" type="curve" smooth="yes"/>
      <point x="38" y="333"/>
      <point x="67" y="288"/>
      <point x="115" y="264" type="curve"/>
      <point x="153" y="315" type="line"/>
      <point x="118" y="336"/>
      <point x="101" y="367"/>
      <point x="101" y="409" type="curve" smooth="yes"/>
      <point x="101" y="505"/>
      <point x="176" y="605"/>
      <point x="299" y="605" type="curve" smooth="yes"/>
      <point x="329" y="605" type="line" smooth="yes"/>
      <point x="450" y="605"/>
      <point x="505" y="532"/>
      <point x="505" y="410" type="curve" smooth="yes"/>
      <point x="505" y="204"/>
      <point x="389" y="64"/>
      <point x="234" y="64" type="curve" smooth="yes"/>
      <point x="226" y="64" type="line"/>
      <point x="337" y="622" type="line"/>
      <point x="267" y="622" type="line"/>
    </contour>
    <contour>
      <point x="384" y="676" type="move" name="aboveUC"/>
    </contour>
    <contour>
      <point x="276" y="-20" type="move" name="belowLC"/>
    </contour>
  </outline>
</glyph>
<glyph name="florin" format="1">
  <advance width="600"/>
  <unicode hex="0192"/>
  <outline>
    <contour>
      <point x="68" y="-97" type="curve" smooth="yes"/>
      <point x="159" y="-98"/>
      <point x="217" y="-52"/>
      <point x="256" y="70" type="curve" smooth="yes"/>
      <point x="391" y="497" type="line" smooth="yes"/>
      <point x="412" y="566"/>
      <point x="445" y="611"/>
      <point x="506" y="611" type="curve" smooth="yes"/>
      <point x="539" y="611"/>
      <point x="560" y="598"/>
      <point x="575" y="587" type="curve"/>
      <point x="607" y="633" type="line"/>
      <point x="585" y="651"/>
      <point x="551" y="669"/>
      <point x="507" y="669" type="curve" smooth="yes"/>
      <point x="413" y="669"/>
      <point x="356" y="622"/>
      <point x="318" y="498" type="curve" smooth="yes"/>
      <point x="190" y="88" type="line" smooth="yes"/>
      <point x="161" y="-5"/>
      <point x="126" y="-36"/>
      <point x="76" y="-37" type="curve" smooth="yes"/>
      <point x="43" y="-38"/>
      <point x="18" y="-28"/>
      <point x="0" y="-16" type="curve"/>
      <point x="-28" y="-70" type="line"/>
      <point x="-10" y="-81"/>
      <point x="27" y="-97"/>
    </contour>
    <contour>
      <point x="167" y="352" type="line"/>
      <point x="496" y="352" type="line"/>
      <point x="508" y="408" type="line"/>
      <point x="248" y="408" type="line"/>
      <point x="177" y="403" type="line"/>
    </contour>
  </outline>
</glyph>
<glyph name="Ohorn" format="1">
  <advance width="600"/>
  <unicode hex="01A0"/>
  <outline>
    <contour>
      <point x="373" y="678" type="move" name="aboveUC"/>
    </contour>
    <contour>
      <point x="238" y="-22" type="move" name="belowLC"/>
    </contour>
    <contour>
      <point x="497" y="604" type="line"/>
      <point x="574" y="618"/>
      <point x="630" y="664"/>
      <point x="630" y="741" type="curve" smooth="yes"/>
      <point x="630" y="760"/>
      <point x="626" y="777"/>
      <point x="618" y="798" type="curve"/>
      <point x="555" y="776" type="line"/>
      <point x="562" y="761"/>
      <point x="564" y="747"/>
      <point x="564" y="735" type="curve" smooth="yes"/>
      <point x="564" y="682"/>
      <point x="526" y="644"/>
      <point x="459" y="640" type="curve"/>
    </contour>
    <component base="O"/>
  </outline>
</glyph>
<glyph name="ohorn" format="1">
  <advance width="600"/>
  <unicode hex="01A1"/>
  <outline>
    <contour>
      <point x="457" y="439" type="line"/>
      <point x="530" y="455"/>
      <point x="595" y="495"/>
      <point x="595" y="586" type="curve" smooth="yes"/>
      <point x="595" y="608"/>
      <point x="593" y="627"/>
      <point x="584" y="651" type="curve"/>
      <point x="523" y="629" type="line"/>
      <point x="529" y="612"/>
      <point x="531" y="596"/>
      <point x="531" y="581" type="curve" smooth="yes"/>
      <point x="528" y="514"/>
      <point x="485" y="480"/>
      <point x="417" y="474" type="curve"/>
    </contour>
    <component base="o"/>
    <contour>
      <point x="339" y="507" type="move" name="aboveLC"/>
    </contour>
    <contour>
      <point x="234" y="-20" type="move" name="belowLC"/>
    </contour>
  </outline>
</glyph>
<glyph name="Uhorn" format="1">
  <advance width="600"/>
  <unicode hex="01AF"/>
  <outline>
    <contour>
      <point x="373" y="679" type="move" name="aboveUC"/>
    </contour>
    <contour>
      <point x="233" y="-22" type="move" name="belowLC"/>
    </contour>
    <contour>
      <point x="579" y="620" type="line"/>
      <point x="659" y="633"/>
      <point x="716" y="675"/>
      <point x="716" y="751" type="curve" smooth="yes"/>
      <point x="716" y="770"/>
      <point x="713" y="787"/>
      <point x="705" y="808" type="curve"/>
      <point x="642" y="787" type="line"/>
      <point x="649" y="771"/>
      <point x="651" y="758"/>
      <point x="651" y="745" type="curve" smooth="yes"/>
      <point x="651" y="692"/>
      <point x="612" y="660"/>
      <point x="545" y="656" type="curve"/>
    </contour>
    <component base="U"/>
  </outline>
</glyph>
<glyph name="uhorn" format="1">
  <advance width="600"/>
  <unicode hex="01B0"/>
  <outline>
    <contour>
      <point x="342" y="508" type="move" name="aboveLC"/>
    </contour>
    <contour>
      <point x="253" y="-22" type="move" name="belowLC"/>
    </contour>
    <contour>
      <point x="537" y="451" type="line"/>
      <point x="594" y="464"/>
      <point x="657" y="510"/>
      <point x="657" y="593" type="curve" smooth="yes"/>
      <point x="657" y="611"/>
      <point x="653" y="634"/>
      <point x="646" y="654" type="curve"/>
      <point x="585" y="632" type="line"/>
      <point x="590" y="618"/>
      <point x="593" y="599"/>
      <point x="592" y="587" type="curve" smooth="yes"/>
      <point x="590" y="527"/>
      <point x="548" y="491"/>
      <point x="500" y="486" type="curve"/>
    </contour>
    <component base="u"/>
  </outline>
</glyph>
<glyph name="aturned" format="1">
	<unicode hex="0250"/>
	<advance width="600"/>
	<outline>
		<component base="a.a" xScale="-1" yScale="-1" xOffset="580" yOffset="486"/>
		<contour>
			<point name="aboveLC" x="347" y="507" type="move"/>
		</contour>
		<contour>
			<point name="belowLC" x="244" y="-20" type="move"/>
		</contour>
	</outline>
</glyph>
<glyph name="dotlessjstroke" format="1">
  <advance width="600"/>
  <unicode hex="025F"/>
  <outline>
    <contour>
      <point x="122" y="212" type="line"/>
      <point x="546" y="212" type="line"/>
      <point x="558" y="272" type="line"/>
      <point x="326" y="272" type="line"/>
      <point x="132" y="266" type="line"/>
    </contour>
    <component base="dotlessj"/>
    <contour>
      <point x="393" y="507" type="move" name="aboveLC"/>
    </contour>
    <contour>
      <point x="145" y="-219" type="move" name="belowLC"/>
    </contour>
  </outline>
</glyph>
<glyph name="hturned" format="1">
  <advance width="600"/>
  <unicode hex="0265"/>
  <outline>
    <contour>
      <point x="335" y="-205" type="line"/>
      <point x="411" y="-205" type="line"/>
      <point x="550" y="486" type="line"/>
      <point x="473" y="486" type="line"/>
      <point x="410" y="172" type="line"/>
      <point x="344" y="98"/>
      <point x="277" y="54"/>
      <point x="211" y="54" type="curve" smooth="yes"/>
      <point x="161" y="54"/>
      <point x="134" y="81"/>
      <point x="134" y="129" type="curve" smooth="yes"/>
      <point x="134" y="151"/>
      <point x="138" y="172"/>
      <point x="143" y="197" type="curve" smooth="yes"/>
      <point x="201" y="486" type="line"/>
      <point x="125" y="486" type="line"/>
      <point x="65" y="189" type="line" smooth="yes"/>
      <point x="60" y="162"/>
      <point x="56" y="137"/>
      <point x="56" y="109" type="curve" smooth="yes"/>
      <point x="56" y="36"/>
      <point x="95" y="-12"/>
      <point x="181" y="-12" type="curve" smooth="yes"/>
      <point x="267" y="-12"/>
      <point x="336" y="39"/>
      <point x="396" y="97" type="curve"/>
      <point x="400" y="97" type="line"/>
      <point x="384" y="36" type="line"/>
    </contour>
    <contour>
      <point x="337" y="507" type="move" name="aboveLC"/>
    </contour>
    <contour>
      <point x="238" y="-20" type="move" name="belowLC"/>
    </contour>
  </outline>
</glyph>
<glyph name="vhook" format="1">
	<unicode hex="028B"/>
	<advance width="600"/>
	<outline>
		<contour>
			<point x="243" y="-12" type="curve" smooth="yes"/>
			<point x="415" y="-12"/>
			<point x="529" y="180"/>
			<point x="529" y="351" type="curve" smooth="yes"/>
			<point x="529" y="452"/>
			<point x="482" y="498"/>
			<point x="403" y="498" type="curve" smooth="yes"/>
			<point x="381" y="498"/>
			<point x="363" y="496"/>
			<point x="345" y="490" type="curve"/>
			<point x="345" y="427" type="line"/>
			<point x="358" y="432"/>
			<point x="365" y="433"/>
			<point x="379" y="433" type="curve" smooth="yes"/>
			<point x="430" y="433"/>
			<point x="452" y="401"/>
			<point x="452" y="337" type="curve" smooth="yes"/>
			<point x="452" y="216"/>
			<point x="367" y="52"/>
			<point x="249" y="52" type="curve" smooth="yes"/>
			<point x="194" y="52"/>
			<point x="140" y="77"/>
			<point x="140" y="161" type="curve" smooth="yes"/>
			<point x="140" y="173"/>
			<point x="142" y="193"/>
			<point x="146" y="213" type="curve" smooth="yes"/>
			<point x="201" y="486" type="line"/>
			<point x="125" y="486" type="line"/>
			<point x="68" y="205" type="line" smooth="yes"/>
			<point x="64" y="185"/>
			<point x="61" y="163"/>
			<point x="61" y="146" type="curve" smooth="yes"/>
			<point x="61" y="34"/>
			<point x="143" y="-12"/>
		</contour>
		<contour>
			<point name="aboveLC" x="340" y="507" type="move"/>
		</contour>
		<contour>
			<point name="belowLC" x="248" y="-20" type="move"/>
		</contour>
	</outline>
</glyph>
<glyph name="jcrossedtail" format="1">
	<unicode hex="029D"/>
	<advance width="600"/>
	<outline>
		<component base="jcrossedtail.d"/>
		<component base="dotaccentcmb" xOffset="54"/>
		<contour>
			<point name="belowLC" x="145" y="-219" type="move"/>
		</contour>
	</outline>
</glyph>
<glyph name="ts" format="1">
	<unicode hex="02A6"/>
	<advance width="600"/>
	<outline>
		<contour>
			<point x="263" y="-12" type="curve" smooth="yes"/>
			<point x="457" y="-12"/>
			<point x="530" y="58"/>
			<point x="530" y="156" type="curve" smooth="yes"/>
			<point x="530" y="286"/>
			<point x="383" y="287"/>
			<point x="383" y="372" type="curve" smooth="yes"/>
			<point x="383" y="408"/>
			<point x="412" y="438"/>
			<point x="455" y="438" type="curve" smooth="yes"/>
			<point x="489" y="438"/>
			<point x="511" y="422"/>
			<point x="534" y="400" type="curve"/>
			<point x="573" y="444" type="line"/>
			<point x="543" y="476"/>
			<point x="505" y="498"/>
			<point x="457" y="498" type="curve" smooth="yes"/>
			<point x="377" y="498"/>
			<point x="310" y="444"/>
			<point x="310" y="363" type="curve" smooth="yes"/>
			<point x="310" y="243"/>
			<point x="457" y="251"/>
			<point x="457" y="146" type="curve" smooth="yes"/>
			<point x="457" y="95"/>
			<point x="412" y="49"/>
			<point x="280" y="49" type="curve" smooth="yes"/>
			<point x="181" y="49"/>
			<point x="143" y="80"/>
			<point x="143" y="138" type="curve" smooth="yes"/>
			<point x="143" y="157"/>
			<point x="147" y="170"/>
			<point x="150" y="186" type="curve" smooth="yes"/>
			<point x="199" y="424" type="line"/>
			<point x="395" y="424" type="line"/>
			<point x="408" y="486" type="line"/>
			<point x="212" y="486" type="line"/>
			<point x="244" y="642" type="line"/>
			<point x="181" y="642" type="line"/>
			<point x="139" y="486" type="line"/>
			<point x="63" y="481" type="line"/>
			<point x="52" y="424" type="line"/>
			<point x="123" y="424" type="line"/>
			<point x="74" y="190" type="line" smooth="yes"/>
			<point x="71" y="173"/>
			<point x="65" y="148"/>
			<point x="65" y="124" type="curve" smooth="yes"/>
			<point x="65" y="43"/>
			<point x="120" y="-12"/>
		</contour>
		<contour>
			<point name="aboveLC" x="361" y="635" type="move"/>
		</contour>
		<contour>
			<point name="belowLC" x="278" y="-20" type="move"/>
		</contour>
	</outline>
</glyph>
<glyph name="tesh" format="1">
  <advance width="600"/>
  <unicode hex="02A7"/>
  <outline>
    <contour>
      <point x="209" y="-12" type="curve" smooth="yes"/>
      <point x="245" y="-12"/>
      <point x="276" y="-1"/>
      <point x="297" y="9" type="curve"/>
      <point x="280" y="64" type="line"/>
      <point x="267" y="57"/>
      <point x="251" y="50"/>
      <point x="233" y="50" type="curve" smooth="yes"/>
      <point x="189" y="50"/>
      <point x="174" y="70"/>
      <point x="174" y="110" type="curve" smooth="yes"/>
      <point x="174" y="123"/>
      <point x="176" y="134"/>
      <point x="178" y="146" type="curve" smooth="yes"/>
      <point x="235" y="424" type="line"/>
      <point x="459" y="424" type="line"/>
      <point x="472" y="486" type="line"/>
      <point x="248" y="486" type="line"/>
      <point x="280" y="642" type="line"/>
      <point x="217" y="642" type="line"/>
      <point x="174" y="486" type="line"/>
      <point x="99" y="481" type="line"/>
      <point x="87" y="424" type="line"/>
      <point x="159" y="424" type="line"/>
      <point x="102" y="150" type="line" smooth="yes"/>
      <point x="99" y="132"/>
      <point x="96" y="116"/>
      <point x="96" y="96" type="curve" smooth="yes"/>
      <point x="96" y="36"/>
      <point x="127" y="-12"/>
    </contour>
    <contour>
      <point x="254" y="-217" type="curve" smooth="yes"/>
      <point x="347" y="-217"/>
      <point x="392" y="-154"/>
      <point x="411" y="-55" type="curve" smooth="yes"/>
      <point x="533" y="563" type="line" smooth="yes"/>
      <point x="545" y="626"/>
      <point x="564" y="662"/>
      <point x="617" y="662" type="curve" smooth="yes"/>
      <point x="630" y="662"/>
      <point x="642" y="657"/>
      <point x="651" y="653" type="curve"/>
      <point x="679" y="713" type="line"/>
      <point x="665" y="720"/>
      <point x="646" y="726"/>
      <point x="621" y="726" type="curve" smooth="yes"/>
      <point x="522" y="726"/>
      <point x="473" y="662"/>
      <point x="455" y="567" type="curve" smooth="yes"/>
      <point x="333" y="-55" type="line"/>
      <point x="321" y="-116"/>
      <point x="304" y="-153"/>
      <point x="259" y="-153" type="curve" smooth="yes"/>
      <point x="242" y="-153"/>
      <point x="227" y="-148"/>
      <point x="215" y="-144" type="curve"/>
      <point x="190" y="-204" type="line"/>
      <point x="205" y="-211"/>
      <point x="228" y="-217"/>
    </contour>
  </outline>
</glyph>
<glyph name="ringhalfrightmod" format="1">
  <advance width="600"/>
  <unicode hex="02BE"/>
  <outline>
    <contour>
      <point x="252" y="538" type="line"/>
      <point x="375" y="536"/>
      <point x="460" y="598"/>
      <point x="460" y="699" type="curve" smooth="yes"/>
      <point x="460" y="785"/>
      <point x="400" y="830"/>
      <point x="306" y="826" type="curve"/>
      <point x="297" y="780" type="line"/>
      <point x="360" y="780"/>
      <point x="397" y="754"/>
      <point x="397" y="695" type="curve" smooth="yes"/>
      <point x="397" y="631"/>
      <point x="342" y="587"/>
      <point x="262" y="584" type="curve"/>
    </contour>
  </outline>
</glyph>
<glyph name="ringhalfleftmod" format="1">
  <advance width="600"/>
  <unicode hex="02BF"/>
  <outline>
    <contour>
      <point x="440" y="539" type="curve"/>
      <point x="450" y="585" type="line"/>
      <point x="387" y="585"/>
      <point x="350" y="611"/>
      <point x="350" y="670" type="curve" smooth="yes"/>
      <point x="350" y="734"/>
      <point x="405" y="778"/>
      <point x="485" y="781" type="curve"/>
      <point x="495" y="827" type="line"/>
      <point x="372" y="829"/>
      <point x="287" y="767"/>
      <point x="287" y="666" type="curve" smooth="yes"/>
      <point x="287" y="580"/>
      <point x="347" y="535"/>
    </contour>
  </outline>
</glyph>
<glyph name="acutecmb" format="1">
  <advance width="600"/>
  <unicode hex="0301"/>
  <outline>
    <contour>
      <point x="328" y="579" type="line"/>
      <point x="508" y="717" type="line"/>
      <point x="461" y="777" type="line"/>
      <point x="293" y="624" type="line"/>
    </contour>
    <contour>
      <point x="339" y="507" type="move" name="_aboveLC"/>
    </contour>
    <contour>
      <point x="300" y="507" type="move" name="aboveLC"/>
    </contour>
  </outline>
</glyph>
<glyph name="macroncmb" format="1">
	<unicode hex="0304"/>
	<advance width="600"/>
	<outline>
		<contour>
			<point x="231" y="601" type="line"/>
			<point x="486" y="601" type="line"/>
			<point x="496" y="655" type="line"/>
			<point x="241" y="655" type="line"/>
		</contour>
		<contour>
			<point name="_aboveLC" x="339" y="507" type="move"/>
		</contour>
		<contour>
			<point name="aboveLC" x="337" y="571" type="move"/>
		</contour>
	</outline>
</glyph>
<glyph name="dotaccentcmb" format="1">
  <advance width="600"/>
  <unicode hex="0307"/>
  <outline>
    <contour>
      <point x="361" y="589" type="curve" smooth="yes"/>
      <point x="399" y="589"/>
      <point x="431" y="619"/>
      <point x="431" y="658" type="curve" smooth="yes"/>
      <point x="431" y="692"/>
      <point x="408" y="711"/>
      <point x="373" y="711" type="curve" smooth="yes"/>
      <point x="336" y="711"/>
      <point x="304" y="680"/>
      <point x="304" y="642" type="curve" smooth="yes"/>
      <point x="304" y="608"/>
      <point x="329" y="589"/>
    </contour>
    <contour>
      <point x="339" y="507" type="move" name="_aboveLC"/>
    </contour>
    <contour>
      <point x="377" y="706" type="move" name="aboveLC"/>
    </contour>
  </outline>
</glyph>
<glyph name="dieresiscmb" format="1">
  <advance width="600"/>
  <unicode hex="0308"/>
  <outline>
    <contour>
      <point x="267" y="589" type="curve" smooth="yes"/>
      <point x="299" y="589"/>
      <point x="323" y="615"/>
      <point x="323" y="648" type="curve" smooth="yes"/>
      <point x="323" y="676"/>
      <point x="305" y="693"/>
      <point x="280" y="693" type="curve" smooth="yes"/>
      <point x="248" y="693"/>
      <point x="224" y="666"/>
      <point x="224" y="633" type="curve" smooth="yes"/>
      <point x="224" y="605"/>
      <point x="242" y="589"/>
    </contour>
    <contour>
      <point x="453" y="589" type="curve" smooth="yes"/>
      <point x="484" y="589"/>
      <point x="509" y="615"/>
      <point x="509" y="648" type="curve" smooth="yes"/>
      <point x="509" y="676"/>
      <point x="491" y="693"/>
      <point x="466" y="693" type="curve" smooth="yes"/>
      <point x="434" y="693"/>
      <point x="410" y="666"/>
      <point x="410" y="633" type="curve" smooth="yes"/>
      <point x="410" y="605"/>
      <point x="428" y="589"/>
    </contour>
    <contour>
      <point x="339" y="507" type="move" name="_aboveLC"/>
    </contour>
    <contour>
      <point x="370" y="674" type="move" name="aboveLC"/>
    </contour>
  </outline>
</glyph>
<glyph name="righttackbelowcmb" format="1">
	<unicode hex="0319"/>
	<advance width="600"/>
	<outline>
		<contour>
			<point x="106" y="-249" type="line"/>
			<point x="155" y="-249" type="line"/>
			<point x="168" y="-177" type="line"/>
			<point x="278" y="-177" type="line"/>
			<point x="287" y="-130" type="line"/>
			<point x="178" y="-130" type="line"/>
			<point x="192" y="-58" type="line"/>
			<point x="143" y="-58" type="line"/>
		</contour>
		<contour>
			<point name="_belowLC" x="234" y="-20" type="move"/>
		</contour>
	</outline>
</glyph>
<glyph name="uptackbelowcmb" format="1">
  <advance width="600"/>
  <unicode hex="031D"/>
  <outline>
    <contour>
      <point x="103" y="-211" type="line"/>
      <point x="290" y="-211" type="line"/>
      <point x="299" y="-164" type="line"/>
      <point x="230" y="-164" type="line"/>
      <point x="251" y="-58" type="line"/>
      <point x="202" y="-58" type="line"/>
      <point x="181" y="-164" type="line"/>
      <point x="112" y="-164" type="line"/>
    </contour>
    <contour>
      <point x="234" y="-20" type="move" name="_belowLC"/>
    </contour>
  </outline>
</glyph>
<glyph name="plusbelowcmb" format="1">
	<unicode hex="031F"/>
	<advance width="600"/>
	<outline>
		<contour>
			<point x="165" y="-249" type="line"/>
			<point x="213" y="-249" type="line"/>
			<point x="228" y="-177" type="line"/>
			<point x="297" y="-177" type="line"/>
			<point x="306" y="-130" type="line"/>
			<point x="237" y="-130" type="line"/>
			<point x="251" y="-58" type="line"/>
			<point x="202" y="-58" type="line"/>
			<point x="188" y="-130" type="line"/>
			<point x="118" y="-130" type="line"/>
			<point x="109" y="-177" type="line"/>
			<point x="179" y="-177" type="line"/>
		</contour>
		<contour>
			<point name="_belowLC" x="234" y="-20" type="move"/>
		</contour>
	</outline>
</glyph>
<glyph name="tildebelowcmb" format="1">
	<unicode hex="0330"/>
	<advance width="600"/>
	<outline>
		<component base="tildecmb" xOffset="-156" yOffset="-800"/>
		<contour>
			<point name="_belowLC" x="234" y="-20" type="move"/>
		</contour>
	</outline>
</glyph>
<glyph name="perispomenicmb" format="1">
	<unicode hex="0342"/>
	<advance width="600"/>
	<outline>
		<component base="tildecmb"/>
		<contour>
			<point name="_aboveLC" x="339" y="507" type="move"/>
		</contour>
	</outline>
</glyph>
<glyph name="pi" format="1">
  <advance width="600"/>
  <unicode hex="03C0"/>
  <outline>
    <contour>
      <point x="134" y="-5" type="line"/>
      <point x="172" y="139"/>
      <point x="207" y="295"/>
      <point x="235" y="433" type="curve"/>
      <point x="165" y="433" type="line"/>
      <point x="139" y="300"/>
      <point x="103" y="144"/>
      <point x="59" y="0" type="curve"/>
    </contour>
    <contour>
      <point x="68" y="425" type="line"/>
      <point x="583" y="425" type="line"/>
      <point x="596" y="486" type="line"/>
      <point x="149" y="486" type="line"/>
      <point x="79" y="481" type="line"/>
    </contour>
    <contour>
      <point x="429" y="-12" type="curve" smooth="yes"/>
      <point x="456" y="-12"/>
      <point x="481" y="-5"/>
      <point x="496" y="1" type="curve"/>
      <point x="487" y="58" type="line"/>
      <point x="476" y="54"/>
      <point x="465" y="50"/>
      <point x="452" y="50" type="curve" smooth="yes"/>
      <point x="434" y="50"/>
      <point x="422" y="60"/>
      <point x="422" y="82" type="curve" smooth="yes"/>
      <point x="422" y="115"/>
      <point x="462" y="295"/>
      <point x="497" y="432" type="curve"/>
      <point x="425" y="432" type="line"/>
      <point x="395" y="302"/>
      <point x="350" y="116"/>
      <point x="350" y="67" type="curve" smooth="yes"/>
      <point x="350" y="17"/>
      <point x="377" y="-12"/>
    </contour>
  </outline>
</glyph>
<glyph name="figuredash" format="1">
  <advance width="600"/>
  <unicode hex="2012"/>
  <outline>
    <contour>
      <point x="62" y="219" type="line"/>
      <point x="502" y="219" type="line"/>
      <point x="516" y="285" type="line"/>
      <point x="76" y="285" type="line"/>
    </contour>
  </outline>
</glyph>
<glyph name="emdash" format="1">
  <advance width="600"/>
  <unicode hex="2014"/>
  <outline>
    <contour>
      <point x="2" y="218" type="line"/>
      <point x="562" y="218" type="line"/>
      <point x="576" y="285" type="line"/>
      <point x="16" y="285" type="line"/>
    </contour>
  </outline>
</glyph>
<glyph name="quoteleft" format="1">
  <advance width="600"/>
  <unicode hex="2018"/>
  <outline>
    <contour>
      <point x="328" y="373" type="curve" smooth="yes"/>
      <point x="377" y="373"/>
      <point x="415" y="413"/>
      <point x="415" y="459" type="curve" smooth="yes"/>
      <point x="415" y="497"/>
      <point x="392" y="523"/>
      <point x="354" y="523" type="curve" smooth="yes"/>
      <point x="329" y="523"/>
      <point x="312" y="512"/>
      <point x="294" y="495" type="curve"/>
      <point x="333" y="419" type="line"/>
      <point x="333" y="504" type="line"/>
      <point x="343" y="574"/>
      <point x="399" y="628"/>
      <point x="483" y="654" type="curve"/>
      <point x="471" y="697" type="line"/>
      <point x="340" y="662"/>
      <point x="257" y="571"/>
      <point x="257" y="462" type="curve" smooth="yes"/>
      <point x="257" y="401"/>
      <point x="288" y="373"/>
    </contour>
  </outline>
</glyph>
<glyph name="quoteright" format="1">
  <advance width="600"/>
  <unicode hex="2019"/>
  <outline>
    <contour>
      <point x="233" y="373" type="line"/>
      <point x="364" y="409"/>
      <point x="446" y="500"/>
      <point x="446" y="610" type="curve" smooth="yes"/>
      <point x="446" y="670"/>
      <point x="414" y="699"/>
      <point x="371" y="699" type="curve" smooth="yes"/>
      <point x="326" y="699"/>
      <point x="287" y="660"/>
      <point x="287" y="611" type="curve" smooth="yes"/>
      <point x="287" y="573"/>
      <point x="309" y="549"/>
      <point x="340" y="549" type="curve" smooth="yes"/>
      <point x="365" y="549"/>
      <point x="389" y="561"/>
      <point x="408" y="578" type="curve"/>
      <point x="369" y="653" type="line"/>
      <point x="370" y="568" type="line"/>
      <point x="359" y="498"/>
      <point x="306" y="444"/>
      <point x="221" y="418" type="curve"/>
    </contour>
  </outline>
</glyph>
<glyph name="dagger" format="1">
  <advance width="600"/>
  <unicode hex="2020"/>
  <outline>
    <contour>
      <point x="188" y="-80" type="line"/>
      <point x="254" y="-80" type="line"/>
      <point x="365" y="496" type="line"/>
      <point x="500" y="491" type="line"/>
      <point x="513" y="557" type="line"/>
      <point x="376" y="552" type="line"/>
      <point x="412" y="712" type="line"/>
      <point x="346" y="712" type="line"/>
      <point x="319" y="552" type="line"/>
      <point x="184" y="557" type="line"/>
      <point x="171" y="491" type="line"/>
      <point x="309" y="496" type="line"/>
    </contour>
  </outline>
</glyph>
<glyph name="daggerdbl" format="1">
  <advance width="600"/>
  <unicode hex="2021"/>
  <outline>
    <contour>
      <point x="192" y="-80" type="line"/>
      <point x="258" y="-80" type="line"/>
      <point x="284" y="79" type="line"/>
      <point x="420" y="74" type="line"/>
      <point x="433" y="140" type="line"/>
      <point x="295" y="134" type="line"/>
      <point x="336" y="316" type="line"/>
      <point x="367" y="498" type="line"/>
      <point x="503" y="491" type="line"/>
      <point x="515" y="557" type="line"/>
      <point x="379" y="552" type="line"/>
      <point x="414" y="712" type="line"/>
      <point x="348" y="712" type="line"/>
      <point x="321" y="552" type="line"/>
      <point x="186" y="557" type="line"/>
      <point x="173" y="491" type="line"/>
      <point x="311" y="498" type="line"/>
      <point x="270" y="316" type="line"/>
      <point x="239" y="134" type="line"/>
      <point x="103" y="140" type="line"/>
      <point x="91" y="74" type="line"/>
      <point x="227" y="79" type="line"/>
    </contour>
  </outline>
</glyph>
<glyph name="bullet" format="1">
  <advance width="600"/>
  <unicode hex="2022"/>
  <outline>
    <contour>
      <point x="265" y="117" type="curve" smooth="yes"/>
      <point x="358" y="117"/>
      <point x="440" y="183"/>
      <point x="440" y="287" type="curve" smooth="yes"/>
      <point x="440" y="360"/>
      <point x="387" y="407"/>
      <point x="318" y="407" type="curve" smooth="yes"/>
      <point x="225" y="407"/>
      <point x="142" y="341"/>
      <point x="142" y="237" type="curve" smooth="yes"/>
      <point x="142" y="164"/>
      <point x="197" y="117"/>
    </contour>
  </outline>
</glyph>
<glyph name="guilsinglleft" format="1">
	<unicode hex="2039"/>
	<advance width="600"/>
	<outline>
		<contour>
			<point x="304" y="52" type="line"/>
			<point x="346" y="82" type="line"/>
			<point x="260" y="247" type="line"/>
			<point x="411" y="415" type="line"/>
			<point x="381" y="449" type="line"/>
			<point x="197" y="286" type="line"/>
			<point x="185" y="222" type="line"/>
		</contour>
	</outline>
</glyph>
<glyph name="guilsinglright" format="1">
  <advance width="600"/>
  <unicode hex="203A"/>
  <outline>
    <contour>
      <point x="175" y="53" type="line"/>
      <point x="359" y="216" type="line"/>
      <point x="371" y="280" type="line"/>
      <point x="253" y="450" type="line"/>
      <point x="210" y="420" type="line"/>
      <point x="296" y="255" type="line"/>
      <point x="145" y="87" type="line"/>
    </contour>
  </outline>
</glyph>
<glyph name="overline" format="1">
  <advance width="600"/>
  <unicode hex="203E"/>
  <outline>
    <contour>
      <point x="123" y="577" type="line"/>
      <point x="586" y="577" type="line"/>
      <point x="596" y="628" type="line"/>
      <point x="132" y="628" type="line"/>
    </contour>
  </outline>
</glyph>
<glyph name="fraction" format="1">
  <advance width="600"/>
  <unicode hex="2044"/>
  <outline>
    <contour>
      <point x="8" y="29" type="line"/>
      <point x="217" y="233" type="line"/>
      <point x="192" y="262" type="line"/>
      <point x="-28" y="72" type="line"/>
    </contour>
    <contour>
      <point x="393" y="390" type="line"/>
      <point x="613" y="578" type="line"/>
      <point x="576" y="621" type="line"/>
      <point x="368" y="418" type="line"/>
    </contour>
  </outline>
</glyph>
<glyph name="colonmonetary" format="1">
  <advance width="600"/>
  <unicode hex="20A1"/>
  <outline>
    <contour>
      <point x="285" y="-12" type="curve"/>
      <point x="374" y="-12"/>
      <point x="442" y="26"/>
      <point x="501" y="85" type="curve"/>
      <point x="460" y="135" type="line"/>
      <point x="413" y="84"/>
      <point x="361" y="53"/>
      <point x="300" y="53" type="curve" smooth="yes"/>
      <point x="215" y="53"/>
      <point x="164" y="123"/>
      <point x="164" y="238" type="curve" smooth="yes"/>
      <point x="164" y="431"/>
      <point x="273" y="588"/>
      <point x="416" y="588" type="curve" smooth="yes"/>
      <point x="473" y="588"/>
      <point x="505" y="560"/>
      <point x="535" y="513" type="curve"/>
      <point x="584" y="551" type="line"/>
      <point x="552" y="604"/>
      <point x="503" y="650"/>
      <point x="419" y="650" type="curve" smooth="yes"/>
      <point x="235" y="650"/>
      <point x="86" y="483"/>
      <point x="86" y="236" type="curve" smooth="yes"/>
      <point x="86" y="83"/>
      <point x="163" y="-12"/>
    </contour>
    <contour>
      <point x="136" y="-110" type="line"/>
      <point x="172" y="-110" type="line"/>
      <point x="446" y="748" type="line"/>
      <point x="409" y="748" type="line"/>
    </contour>
    <contour>
      <point x="232" y="-110" type="line"/>
      <point x="268" y="-110" type="line"/>
      <point x="542" y="748" type="line"/>
      <point x="505" y="748" type="line"/>
    </contour>
  </outline>
</glyph>
<glyph name="lira" format="1">
  <advance width="600"/>
  <unicode hex="20A4"/>
  <outline>
    <contour>
      <point x="28" y="0" type="line"/>
      <point x="462" y="0" type="line"/>
      <point x="476" y="65" type="line"/>
      <point x="160" y="65" type="line"/>
      <point x="161" y="70" type="line"/>
      <point x="234" y="119"/>
      <point x="271" y="181"/>
      <point x="270" y="273" type="curve" smooth="yes"/>
      <point x="269" y="324"/>
      <point x="258" y="386"/>
      <point x="258" y="433" type="curve" smooth="yes"/>
      <point x="258" y="540"/>
      <point x="316" y="588"/>
      <point x="395" y="588" type="curve" smooth="yes"/>
      <point x="446" y="588"/>
      <point x="484" y="561"/>
      <point x="509" y="521" type="curve"/>
      <point x="561" y="561" type="line"/>
      <point x="527" y="611"/>
      <point x="471" y="650"/>
      <point x="395" y="650" type="curve" smooth="yes"/>
      <point x="275" y="650"/>
      <point x="187" y="576"/>
      <point x="187" y="439" type="curve" smooth="yes"/>
      <point x="187" y="388"/>
      <point x="200" y="316"/>
      <point x="200" y="262" type="curve" smooth="yes"/>
      <point x="200" y="173"/>
      <point x="150" y="95"/>
      <point x="38" y="46" type="curve"/>
    </contour>
    <contour>
      <point x="94" y="345" type="line"/>
      <point x="456" y="345" type="line"/>
      <point x="465" y="389" type="line"/>
      <point x="192" y="389" type="line"/>
      <point x="103" y="386" type="line"/>
    </contour>
    <contour>
      <point x="73" y="239" type="line"/>
      <point x="434" y="239" type="line"/>
      <point x="443" y="283" type="line"/>
      <point x="171" y="283" type="line"/>
      <point x="82" y="279" type="line"/>
    </contour>
  </outline>
</glyph>
<glyph name="naira" format="1">
  <advance width="600"/>
  <unicode hex="20A6"/>
  <outline>
    <contour>
      <point x="66" y="0" type="line"/>
      <point x="126" y="0" type="line"/>
      <point x="179" y="266" type="line"/>
      <point x="226" y="568" type="line"/>
      <point x="231" y="568" type="line"/>
      <point x="268" y="367" type="line"/>
      <point x="334" y="0" type="line"/>
      <point x="412" y="0" type="line"/>
      <point x="539" y="638" type="line"/>
      <point x="479" y="638" type="line"/>
      <point x="427" y="372" type="line"/>
      <point x="379" y="66" type="line"/>
      <point x="374" y="66" type="line"/>
      <point x="337" y="272" type="line"/>
      <point x="272" y="638" type="line"/>
      <point x="193" y="638" type="line"/>
    </contour>
    <contour>
      <point x="58" y="353" type="line"/>
      <point x="559" y="353" type="line"/>
      <point x="567" y="391" type="line"/>
      <point x="141" y="391" type="line"/>
      <point x="65" y="386" type="line"/>
    </contour>
    <contour>
      <point x="38" y="247" type="line"/>
      <point x="539" y="247" type="line"/>
      <point x="547" y="285" type="line"/>
      <point x="121" y="285" type="line"/>
      <point x="45" y="280" type="line"/>
    </contour>
  </outline>
</glyph>
<glyph name="peseta" format="1">
  <advance width="600"/>
  <unicode hex="20A7"/>
  <outline>
    <contour>
      <point x="72" y="0" type="line"/>
      <point x="144" y="0" type="line"/>
      <point x="195" y="250" type="line"/>
      <point x="267" y="250" type="line" smooth="yes"/>
      <point x="415" y="250"/>
      <point x="535" y="327"/>
      <point x="535" y="488" type="curve" smooth="yes"/>
      <point x="535" y="597"/>
      <point x="459" y="638"/>
      <point x="344" y="638" type="curve" smooth="yes"/>
      <point x="200" y="638" type="line"/>
    </contour>
    <contour>
      <point x="205" y="302" type="line"/>
      <point x="261" y="587" type="line"/>
      <point x="322" y="587" type="line" smooth="yes"/>
      <point x="411" y="587"/>
      <point x="462" y="559"/>
      <point x="462" y="481" type="curve" smooth="yes"/>
      <point x="462" y="366"/>
      <point x="391" y="302"/>
      <point x="266" y="302" type="curve" smooth="yes"/>
    </contour>
    <contour>
      <point x="80" y="424" type="line"/>
      <point x="587" y="424" type="line"/>
      <point x="597" y="473" type="line"/>
      <point x="173" y="473" type="line"/>
      <point x="89" y="468" type="line"/>
    </contour>
  </outline>
</glyph>
<glyph name="Euro" format="1">
  <advance width="600"/>
  <unicode hex="20AC"/>
  <outline>
    <contour>
      <point x="306" y="-12" type="curve" smooth="yes"/>
      <point x="393" y="-12"/>
      <point x="463" y="25"/>
      <point x="522" y="84" type="curve"/>
      <point x="483" y="133" type="line"/>
      <point x="433" y="84"/>
      <point x="382" y="54"/>
      <point x="322" y="54" type="curve" smooth="yes"/>
      <point x="235" y="54"/>
      <point x="188" y="123"/>
      <point x="188" y="239" type="curve" smooth="yes"/>
      <point x="188" y="441"/>
      <point x="303" y="588"/>
      <point x="432" y="588" type="curve" smooth="yes"/>
      <point x="488" y="588"/>
      <point x="521" y="561"/>
      <point x="552" y="514" type="curve"/>
      <point x="602" y="554" type="line"/>
      <point x="567" y="608"/>
      <point x="519" y="650"/>
      <point x="440" y="650" type="curve" smooth="yes"/>
      <point x="259" y="650"/>
      <point x="110" y="488"/>
      <point x="110" y="234" type="curve" smooth="yes"/>
      <point x="110" y="81"/>
      <point x="185" y="-12"/>
    </contour>
    <contour>
      <point x="57" y="351" type="line"/>
      <point x="481" y="351" type="line"/>
      <point x="490" y="396" type="line"/>
      <point x="136" y="396" type="line"/>
      <point x="66" y="391" type="line"/>
    </contour>
    <contour>
      <point x="34" y="239" type="line"/>
      <point x="417" y="239" type="line"/>
      <point x="427" y="283" type="line"/>
      <point x="111" y="283" type="line"/>
      <point x="43" y="278" type="line"/>
    </contour>
  </outline>
</glyph>
<glyph name="tenge" format="1">
  <advance width="600"/>
  <unicode hex="20B8"/>
  <outline>
    <contour>
      <point x="202" y="0" type="line"/>
      <point x="280" y="0" type="line"/>
      <point x="375" y="474" type="line"/>
      <point x="554" y="474" type="line"/>
      <point x="564" y="522" type="line"/>
      <point x="202" y="522" type="line"/>
      <point x="124" y="518" type="line"/>
      <point x="115" y="474" type="line"/>
      <point x="296" y="474" type="line"/>
    </contour>
    <contour>
      <point x="138" y="589" type="line"/>
      <point x="577" y="589" type="line"/>
      <point x="587" y="638" type="line"/>
      <point x="148" y="638" type="line"/>
    </contour>
  </outline>
</glyph>
<glyph name="soundcopyright" format="1">
	<unicode hex="2117"/>
	<advance width="600"/>
	<outline>
		<contour>
			<point x="238" y="-11" type="curve" smooth="yes"/>
			<point x="430" y="-11"/>
			<point x="583" y="161"/>
			<point x="583" y="400" type="curve" smooth="yes"/>
			<point x="583" y="555"/>
			<point x="499" y="653"/>
			<point x="371" y="653" type="curve" smooth="yes"/>
			<point x="180" y="653"/>
			<point x="27" y="486"/>
			<point x="27" y="246" type="curve" smooth="yes"/>
			<point x="27" y="89"/>
			<point x="110" y="-11"/>
		</contour>
		<contour>
			<point x="244" y="30" type="curve" smooth="yes"/>
			<point x="134" y="30"/>
			<point x="71" y="118"/>
			<point x="71" y="250" type="curve" smooth="yes"/>
			<point x="71" y="459"/>
			<point x="200" y="613"/>
			<point x="363" y="613" type="curve" smooth="yes"/>
			<point x="474" y="613"/>
			<point x="539" y="527"/>
			<point x="539" y="395" type="curve" smooth="yes"/>
			<point x="539" y="188"/>
			<point x="408" y="30"/>
		</contour>
		<contour>
			<point x="172" y="142" type="line"/>
			<point x="229" y="142" type="line"/>
			<point x="293" y="464" type="line"/>
			<point x="281" y="456" type="line"/>
			<point x="338" y="456" type="line" smooth="yes"/>
			<point x="383" y="456"/>
			<point x="406" y="442"/>
			<point x="406" y="400" type="curve" smooth="yes"/>
			<point x="406" y="336"/>
			<point x="366" y="305"/>
			<point x="300" y="305" type="curve" smooth="yes"/>
			<point x="247" y="305" type="line"/>
			<point x="235" y="259" type="line"/>
			<point x="298" y="259" type="line" smooth="yes"/>
			<point x="384" y="259"/>
			<point x="466" y="301"/>
			<point x="466" y="407" type="curve" smooth="yes"/>
			<point x="466" y="478"/>
			<point x="417" y="504"/>
			<point x="357" y="504" type="curve" smooth="yes"/>
			<point x="244" y="504" type="line"/>
		</contour>
	</outline>
</glyph>
<glyph name="trademark" format="1">
  <advance width="600"/>
  <unicode hex="2122"/>
  <outline>
    <contour>
      <point x="115" y="367" type="line"/>
      <point x="168" y="367" type="line"/>
      <point x="223" y="638" type="line"/>
      <point x="169" y="638" type="line"/>
    </contour>
    <contour>
      <point x="307" y="367" type="line"/>
      <point x="358" y="367" type="line"/>
      <point x="386" y="508" type="line"/>
      <point x="400" y="612" type="line"/>
      <point x="404" y="612" type="line"/>
      <point x="438" y="421" type="line"/>
      <point x="479" y="421" type="line"/>
      <point x="589" y="612" type="line"/>
      <point x="593" y="612" type="line"/>
      <point x="566" y="508" type="line"/>
      <point x="538" y="367" type="line"/>
      <point x="589" y="367" type="line"/>
      <point x="650" y="676" type="line"/>
      <point x="583" y="676" type="line"/>
      <point x="516" y="560" type="line"/>
      <point x="472" y="479" type="line"/>
      <point x="468" y="479" type="line"/>
      <point x="457" y="560" type="line"/>
      <point x="435" y="676" type="line"/>
      <point x="369" y="676" type="line"/>
    </contour>
    <contour>
      <point x="71" y="630" type="line"/>
      <point x="315" y="630" type="line"/>
      <point x="325" y="676" type="line"/>
      <point x="82" y="676" type="line"/>
    </contour>
  </outline>
</glyph>
<glyph name="arrowleft" format="1">
  <advance width="600"/>
  <unicode hex="2190"/>
  <outline>
    <contour>
      <point x="282" y="-15" type="line"/>
      <point x="321" y="28" type="line"/>
      <point x="122" y="220" type="line"/>
      <point x="569" y="220" type="line"/>
      <point x="569" y="282" type="line"/>
      <point x="122" y="282" type="line"/>
      <point x="321" y="475" type="line"/>
      <point x="282" y="518" type="line"/>
      <point x="17" y="254" type="line"/>
      <point x="17" y="249" type="line"/>
    </contour>
  </outline>
</glyph>
<glyph name="arrowup" format="1">
  <advance width="600"/>
  <unicode hex="2191"/>
  <outline>
    <contour>
      <point x="264" y="-25" type="line"/>
      <point x="328" y="-25" type="line"/>
      <point x="327" y="423" type="line"/>
      <point x="520" y="224" type="line"/>
      <point x="562" y="263" type="line"/>
      <point x="298" y="529" type="line"/>
      <point x="294" y="529" type="line"/>
      <point x="30" y="263" type="line"/>
      <point x="73" y="224" type="line"/>
      <point x="266" y="423" type="line"/>
    </contour>
  </outline>
</glyph>
<glyph name="arrowdown" format="1">
  <advance width="600"/>
  <unicode hex="2193"/>
  <outline>
    <contour>
      <point x="298" y="-25" type="line"/>
      <point x="302" y="-25" type="line"/>
      <point x="567" y="247" type="line"/>
      <point x="523" y="287" type="line"/>
      <point x="332" y="82" type="line"/>
      <point x="332" y="527" type="line"/>
      <point x="268" y="527" type="line"/>
      <point x="268" y="82" type="line"/>
      <point x="77" y="287" type="line"/>
      <point x="33" y="247" type="line"/>
    </contour>
  </outline>
</glyph>
<glyph name="arrowupleft" format="1">
  <advance width="600"/>
  <unicode hex="2196"/>
  <outline>
    <contour>
      <point x="466" y="34" type="line"/>
      <point x="511" y="80" type="line"/>
      <point x="196" y="394" type="line"/>
      <point x="477" y="385" type="line"/>
      <point x="479" y="444" type="line"/>
      <point x="100" y="449" type="line"/>
      <point x="97" y="446" type="line"/>
      <point x="101" y="66" type="line"/>
      <point x="161" y="69" type="line"/>
      <point x="151" y="349" type="line"/>
    </contour>
  </outline>
</glyph>
<glyph name="arrowdownright" format="1">
  <advance width="600"/>
  <unicode hex="2198"/>
  <outline>
    <contour>
      <point x="499" y="55" type="line"/>
      <point x="502" y="58" type="line"/>
      <point x="497" y="438" type="line"/>
      <point x="438" y="435" type="line"/>
      <point x="448" y="155" type="line"/>
      <point x="132" y="470" type="line"/>
      <point x="88" y="424" type="line"/>
      <point x="403" y="110" type="line"/>
      <point x="122" y="119" type="line"/>
      <point x="119" y="60" type="line"/>
    </contour>
  </outline>
</glyph>
<glyph name="arrowupdnbse" format="1">
  <advance width="600"/>
  <unicode hex="21A8"/>
  <outline>
    <contour>
      <point x="60" y="-135" type="line"/>
      <point x="540" y="-135" type="line"/>
      <point x="540" y="-75" type="line"/>
      <point x="60" y="-75" type="line"/>
    </contour>
    <component base="arrowupdn"/>
  </outline>
</glyph>
<glyph name="arrowdblleft" format="1">
  <advance width="600"/>
  <unicode hex="21D0"/>
  <outline>
    <contour>
      <point x="286" y="-15" type="line"/>
      <point x="325" y="28" type="line"/>
      <point x="84" y="252" type="line"/>
      <point x="325" y="476" type="line"/>
      <point x="286" y="519" type="line"/>
      <point x="14" y="254" type="line"/>
      <point x="14" y="250" type="line"/>
    </contour>
    <contour>
      <point x="146" y="318" type="line"/>
      <point x="566" y="318" type="line"/>
      <point x="566" y="368" type="line"/>
      <point x="146" y="368" type="line"/>
    </contour>
    <contour>
      <point x="146" y="136" type="line"/>
      <point x="566" y="136" type="line"/>
      <point x="566" y="186" type="line"/>
      <point x="146" y="186" type="line"/>
    </contour>
  </outline>
</glyph>
<glyph name="arrowdblup" format="1">
  <advance width="600"/>
  <unicode hex="21D1"/>
  <outline>
    <contour>
      <point x="73" y="220" type="line"/>
      <point x="296" y="461" type="line"/>
      <point x="520" y="220" type="line"/>
      <point x="564" y="259" type="line"/>
      <point x="298" y="531" type="line"/>
      <point x="294" y="531" type="line"/>
      <point x="29" y="259" type="line"/>
    </contour>
    <contour>
      <point x="180" y="-21" type="line"/>
      <point x="230" y="-21" type="line"/>
      <point x="230" y="398" type="line"/>
      <point x="180" y="398" type="line"/>
    </contour>
    <contour>
      <point x="362" y="-21" type="line"/>
      <point x="413" y="-21" type="line"/>
      <point x="413" y="398" type="line"/>
      <point x="362" y="398" type="line"/>
    </contour>
  </outline>
</glyph>
<glyph name="arrowdblright" format="1">
  <advance width="600"/>
  <unicode hex="21D2"/>
  <outline>
    <contour>
      <point x="307" y="-15" type="line"/>
      <point x="579" y="250" type="line"/>
      <point x="579" y="254" type="line"/>
      <point x="307" y="519" type="line"/>
      <point x="268" y="476" type="line"/>
      <point x="509" y="252" type="line"/>
      <point x="268" y="28" type="line"/>
    </contour>
    <contour>
      <point x="27" y="318" type="line"/>
      <point x="446" y="318" type="line"/>
      <point x="446" y="368" type="line"/>
      <point x="27" y="368" type="line"/>
    </contour>
    <contour>
      <point x="27" y="136" type="line"/>
      <point x="446" y="136" type="line"/>
      <point x="446" y="186" type="line"/>
      <point x="27" y="186" type="line"/>
    </contour>
  </outline>
</glyph>
<glyph name="arrowdbldown" format="1">
  <advance width="600"/>
  <unicode hex="21D3"/>
  <outline>
    <contour>
      <point x="294" y="-24" type="line"/>
      <point x="298" y="-24" type="line"/>
      <point x="564" y="248" type="line"/>
      <point x="520" y="287" type="line"/>
      <point x="296" y="46" type="line"/>
      <point x="73" y="287" type="line"/>
      <point x="29" y="248" type="line"/>
    </contour>
    <contour>
      <point x="180" y="108" type="line"/>
      <point x="230" y="108" type="line"/>
      <point x="230" y="527" type="line"/>
      <point x="180" y="527" type="line"/>
    </contour>
    <contour>
      <point x="362" y="108" type="line"/>
      <point x="413" y="108" type="line"/>
      <point x="413" y="527" type="line"/>
      <point x="362" y="527" type="line"/>
    </contour>
  </outline>
</glyph>
<glyph name="partialdiff" format="1">
  <advance width="600"/>
  <unicode hex="2202"/>
  <outline>
    <contour>
      <point x="210" y="-12" type="curve" smooth="yes"/>
      <point x="397" y="-12"/>
      <point x="546" y="200"/>
      <point x="546" y="455" type="curve" smooth="yes"/>
      <point x="546" y="612"/>
      <point x="473" y="671"/>
      <point x="378" y="671" type="curve" smooth="yes"/>
      <point x="323" y="671"/>
      <point x="267" y="651"/>
      <point x="221" y="614" type="curve"/>
      <point x="250" y="565" type="line"/>
      <point x="284" y="593"/>
      <point x="319" y="608"/>
      <point x="366" y="608" type="curve" smooth="yes"/>
      <point x="426" y="608"/>
      <point x="472" y="565"/>
      <point x="472" y="454" type="curve" smooth="yes"/>
      <point x="472" y="253"/>
      <point x="363" y="52"/>
      <point x="221" y="52" type="curve" smooth="yes"/>
      <point x="158" y="52"/>
      <point x="124" y="96"/>
      <point x="124" y="162" type="curve" smooth="yes"/>
      <point x="124" y="259"/>
      <point x="192" y="344"/>
      <point x="307" y="344" type="curve" smooth="yes"/>
      <point x="371" y="344"/>
      <point x="414" y="305"/>
      <point x="448" y="246" type="curve"/>
      <point x="468" y="310" type="line"/>
      <point x="438" y="361"/>
      <point x="380" y="404"/>
      <point x="303" y="404" type="curve" smooth="yes"/>
      <point x="154" y="404"/>
      <point x="48" y="299"/>
      <point x="48" y="154" type="curve" smooth="yes"/>
      <point x="48" y="45"/>
      <point x="114" y="-12"/>
    </contour>
  </outline>
</glyph>
<glyph name="product" format="1">
  <advance width="600"/>
  <unicode hex="220F"/>
  <outline>
    <contour>
      <point x="47" y="-120" type="line"/>
      <point x="124" y="-120" type="line"/>
      <point x="124" y="570" type="line"/>
      <point x="459" y="570" type="line"/>
      <point x="459" y="-120" type="line"/>
      <point x="538" y="-120" type="line"/>
      <point x="538" y="638" type="line"/>
      <point x="47" y="638" type="line"/>
    </contour>
  </outline>
</glyph>
<glyph name="minus" format="1">
  <advance width="600"/>
  <unicode hex="2212"/>
  <outline>
    <contour>
      <point x="96" y="302" type="line"/>
      <point x="511" y="302" type="line"/>
      <point x="511" y="359" type="line"/>
      <point x="96" y="359" type="line"/>
    </contour>
  </outline>
</glyph>
<glyph name="radical" format="1">
  <advance width="600"/>
  <unicode hex="221A"/>
  <outline>
    <contour>
      <point x="226" y="-97" type="line"/>
      <point x="284" y="-97" type="line"/>
      <point x="685" y="820" type="line"/>
      <point x="629" y="820" type="line"/>
      <point x="295" y="49" type="line" smooth="yes"/>
      <point x="286" y="28"/>
      <point x="279" y="9"/>
      <point x="270" y="-12" type="curve"/>
      <point x="266" y="-12" type="line"/>
      <point x="266" y="9"/>
      <point x="264" y="28"/>
      <point x="262" y="49" type="curve"/>
      <point x="215" y="400" type="line"/>
      <point x="75" y="344" type="line"/>
      <point x="85" y="301" type="line"/>
      <point x="161" y="333" type="line"/>
    </contour>
  </outline>
</glyph>
